/* XPM */
static char * enemy5_xpm[] = {
"64 64 54 1",
" 	c #980088",
".	c #700000",
"+	c #00007C",
"@	c #00004C",
"#	c #0000A4",
"$	c #E00000",
"%	c #FC0000",
"&	c #FC5C5C",
"*	c #A80000",
"=	c #383838",
"-	c #000000",
";	c #545454",
">	c #A8A8A8",
",	c #FCFCFC",
"'	c #202020",
")	c #0000A8",
"!	c #2C2C2C",
"~	c #707070",
"{	c #C0C0C0",
"]	c #7C7C7C",
"^	c #5C4020",
"/	c #6C4824",
"(	c #9C6038",
"_	c #0000B0",
":	c #A0643C",
"<	c #80502C",
"[	c #905C34",
"}	c #BC7848",
"|	c #FCA470",
"1	c #FCB890",
"2	c #F0945C",
"3	c #B47044",
"4	c #DC8854",
"5	c #FCD4BC",
"6	c #E88C58",
"7	c #ECECEC",
"8	c #543C1C",
"9	c #8C8C8C",
"0	c #646464",
"a	c #484848",
"b	c #B4B4B4",
"c	c #989898",
"d	c #DCDCDC",
"e	c #D0D0D0",
"f	c #FC9C60",
"g	c #FCB080",
"h	c #A86840",
"i	c #D08050",
"j	c #483818",
"k	c #000040",
"l	c #000034",
"m	c #00001C",
"n	c #000058",
"o	c #000064",
"                                                                ",
"                                                                ",
"                                                                ",
"                                                                ",
"                                                                ",
"                                                                ",
"                                                                ",
"                                                                ",
"                                                                ",
"                                                                ",
"                                                                ",
"                                                                ",
"                                                                ",
"                                                                ",
"                                                                ",
"                                                                ",
"                                                                ",
"                           .++++++++@.                          ",
"                          #$%&%$$$***.                          ",
"                          =-;;>,,>;='=                          ",
"                          =)!-------==                          ",
"                           =~{>];;===                           ",
"                           ^/(_:<_(/^                           ",
"                           [}|1231|}[                           ",
"                            }4||||4}                            ",
"                            <215512<-                           ",
"                           '<6||||6<-- ;                        ",
"                           =7=[:::8-]-99                        ",
"                         0aa=b'---->-99c                        ",
"                        >d]aa'-~~---{b>c 0                      ",
"                       >d,b]!-b,b,{{{ecc00;                     ",
"                       >,,,9;!'99]>eeb9~;;a                     ",
"                      be,,b99;!!90]c999~a=;                     ",
"                      be,db099a!!0~ccc];=;;                     ",
"                      be,db00]6f380~]~aa=;;                     ",
"                      be,,c]>gg14(-=aaa==aa                     ",
"                      b,,>dd,g||6h'-!!'-/h;                     ",
"                      b,,d,,,>4ih<------/i/                     ",
"                       ,,dbb9]ajjj----'!/i                      ",
"                        cc]00a!!!=====aa=                       ",
"                         ]0;a==!a~]999~a=                       ",
"                         ]~0;;aa0]c>{{b~a                       ",
"                         ]]~0;;=~]c>eeb~a                       ",
"                         0]]0;;a~099990;a                       ",
"                         c00aaaa09dddd90a                       ",
"                         c9~0;;09>dddd990                       ",
"                         c9~0;;09>dddd990                       ",
"                         c9~0;;09>dddd>90                       ",
"                         c9~0;;09>dddd>0                        ",
"                          9~0;;;]>{{{{b0                        ",
"                         9~~~;;a]bbbccb0                        ",
"                          aaaaa~b~9999~b0                       ",
"                          '====]~0]]]]a00                       ",
"                           ''''=a;0000aa                        ",
"                           ----'=;000;aa                        ",
"                           kl----mmmmm-                         ",
"                           k-----mklmm-                         ",
"                           klll--nklm--                         ",
"                           ok--- nklm--                         ",
"                                 mmmm--                         ",
"                                 kkl--                          ",
"                                kkkllk-                         ",
"                                kkkkll-                         ",
"                                klllll-                         "};
