/* XPM */
static char * enemy13_xpm[] = {
"64 64 36 1",
" 	c #980088",
".	c #D40000",
"+	c #880000",
"@	c #000000",
"#	c #7C0000",
"$	c #700000",
"%	c #FC0000",
"&	c #A40000",
"*	c #B00000",
"=	c #000040",
"-	c #000058",
";	c #000034",
">	c #383838",
",	c #00001C",
"'	c #BC0000",
")	c #980000",
"!	c #580000",
"~	c #989898",
"{	c #DCDCDC",
"]	c #FCFCFC",
"^	c #8C8C8C",
"/	c #D0D0D0",
"(	c #00004C",
"_	c #FC5C5C",
":	c #ECECEC",
"<	c #00002C",
"[	c #A8A8A8",
"}	c #B4B4B4",
"|	c #707070",
"1	c #7C7C7C",
"2	c #A86840",
"3	c #646464",
"4	c #545454",
"5	c #640000",
"6	c #400000",
"7	c #4C0000",
"                                                                ",
"                                                                ",
"                                                                ",
"                                                                ",
"                                                                ",
"                                                                ",
"                                                                ",
"                                                                ",
"                                                                ",
"                                                                ",
"                                                                ",
"                                                                ",
"                                                                ",
"                                                                ",
"                                                                ",
"                                                                ",
"                                                                ",
"                                                                ",
"                                                                ",
"                                                                ",
"                                                                ",
"                                                                ",
"                                                                ",
"                                                                ",
"                                                                ",
"                                                                ",
"                                                                ",
"                                                                ",
"                                                                ",
"                                                                ",
"                                                                ",
"                                                                ",
"                                                                ",
"                                                                ",
"                                                                ",
"                                                                ",
"                                                                ",
"                                                                ",
"                                                                ",
"                                                                ",
"                     .                                          ",
"                   .  +                                         ",
"               @@@.@ .                                          ",
"              @@@.#@.+ $  .    %                                ",
"             @@@&#@.*=     +    -;@                             ",
"           &&@@..#.%>#=%       -=,@@                            ",
"         '   @'.)!'~~~~~{{]^^+ -,@@@                            ",
"           . /#)!!~~{{{]]]^(-;==@@@@                            ",
"       +  ]]__~~~]{]]]{::^@(;,=<@@@@                            ",
"        ~[/_]]]]]~{{{/}::^==,,;,@@@@                            ",
"      }[|~]]]]]]/~////1::^@@,@;,@@@                             ",
"     22||]]]]//1{~3~~~33^^@@@@@@@@@                             ",
"      2===@///[1~|311113334@@@@@@@@                             ",
"      @,,=;@[[14||3333344     @@@@                              ",
"      @;;@,@11443444!55   5                                     ",
"     ;;@@@@@444>45!6! )                                         ",
"   ;;;;;;;@@44 5 5!6!                                           ",
"  ;;;;@@@@;@ )   #57!  5                                        ",
" ;;@@@@@@@@    5 #57!!   +      +                               ",
" @@@@@@@@@  )##55555!!!!6     $$$$$$                            ",
"  @@@@        )##55!!!66                                        ",
"                                                                ",
"                                                                ",
"                                                                "};
