/* XPM */
static char * enemy11_xpm[] = {
"64 64 54 1",
" 	c #980088",
".	c #FC0000",
"+	c #484848",
"@	c #383838",
"#	c #2C2C2C",
"$	c #B00000",
"%	c #000040",
"&	c #202020",
"*	c #000000",
"=	c #7C0000",
"-	c #C80000",
";	c #5C4020",
">	c #EC0000",
",	c #BC7848",
"'	c #DC8854",
")	c #A86840",
"!	c #63747D",
"~	c #FCB890",
"{	c #FCA470",
"]	c #FCD4BC",
"^	c #FCB080",
"/	c #F0945C",
"(	c #880000",
"_	c #A0643C",
":	c #885830",
"<	c #BC0000",
"[	c #7C7C7C",
"}	c #80502C",
"|	c #989898",
"1	c #DCDCDC",
"2	c #ECECEC",
"3	c #C0C0C0",
"4	c #980000",
"5	c #D40000",
"6	c #FCFCFC",
"7	c #E00000",
"8	c #580000",
"9	c #A8A8A8",
"0	c #B4B4B4",
"a	c #D0D0D0",
"b	c #646464",
"c	c #545454",
"d	c #707070",
"e	c #FC9C60",
"f	c #B45400",
"g	c #B47044",
"h	c #8C8C8C",
"i	c #FCFC54",
"j	c #A85400",
"k	c #640000",
"l	c #C87C4C",
"m	c #000034",
"n	c #00001C",
"o	c #00002C",
"                                                                ",
"                                                                ",
"                                                                ",
"                                                                ",
"                                                                ",
"                                                                ",
"                                                                ",
"                                                                ",
"                                                                ",
"                                                                ",
"                                                                ",
"                                                                ",
"                                                                ",
"                                                                ",
"                                                                ",
"                                                                ",
"                                                                ",
"                                                                ",
"                                                                ",
"                            .                                   ",
"                      +@@#$%                                    ",
"                     @&****$=                                   ",
"                   -#*******$%    -                             ",
"                    ****;;;*@=%.                                ",
"            >=      **;,>-',)=%!.       .                       ",
"                    **,~{]^/.)%$    (   (                       ",
"                    **{__::.))%                                 ",
"                $  > *__'.<**.[                                 ",
"                 >    }<.<*|.12233222    -                      ",
"                    * 4.546>$112322-22|                         ",
"                   $!*7548$$399[|0|||22|                        ",
"                   aaa=488$@@@bc||||||22|                       ",
"              $   aaaad-dddc@*ccb    |eee                       ",
"                a99|aaaa*fd*|666|-    e}eg                      ",
"               9a[b|aah*fi|611166a9     eg                      ",
"              9a||bbaa*cj|6111119[[k    lg                      ",
"             9a|[   7a++1160111|0ac   k( }                      ",
"            9gg[     +b1116091[[h[dc                            ",
"            ''g      b01h96[1h[[[[dc                            ",
"           '' g      011693[[d[[[dc*(   5(                      ",
"            '        01100db[d[[+***kk                          ",
"                    b01300db********k!k                         ",
"                    b01300db+%%***** (                          ",
"                    b01300d++%%mm**     k                       ",
"                    b01009b++(******                            ",
"                    b01009b++(**nnm*    (                       ",
"                    b01011+@#!*nm%%m                            ",
"                    b00|[[[++!*%%mm*                            ",
"                    +[[[[bc++* %%**                             ",
"                    +[bbbbc++*                                  ",
"                     ++ccc++#*                                  ",
"                      #++++#**                                  ",
"                       o**nn***                                 ",
"                        **mn****                                ",
"                          *n****                                ",
"                          *mn***                                ",
"                          *mn***                                ",
"                           mn***                                ",
"                           mmn**                                ",
"                            oo*                                 ",
"                                                                ",
"                                                                ",
"                                                                ",
"                                                                "};
