/* XPM */
static char * enemy10_xpm[] = {
"64 64 58 1",
" 	c #980088",
".	c #A80000",
"+	c #EC0000",
"@	c #980000",
"#	c #580000",
"$	c #7C0000",
"%	c #000070",
"&	c #000058",
"*	c #000040",
"=	c #700000",
"-	c #C80000",
";	c #383838",
">	c #000000",
",	c #2C2C2C",
"'	c #9C6038",
")	c #DC8854",
"!	c #FCB080",
"~	c #FCFC54",
"{	c #FCA470",
"]	c #202020",
"^	c #FCB890",
"/	c #FCD4BC",
"(	c #B00000",
"_	c #D08050",
":	c #E46C00",
"<	c #F0945C",
"[	c #A0643C",
"}	c #B47044",
"|	c #A85400",
"1	c #545454",
"2	c #7C7C7C",
"3	c #B4B4B4",
"4	c #ECECEC",
"5	c #C0C0C0",
"6	c #A8A8A8",
"7	c #FCFCFC",
"8	c #989898",
"9	c #DCDCDC",
"0	c #D0D0D0",
"a	c #905C34",
"b	c #FC9C60",
"c	c #63747D",
"d	c #C87C4C",
"e	c #BC0000",
"f	c #8C8C8C",
"g	c #744C28",
"h	c #E00000",
"i	c #646464",
"j	c #707070",
"k	c #80502C",
"l	c #484848",
"m	c #4C0000",
"n	c #880000",
"o	c #979797",
"p	c #989297",
"q	c #00001C",
"r	c #000034",
"s	c #00002C",
"                                                                ",
"                                                                ",
"                                                                ",
"                                                                ",
"                                                                ",
"                                                                ",
"                                                                ",
"                                  .                             ",
"                                                                ",
"                                                                ",
"                                                                ",
"                    +.                                          ",
"                     @#           +$                            ",
"                                                                ",
"                          %%%&*  =+                             ",
"                         $-----$*                               ",
"                       ;;;;;;;;$$*     +$                       ",
"                +$    ;>>>>>>,,;,$*                             ",
"                      >>>'))!~{]],*                             ",
"                      >>^{/!(_):]]*  +                          ",
"                    (  +{{!!!)<~>>*                             ",
"                        {[[})))|>>>                             ",
"                        [[[[[>>>>1234456                        ",
"                     +  [[({>7>85999494408                      ",
"                        >a{>7>7+5998399bbbb                     ",
"                       (c>>>97775668888b}bd}                    ",
"                        >>7e9+33f6822   gbd}'                   ",
"                   (    (>eh99h56iiii     d}'                   ",
"                       0hh@$$64f2jii1      k'                   ",
"                       h01@##>ifjii11 =                         ",
"                      609h$##>>>ii111                           ",
"                      60h00f$l,>>>11m                           ",
"                     66600fff1>>>>>>                            ",
"                     62i081~>>>>>>>>> n                         ",
"                     66f 1~|>li2ffji>                           ",
"                    668f 1|857779906f                           ",
"                    68f2 >8397666606f                           ",
"                    }}22 e6676444462f                           ",
"                   ))}    f6647740681 i                         ",
"                   ) }  ef76777700622li                         ",
"                   )     f7577700662ili                         ",
"                         ff7777706f2ili                         ",
"                         f34556622iiil                          ",
"                          35550001li1                           ",
"                          35668f2j1ill                          ",
"                           8o8222j1lll                          ",
"                           88222j1>l1l                          ",
"                           >p811>>>>1;;                         ",
"                            **q>>>>>;1ll                        ",
"                            ***r>>>>>11ll                       ",
"                             rs>>>>>>>1ll                       ",
"                              sr>>>>>>lll>                      ",
"                                s>>>>>>l>>                      ",
"                                **rs>>>>>>                      ",
"                                **rs>>>>>>                      ",
"                                q**r>>>>>>                      ",
"                                 qqq>qq>>>>>                    ",
"                                     rq>>>>>                    ",
"                                     rq>>>>>                    ",
"                                     rrq>>>>                    ",
"                                      rq>>>>                    ",
"                                      rrq>>>                    ",
"                                      sss>>                     ",
"                                                                "};
