/* XPM */
static char * enemy12_xpm[] = {
"64 64 49 1",
" 	c #980088",
".	c #EC0000",
"+	c #A40000",
"@	c #000000",
"#	c #7C0000",
"$	c #000040",
"%	c #B00000",
"&	c #D40000",
"*	c #885830",
"=	c #BC7848",
"-	c #FC0000",
";	c #383838",
">	c #880000",
",	c #5C4020",
"'	c #C80000",
")	c #BC0000",
"!	c #700000",
"~	c #FCB890",
"{	c #FCB080",
"]	c #80502C",
"^	c #E00000",
"/	c #FCA470",
"(	c #A86840",
"_	c #980000",
":	c #580000",
"<	c #DCDCDC",
"[	c #FCFCFC",
"}	c #D0D0D0",
"|	c #ECECEC",
"1	c #B4B4B4",
"2	c #C0C0C0",
"3	c #FC5C5C",
"4	c #640000",
"5	c #989898",
"6	c #A8A8A8",
"7	c #8C8C8C",
"8	c #484848",
"9	c #B45400",
"0	c #646464",
"a	c #DC8854",
"b	c #B47044",
"c	c #7C7C7C",
"d	c #00002C",
"e	c #63747D",
"f	c #FC9C60",
"g	c #000034",
"h	c #00001C",
"i	c #545454",
"j	c #2C2C2C",
"                                                                ",
"                                                                ",
"                                                                ",
"                                                                ",
"                                                                ",
"                                                                ",
"                                                                ",
"                                                                ",
"                                                                ",
"                                                                ",
"                                                                ",
"                                                                ",
"                                                                ",
"                                                                ",
"                                                                ",
"                                                                ",
"                                                                ",
"                                                                ",
"                                                                ",
"                                                                ",
"                                                                ",
"                                                                ",
"                                                                ",
"                                                                ",
"                                                                ",
"                                                                ",
"                                                                ",
"                                                                ",
"                                                                ",
"                       .    +                                   ",
"                    @@@@@       +                               ",
"                   @@@@@@#      .                               ",
"                  @@@+@@$%$       +                             ",
"              &  +@@*==*-;#$-          +                        ",
"              >  ;@,=.'-=)>$!       -                           ",
"                 @+=~)-{)>]$   ^    +                           ",
"                +@@/)->)>(]$   !       +                        ",
"              )   @)&_:><<[[[       !                           ",
"               [[[}#_::<|||11[''                                ",
"           [[2[[[334}@[1|||<<2[5|      )                        ",
"         [[[<56}3}&789[1||<270065||    !                        ",
"       abb116 55}>48c}[1|<<8ddd@11||                            ",
"      aaab      }}4[[<[71<7d$d@@e5fff                           ",
"      a b        [[[[<6<12d$$gh@@efefb                          ",
"                [[[[<}66c6d$gh@@@eeefb                          ",
"              [[[[[[<17c00@g@gh@@@@e]b                          ",
"             22[[[[[[cc0i88@h@h$$$d@ ]                          ",
"             [[|[[[c<60i44  $h$$$gd@                            ",
"            5[[<}}67c0i44>   $$$gd@  )                          ",
"           h8[<}5560;i> >>   gggd@   ! 4                        ",
"           hj8555cc88 + _    @d@@  4                            ",
"           $hjj8888   .    _                                    ",
"           @$h@@@@    .                                         ",
"           h@$h@@   _ .                                         ",
"           $hh@@@  _      _                                     ",
"          $$h@@@                                                ",
"          $$$@@@                                                ",
"          $$$@@@                                                ",
"          $$$@@                                                 ",
"          @@h@@                                                 ",
"           @@@                                                  ",
"                                                                ",
"                                                                ",
"                                                                "};
