/* XPM */
static char * enemy2_xpm[] = {
"64 64 64 1",
" 	c #980088",
".	c #A8A8A8",
"+	c #8C8C8C",
"@	c #7C7C7C",
"#	c #545454",
"$	c #484848",
"%	c #D0D0D0",
"&	c #383838",
"*	c #646464",
"=	c #202020",
"-	c #989898",
";	c #707070",
">	c #C0C0C0",
",	c #ECECEC",
"'	c #2C2C2C",
")	c #C80000",
"!	c #B45400",
"~	c #000000",
"{	c #640000",
"]	c #FC5C5C",
"^	c #FCA85C",
"/	c #744C28",
"(	c #FC4040",
"_	c #980000",
":	c #FC8820",
"<	c #FCF400",
"[	c #483818",
"}	c #FCA470",
"|	c #E88C58",
"1	c #EC0000",
"2	c #403018",
"3	c #905C34",
"4	c #A86840",
"5	c #FCB890",
"6	c #C87C4C",
"7	c #A0643C",
"8	c #80502C",
"9	c #9C6038",
"0	c #D08050",
"a	c #F0945C",
"b	c #FC9C60",
"c	c #885830",
"d	c #B47044",
"e	c #BC7848",
"f	c #FCB080",
"g	c #FC2020",
"h	c #5C4020",
"i	c #6C4824",
"j	c #28200C",
"k	c #382C14",
"l	c #543C1C",
"m	c #DC8854",
"n	c #500050",
"o	c #00007C",
"p	c #000040",
"q	c #0000A8",
"r	c #000070",
"s	c #00004C",
"t	c #000064",
"u	c #0000E0",
"v	c #0000D4",
"w	c #000088",
"x	c #0000B0",
"y	c #000098",
"                                                                ",
"                                                                ",
"                                                                ",
"                                                                ",
"                                                                ",
"                                                                ",
"                                                                ",
"                                                                ",
"                                                                ",
"                                                                ",
"                                                                ",
"                                                                ",
"                                                                ",
"                                                                ",
"                                                                ",
"                                                                ",
"                                                                ",
"                                                                ",
"                              ..+@#$                            ",
"                             .%+##$&$                           ",
"                             ++*##$&=                           ",
"                             -@;##$&=                           ",
"                            ->,>+;*#'=                          ",
"                           -)'!!!!!'~'=                         ",
"                             {]!^!]{/)                          ",
"                           ({_:<<<:![                           ",
"                            {!^<,<^!~                           ",
"                          }|~!1]^<1!~234                        ",
"                       5}6782{]::!]{!44890                      ",
"                      4}}ab)}c{!!!{~~bbbb9d                     ",
"                      e}}bb}9fgd}!ee9h00eed                     ",
"                      e5|40eiffd5}ee9h4443/                     ",
"                       e479cchccc4jj~~h///k                     ",
"                       hhhh[k==j~[[[dc[jkk                      ",
"                         8jj2l===$0ddc[j                        ",
"                          c[j28===$d7chk                        ",
"                          6cl[28~===chk                         ",
"                          6a9l22~c~~~hj                         ",
"                          #$&==++#===~~                         ",
"                          #$&==###===~~                         ",
"                          6a90//2//kihj                         ",
"                         6aam0d/n///8i[k                        ",
"                         6aa00d/n/733i[k                        ",
"                        6aaa00dnnl7338[k                        ",
"                        6aa00d/njn/3c8[kj                       ",
"                        3c//22~jkj~~~~~~j                       ",
"                        dm||eh2j jh7em78j                       ",
"                       d6|bbe82j jhembd72                       ",
"                       d6bfbecj   j30mbd2                       ",
"                       dmff/ehj   ji/9bbh2                      ",
"                       df0ea/j     jebm772                      ",
"                      dmbfe[/2j   jhh7mb7hj                     ",
"                      dmbfe3[j     j3emm7hj                     ",
"                      d|bbechj     j30007hj                     ",
"                      3eee//2      jh33hhjj                     ",
"                      ~=====~       ~====~                      ",
"                      ~oop==        ~qrpp~                      ",
"                      ~qsp==        ~tqsp~                      ",
"                      ~uop==         =qup=~                     ",
"                      ~qsp=          ~tqs=~                     ",
"                      tqs=~           =qrp~                     ",
"                     'qvos=~         =wvxxr~                    ",
"                    'qrrps=~         ~qyrpp=~                   ",
"                    ======~           ~=====~                   "};
