/* XPM */
static char * enemy7_xpm[] = {
"64 64 51 1",
" 	c #980088",
".	c #700000",
"+	c #00007C",
"@	c #00004C",
"#	c #0000A4",
"$	c #E00000",
"%	c #FC0000",
"&	c #FC5C5C",
"*	c #A80000",
"=	c #383838",
"-	c #000000",
";	c #545454",
">	c #A8A8A8",
",	c #FCFCFC",
"'	c #202020",
")	c #0000A8",
"!	c #2C2C2C",
"~	c #707070",
"{	c #C0C0C0",
"]	c #7C7C7C",
"^	c #5C4020",
"/	c #6C4824",
"(	c #9C6038",
"_	c #0000B0",
":	c #A0643C",
"<	c #80502C",
"[	c #905C34",
"}	c #BC7848",
"|	c #FCA470",
"1	c #FCB890",
"2	c #F0945C",
"3	c #B47044",
"4	c #DC8854",
"5	c #FCD4BC",
"6	c #484848",
"7	c #B4B4B4",
"8	c #DCDCDC",
"9	c #E88C58",
"0	c #8C8C8C",
"a	c #646464",
"b	c #ECECEC",
"c	c #A86840",
"d	c #D0D0D0",
"e	c #989898",
"f	c #C87C4C",
"g	c #FCB080",
"h	c #FC7800",
"i	c #483818",
"j	c #000034",
"k	c #000040",
"l	c #00002C",
"                                                                ",
"                                                                ",
"                                                                ",
"                                                                ",
"                                                                ",
"                                                                ",
"                                                                ",
"                                                                ",
"                                                                ",
"                                                                ",
"                                                                ",
"                                                                ",
"                                                                ",
"                                                                ",
"                                                                ",
"                                                                ",
"                                                                ",
"                           .++++++++@                           ",
"                          #$%&%$$$***.                          ",
"                          =-;;>,,>;='=                          ",
"                          =)!-------==                          ",
"                           =~{>];;===                           ",
"                           ^/(_:<_(/^                           ",
"                           [}|1231|}[                           ",
"                           -}4||||4}-                           ",
"                           '<215512<-6                          ",
"                        78!--9||||9-!-0a                        ",
"                      7888!-b:ccc::6!-7{0                       ",
"                     7,788=!=~'---->-7d{{]                      ",
"                     77788=!7'-~~-e-{,,8{>                      ",
"                     ,]e07e=!77e{{67,{7,87]                     ",
"                     87aa77=-=7~{bb80a,,87]                     ",
"                     87e] 7e-'=~{eee>a,,87]                     ",
"                     87e]  7a-'!;{{ee]7{,7]                     ",
"                     8226 a]ea---fgg9,,,8,]                     ",
"                     f2[4 =aaaa!-ggfff88{8]                     ",
"                     f99[ '=;;;=!ggfff77]e]                     ",
"                      fc[ =''''h3fgff]]]]]                      ",
"                          6=!''3[^ii666                         ",
"                          a>0]a666;;;;;6                        ",
"                          >{dd{e~]]~aaa6                        ",
"                         ]{8bb{{e]]~~aa6                        ",
"                         e{8bb{{0a]~~aa;                        ",
"                         e>>>>>~~6a~~aa;                        ",
"                         >>888{e];=;;;66                        ",
"                         >{88887e~;aaaa;                        ",
"                          >88887e~;aaaa;                        ",
"                          {8888{e~;~aaa;                        ",
"                          d8888870a~~aa;                        ",
"                          8888888~~]]aa;;                       ",
"                         e80{{{78~~]]a;a;                       ",
"                         707{{{7]ea;;;6=;                       ",
"                         a~>7{7>0a=666='                        ",
"                          a]>>>e0;'''''-                        ",
"                          a~]]]~;'-----                         ",
"                           -------jj---                         ",
"                           jkkjl-------                         ",
"                           jkkjl--j----                         ",
"                           jkkjl--jjjjj                         ",
"                            kkjl- -----                         ",
"                            -kjl-                               ",
"                           jkkkjl-                              ",
"                           jkkjjl'                              ",
"                           jkjlll'                              "};
