/* XPM */
static char * enemy2_xpm[] = {
"64 64 49 1",
" 	c #980088",
".	c #700000",
"+	c #E00000",
"@	c #0000BC",
"#	c #00007C",
"$	c #000064",
"%	c #2C2C2C",
"&	c #383838",
"*	c #0000A8",
"=	c #A80000",
"-	c #202020",
";	c #545454",
">	c #707070",
",	c #000000",
"'	c #585400",
")	c #5C4020",
"!	c #EC0000",
"~	c #880000",
"{	c #BC0000",
"]	c #543C1C",
"^	c #FC2020",
"/	c #FC5C5C",
"(	c #FC7C7C",
"_	c #FCF440",
":	c #B4AC00",
"<	c #B4B4B4",
"[	c #DCDCDC",
"}	c #C80000",
"|	c #7C7C7C",
"1	c #989898",
"2	c #C0C0C0",
"3	c #A8A8A8",
"4	c #FCB890",
"5	c #A0643C",
"6	c #8C8C8C",
"7	c #646464",
"8	c #484848",
"9	c #7C0000",
"0	c #D0D0D0",
"a	c #DC8854",
"b	c #BC7848",
"c	c #9C6038",
"d	c #FC7800",
"e	c #A85400",
"f	c #6C4824",
"g	c #ECECEC",
"h	c #000034",
"i	c #00001C",
"j	c #00002C",
"                                                                ",
"                                                                ",
"                                                                ",
"                                                                ",
"                                                                ",
"                                                                ",
"                                                                ",
"                                                                ",
"                                                                ",
"                                                                ",
"                                                                ",
"                                                                ",
"                                                                ",
"                                                                ",
"                                                                ",
"                                                                ",
"                                                                ",
"                       .+@@###$$$.%                             ",
"                       &*========--                             ",
"                       &**&&;>>;&,-                             ",
"                        ').....--)                              ",
"                        !.~{{{~.!]                              ",
"                        '!{^^^{/.]                              ",
"                        .{//((/{~]                              ",
"                       !!{^(_:(^{~                              ",
"                        ~{^(:_(^{~                              ",
"                     <[[.{^/((//.[![                            ",
"                    <[[[[!{^^^^.}[[[<                           ",
"                    <[[[![.~^~.|11<<<                           ",
"                     2233144{55||116                            ",
"                     <11|7-89600<67;;                           ",
"                     <1|||--8|<<<6|7;                           ",
"                     <[6|||--8|36||7;                           ",
"                      [<6>||--->||>7;                           ",
"                      [<66>6>---|>7;                            ",
"                       [;>;>>;--->;&                            ",
"                       ,,---abc---,,                            ",
"                       -----def---,,                            ",
"                       3333||8||||78                            ",
"                       3gg<<|7<ggg1|7                           ",
"                      <ggg<<|7[22221|                           ",
"                      <gg<<178|[[[[[<                           ",
"                      |gg<<1781[3333||                          ",
"                      [|||||8 1>[[[[3|                          ",
"                      [[16|77 13[[[[<|                          ",
"                     [g<16|77 1<0[[[21                          ",
"                     gg<1||77 1<0[[[[01                         ",
"                     0g<1||7;  <<0[[[01                         ",
"                    00<<1|77;  1<0[[[00                         ",
"                    0<13|>|7&  112[[[00                         ",
"                    <6>116;8;   12[[[[00                        ",
"                    |7777|7;    2032223[                        ",
"                    ,7777;&-    23|33668                        ",
"                    ,,888&,     78|666>&                        ",
"                    ,,h,ii,      7>7;8&%                        ",
"                    ,,,,i,       hhj,i,,                        ",
"                     ,,,,,,       hjii,,                        ",
"                     ,,,,,,       hhjii,                        ",
"                    h,,ji,,        ,jji,                        ",
"                    hjjj-,         ,,,,,                        ",
"                    jjjjj          hhi,,,                       ",
"                                   hhhi,,                       ",
"                                  hhhhji,                       ",
"                                  ,jjiii,                       "};
