/* XPM */
static char * enemy1_xpm[] = {
"64 64 49 1",
" 	c #980088",
".	c #700000",
"+	c #E00000",
"@	c #0000BC",
"#	c #00007C",
"$	c #000064",
"%	c #2C2C2C",
"&	c #383838",
"*	c #0000A8",
"=	c #A80000",
"-	c #202020",
";	c #545454",
">	c #707070",
",	c #000000",
"'	c #9C9C00",
")	c #706C00",
"!	c #484848",
"~	c #FC9C60",
"{	c #848400",
"]	c #404000",
"^	c #585400",
"/	c #BC7848",
"(	c #9C6038",
"_	c #0000B0",
":	c #885830",
"<	c #5C4020",
"[	c #6C4824",
"}	c #543C1C",
"|	c #FCB890",
"1	c #DCDCDC",
"2	c #D08050",
"3	c #C0C0C0",
"4	c #80502C",
"5	c #C87C4C",
"6	c #646464",
"7	c #B4B4B4",
"8	c #A0643C",
"9	c #989898",
"0	c #7C7C7C",
"a	c #A8A8A8",
"b	c #8C8C8C",
"c	c #D0D0D0",
"d	c #DC8854",
"e	c #FC7800",
"f	c #A85400",
"g	c #ECECEC",
"h	c #000034",
"i	c #00001C",
"j	c #00002C",
"                                                                ",
"                                                                ",
"                                                                ",
"                                                                ",
"                                                                ",
"                                                                ",
"                                                                ",
"                                                                ",
"                                                                ",
"                                                                ",
"                                                                ",
"                                                                ",
"                                                                ",
"                                                                ",
"                                                                ",
"                                                                ",
"                                                                ",
"                       .+@@###$$$.%                             ",
"                       &*========--                             ",
"                       &**&&;>>;&,-                             ",
"                        ')!-------                              ",
"                        '~{;!!&%%]                              ",
"                        ^~/(_::<[}                              ",
"                         /||1>22/}                              ",
"                        ,:~3-->2:,                              ",
"                        ,453--654,                              ",
"                     711771!>>!11111                            ",
"                    711111|||28991117                           ",
"                    711111||288099777                           ",
"                     33aa9||2880099b                            ",
"                     79906-!0bcc7b6;;                           ",
"                     79000--!0777b06;                           ",
"                     71b000--!0ab006;                           ",
"                      17b>00--->00>6;                           ",
"                      17bb>b>---0>6;                            ",
"                       1;>;>>;--->;&                            ",
"                       ,,---d/(---,,                            ",
"                       -----ef[---,,                            ",
"                       aaaa00!00006!                            ",
"                       agg77067ggg906                           ",
"                      7ggg77061333390                           ",
"                      7gg7796!0111117                           ",
"                      0gg7796!91aaaa00                          ",
"                      100000! 9>1111a0                          ",
"                      119b066 9a111170                          ",
"                     1g79b066 97c11139                          ",
"                     gg790066 97c1111c9                         ",
"                     cg79006;  77c111c9                         ",
"                    cc779066;  97c111cc                         ",
"                    c79a0>06&  993111cc                         ",
"                    7b>99b;!;   931111cc                        ",
"                    0666606;    3c1333a1                        ",
"                    ,6666;&-    337aabb!                        ",
"                    ,,!!!&,     6!bbbb>&                        ",
"                    ,,h,ii,      6>6;!&%                        ",
"                    ,,,,i,       hhj,i,,                        ",
"                     ,,,,,,       hjii,,                        ",
"                     ,,,,,,       hhjii,                        ",
"                    h,,ji,,        ,jji,                        ",
"                    hjjj-,         ,,,,,                        ",
"                    jjjjj          hhi,,,                       ",
"                                   hhhi,,                       ",
"                                  hhhhji,                       ",
"                                  ,jjiii,                       "};
