/* XPM */
static char * enemy14_xpm[] = {
"64 64 33 1",
" 	c #980088",
".	c #000000",
"+	c #580000",
"@	c #D40000",
"#	c #880000",
"$	c #FC4040",
"%	c #7C0000",
"&	c #980000",
"*	c #A8A8A8",
"=	c #8C8C8C",
"-	c #FCFCFC",
";	c #FCB8B8",
">	c #989898",
",	c #DCDCDC",
"'	c #ECECEC",
")	c #BC7848",
"!	c #FC9C60",
"~	c #00004C",
"{	c #000034",
"]	c #545454",
"^	c #D0D0D0",
"/	c #646464",
"(	c #7C7C7C",
"_	c #00001C",
":	c #00002C",
"<	c #383838",
"[	c #707070",
"}	c #000040",
"|	c #4C0000",
"1	c #640000",
"2	c #B00000",
"3	c #C80000",
"4	c #63747D",
"                                                                ",
"                                                                ",
"                                                                ",
"                                                                ",
"                                                                ",
"                                                                ",
"                                                                ",
"                                                                ",
"                                                                ",
"                                                                ",
"                                                                ",
"                                                                ",
"                                                                ",
"                                                                ",
"                                                                ",
"                                                                ",
"                                                                ",
"                                                                ",
"                                                                ",
"                                                                ",
"                                                                ",
"                                                                ",
"                                                                ",
"                                                                ",
"                                                                ",
"                                                                ",
"                                                                ",
"                                                                ",
"                                                                ",
"                                                                ",
"                                                                ",
"                                                                ",
"                                                                ",
"                                                                ",
"                                                                ",
"                                                                ",
"                                                                ",
"                                                                ",
"                                                                ",
"                                                                ",
"                                                                ",
"                                                                ",
"                                                                ",
"                                                                ",
"                                                                ",
"                                                                ",
"                                                                ",
"                                                                ",
"                                                                ",
"               .....                                            ",
"              .......                                           ",
"             .........                                          ",
"             .+@@@@#+.                                          ",
"            $$%&#####@**=                                       ",
"         $----;>>-,-----',$==                                   ",
"    )!,>>*------->,-------=~~{.. .{...                          ",
"   )))!{{{],,,^^**/^^^('$=.~{_{:{{.....                         ",
"  {{{{..{{_<>****[](>>//==}}__{{.......                         ",
" {{...{{..{.<**[]]]/(((//=.._.{_......                          ",
" {......{...<[[]||####]]]=...........                           ",
" ........... ||1%#23333##1].........@%                          ",
"   .........   ||1111##32#1444....                              ",
"      .....           11####11                                  ",
"                                                                "};
