/* XPM */
static char * enemy6_xpm[] = {
"64 64 55 1",
" 	c #980088",
".	c #700000",
"+	c #00007C",
"@	c #00004C",
"#	c #0000A4",
"$	c #E00000",
"%	c #FC0000",
"&	c #FC5C5C",
"*	c #A80000",
"=	c #383838",
"-	c #000000",
";	c #545454",
">	c #A8A8A8",
",	c #FCFCFC",
"'	c #202020",
")	c #0000A8",
"!	c #2C2C2C",
"~	c #707070",
"{	c #C0C0C0",
"]	c #7C7C7C",
"^	c #5C4020",
"/	c #6C4824",
"(	c #9C6038",
"_	c #0000B0",
":	c #A0643C",
"<	c #80502C",
"[	c #905C34",
"}	c #BC7848",
"|	c #FCA470",
"1	c #FCB890",
"2	c #F0945C",
"3	c #B47044",
"4	c #DC8854",
"5	c #FCD4BC",
"6	c #E88C58",
"7	c #484848",
"8	c #A86840",
"9	c #DCDCDC",
"0	c #ECECEC",
"a	c #543C1C",
"b	c #8C8C8C",
"c	c #989898",
"d	c #D0D0D0",
"e	c #B4B4B4",
"f	c #646464",
"g	c #FCC4A4",
"h	c #D08050",
"i	c #FC7800",
"j	c #63747D",
"k	c #C87C4C",
"l	c #FCB080",
"m	c #000040",
"n	c #00001C",
"o	c #000034",
"p	c #00002C",
"                                                                ",
"                                                                ",
"                                                                ",
"                                                                ",
"                                                                ",
"                                                                ",
"                                                                ",
"                                                                ",
"                                                                ",
"                                                                ",
"                                                                ",
"                                                                ",
"                                                                ",
"                                                                ",
"                                                                ",
"                           .++++++++@.                          ",
"                          #$%&%$$$***.                          ",
"                          =-;;>,,>;='=                          ",
"                          =)!-------==                          ",
"                           =~{>];;===                           ",
"                           ^/(_:<_(/^                           ",
"                           [}|1231|}[                           ",
"                            }4||||4}                            ",
"                           -<215512<-                           ",
"                           '<6||||6<-7                          ",
"                          !--:888::-7-                          ",
"                        >9!-0-}6}8a7]-b]c                       ",
"                       d,,=!=e'---->-bbecc                      ",
"                      ,,9,=!~'-~~---{e>{cc]                     ",
"                     ,09{ef=!~c{c{eeeeeec]f]                    ",
"                     ,9d{b{=-=~c~{eddd>>~]f]                    ",
"                    ,9d{>b~]-'=~~{c>>>]]7f;f;                   ",
"                    c,>>];~]=-'=~;]cccff=;;;;                   ",
"                    {ccff7f]]=---=;]ff];;77;;                   ",
"                    ,,{c]7=fff=!--'=;f7=fff~;                   ",
"                    ,0{>ff==;;;=!'----'!fb>];                   ",
"                    {90ggh'''''i3['''''j]b>b;                   ",
"                     {1g||'''''3[^''''!j]k66;                   ",
"                     {1lkk=7777777777777f6k3;                   ",
"                      16k8~~]]]]~fffff;7 33(                    ",
"                      6k8]]]]b>{c~~~~f;7 (((                    ",
"                         b~~~]]ecf~~~f;7                        ",
"                          bbceec;;~~~f;7                        ",
"                         bceee{e~;;fff;7                        ",
"                         eeeddd{b;~~~~f;                        ",
"                        c{dddddeb~]bbb]                         ",
"                        {dddddedb]]bbb];                        ",
"                        {{>>>cbc{]]bbb];                        ",
"                        c]bbbbb~b]]bcc];                        ",
"                         ]]]]bb~b]]bbbc]                        ",
"                        fffff~~~b~bb]]]bf                       ",
"                        7ffffff7;~~fff~ff                       ",
"                         -77777--f;;;;f7                        ",
"                         mn----'!7;;;;7!                        ",
"                         monn---mmon---                         ",
"                          mopn--mmonn--                         ",
"                          o-----pmmon--                         ",
"                          oppp--pnnnn--                         ",
"                         mmopp--j-----                          ",
"                         mmmmop-jmmonnn                         ",
"                          pppp- -ppppp-                         ",
"                                mmmmop-                         ",
"                                pppppp-                         ",
"                                                                "};
