/* XPM */
static char * fire3_xpm[] = {
"64 64 156 2",
"  	c #980088",
". 	c #D6979A",
"+ 	c #F68B68",
"@ 	c #EC9681",
"# 	c #FB632F",
"$ 	c #F49879",
"% 	c #EB9D8A",
"& 	c #FD571E",
"* 	c #F87B53",
"= 	c #D8A7A8",
"- 	c #EC9984",
"; 	c #FE5111",
"> 	c #FE5618",
", 	c #F5916F",
"' 	c #EF8C72",
") 	c #FF5F01",
"! 	c #FD7A19",
"~ 	c #FA7244",
"{ 	c #F68968",
"] 	c #E79182",
"^ 	c #FF5202",
"/ 	c #FF6900",
"( 	c #FF7300",
"_ 	c #FE5716",
": 	c #F9764C",
"< 	c #F68764",
"[ 	c #E89281",
"} 	c #FF5E02",
"| 	c #FF8300",
"1 	c #FF8C00",
"2 	c #FF8000",
"3 	c #FF7500",
"4 	c #FE5610",
"5 	c #F78461",
"6 	c #E5A499",
"7 	c #FA6F43",
"8 	c #FF6600",
"9 	c #FF9100",
"0 	c #FF9F00",
"a 	c #FFB600",
"b 	c #FF7600",
"c 	c #FE560F",
"d 	c #F78764",
"e 	c #E7A89B",
"f 	c #FA7044",
"g 	c #FF5D00",
"h 	c #FFA000",
"i 	c #FFC500",
"j 	c #FFCB00",
"k 	c #FF9700",
"l 	c #FF8900",
"m 	c #FF5300",
"n 	c #FE4F0C",
"o 	c #F29479",
"p 	c #FF7F00",
"q 	c #FFA100",
"r 	c #FFC400",
"s 	c #FFDA00",
"t 	c #FFD400",
"u 	c #FF9200",
"v 	c #FF7200",
"w 	c #FE5711",
"x 	c #F18E73",
"y 	c #A06768",
"z 	c #A74F2E",
"A 	c #A7642E",
"B 	c #A7752E",
"C 	c #A7902E",
"D 	c #A7912E",
"E 	c #A78A2E",
"F 	c #A7692E",
"G 	c #A7602E",
"H 	c #A64838",
"I 	c #967C8B",
"J 	c #828298",
"K 	c #2C2C69",
"L 	c #3C3C7A",
"M 	c #45457A",
"N 	c #42427A",
"O 	c #333374",
"P 	c #46466D",
"Q 	c #57578B",
"R 	c #4E4E9A",
"S 	c #6161AA",
"T 	c #6565AA",
"U 	c #6C6CAA",
"V 	c #6D6DAA",
"W 	c #6969AA",
"X 	c #5A5AA4",
"Y 	c #47478E",
"Z 	c #7E7F99",
"` 	c #56568A",
" .	c #404093",
"..	c #4C4C9A",
"+.	c #6262AA",
"@.	c #6363AA",
"#.	c #6464AA",
"$.	c #6868AA",
"%.	c #5959A3",
"&.	c #414193",
"*.	c #46468F",
"=.	c #7C7C96",
"-.	c #646381",
";.	c #555586",
">.	c #424296",
",.	c #484899",
"'.	c #6161A8",
").	c #5353A0",
"!.	c #49498F",
"~.	c #616181",
"{.	c #5C5C7D",
"].	c #59597B",
"^.	c #54547F",
"/.	c #454596",
"(.	c #44449A",
"_.	c #4C4C88",
":.	c #606082",
"<.	c #4C4C74",
"[.	c #2E2E61",
"}.	c #2C2C67",
"|.	c #2D2D6A",
"1.	c #292960",
"2.	c #41416C",
"3.	c #505076",
"4.	c #4E4E74",
"5.	c #434393",
"6.	c #4A4AA0",
"7.	c #343470",
"8.	c #535377",
"9.	c #5B5B99",
"0.	c #6767A8",
"a.	c #3E3E73",
"b.	c #545477",
"c.	c #5F5F99",
"d.	c #6B6BA8",
"e.	c #404073",
"f.	c #47476F",
"g.	c #3F3F73",
"h.	c #4E4E72",
"i.	c #3A3A6D",
"j.	c #62629D",
"k.	c #6C6CA8",
"l.	c #4A4A80",
"m.	c #313161",
"n.	c #4C4C73",
"o.	c #6C6CA9",
"p.	c #6A6AA6",
"q.	c #414175",
"r.	c #4C4C72",
"s.	c #585891",
"t.	c #61619C",
"u.	c #3D3D71",
"v.	c #49496D",
"w.	c #2B2B5D",
"x.	c #2D2D5E",
"y.	c #282859",
"                                                                                                                                ",
"                                                                                                                                ",
"                                                                                                                                ",
"                                                                                                                                ",
"                                                                                                                                ",
"                                                                                                                                ",
"                                                                                                                                ",
"                                                                                                                                ",
"                                                                                                                                ",
"                                                                                                                                ",
"                                                                                                                                ",
"                                                                                                                                ",
"                                                                                                                                ",
"                                                                                                                                ",
"                                                                                                                                ",
"                                                                                                                                ",
"                                                                                                                                ",
"                                                                                                                                ",
"                                                                                                                                ",
"                                                                                                                                ",
"                                                                                                                                ",
"                                                                                                                                ",
"                                                                                                                                ",
"                                                                                                                                ",
"                                                                                                                                ",
"                                                                                                                                ",
"                                                                                                                                ",
"                                                                                                                                ",
"                                                                                                                                ",
"                                                                                                                                ",
"                                                              . +                                                               ",
"                                                        @ # $                                                                   ",
"                                                      % & * =                                                                   ",
"                                                      - ; > ,                                                                   ",
"                                                        ' ) ! ~ {                                                               ",
"                                                        ] ^ / ( _ : <                                                           ",
"                                                        [ } | 1 2 3 4 5                                                         ",
"                                                      6 7 8 9 0 a 9 b c d                                                       ",
"                                                    e f g 2 h i j k l m n                                                       ",
"                                                    o g p q r s t a u v w x                                                     ",
"                                                    y z A B C D D E F G H I                                                     ",
"                                      J K L M M M M M M M M M M M M M M M M M M M M N O P                                       ",
"                                        Q R S T U V V V V V V V V V V V V V V V W S X Y Z                                       ",
"                                          `  ...+.@.@.#.U V V V V V V V $.@.@.@.%.&.*.=.                                        ",
"                                            -.;.>.>.>.,.'.#.#.#.#.#.#.T ).>.>.>.!.~.                                            ",
"                                                {.].].^./.(.(.(.(.(.(.(._.].].].                                                ",
"                                                        :.<.[.}.|.1.2.3.                                                        ",
"                                                            4.5.6.7.                                                            ",
"                                                            8.9.0.a.                                                            ",
"                                                            b.c.d.e.                                                            ",
"                                                            b.c.d.e.                                                            ",
"                                                            b.c.d.e.                                                            ",
"                                                            b.c.d.e.                                                            ",
"                                                            b.c.d.e.                                                            ",
"                                                            b.c.d.e.                                                            ",
"                                                            b.c.d.e.                                                            ",
"                                                            b.c.d.e.                                                            ",
"                                                            b.c.d.e.                                                            ",
"                                                            b.c.d.e.                                                            ",
"                                                            f.c.d.g.                                                            ",
"                                                          h.i.j.k.l.m.                                                          ",
"                                                          n.c.o.V p.q.                                                          ",
"                                                          r.s.j.j.t.u.                                                          ",
"                                                          v.w.x.x.x.y.                                                          "};
