/* XPM */
static char * fire1_xpm[] = {
"64 64 148 2",
"  	c #980088",
". 	c #D6979A",
"+ 	c #F68B68",
"@ 	c #F39D84",
"# 	c #F49982",
"$ 	c #FB7047",
"% 	c #F79474",
"& 	c #F9825F",
"* 	c #FE711D",
"= 	c #FD8026",
"- 	c #FB8254",
"; 	c #F6967F",
"> 	c #F49E8C",
", 	c #FD6C26",
"' 	c #FF8C02",
") 	c #FF9C00",
"! 	c #FF8200",
"~ 	c #FD6D23",
"{ 	c #F4A18E",
"] 	c #F97A59",
"^ 	c #FC6C39",
"/ 	c #FE790D",
"( 	c #FFA101",
"_ 	c #FFBD00",
": 	c #FFA900",
"< 	c #FF8500",
"[ 	c #FA8C62",
"} 	c #F97C5E",
"| 	c #FF5700",
"1 	c #FF6F00",
"2 	c #FF8C00",
"3 	c #FFAA00",
"4 	c #FFCF00",
"5 	c #FFC700",
"6 	c #FFA800",
"7 	c #FE891B",
"8 	c #FC7734",
"9 	c #FB7A53",
"0 	c #FF8B00",
"a 	c #FF9F00",
"b 	c #FFBA00",
"c 	c #FFD500",
"d 	c #FFD100",
"e 	c #FFB300",
"f 	c #FF8E00",
"g 	c #FE7215",
"h 	c #F18152",
"i 	c #F67F00",
"j 	c #F5950B",
"k 	c #F5AE0B",
"l 	c #F5CA0B",
"m 	c #F5D10B",
"n 	c #F5BE0B",
"o 	c #F5990B",
"p 	c #F67007",
"q 	c #F3693D",
"r 	c #C26C4E",
"s 	c #C66C22",
"t 	c #C58525",
"u 	c #C5A125",
"v 	c #C5A925",
"w 	c #C5AA25",
"x 	c #C59825",
"y 	c #C57224",
"z 	c #C54C23",
"A 	c #C16B64",
"B 	c #828298",
"C 	c #2C2C69",
"D 	c #3C3C7A",
"E 	c #45457A",
"F 	c #42427A",
"G 	c #333374",
"H 	c #46466D",
"I 	c #57578B",
"J 	c #4E4E9A",
"K 	c #6161AA",
"L 	c #6565AA",
"M 	c #6C6CAA",
"N 	c #6D6DAA",
"O 	c #6969AA",
"P 	c #5A5AA4",
"Q 	c #47478E",
"R 	c #7E7F99",
"S 	c #56568A",
"T 	c #404093",
"U 	c #4C4C9A",
"V 	c #6262AA",
"W 	c #6363AA",
"X 	c #6464AA",
"Y 	c #6868AA",
"Z 	c #5959A3",
"` 	c #414193",
" .	c #46468F",
"..	c #7C7C96",
"+.	c #646381",
"@.	c #555586",
"#.	c #424296",
"$.	c #484899",
"%.	c #6161A8",
"&.	c #5353A0",
"*.	c #49498F",
"=.	c #616181",
"-.	c #5C5C7D",
";.	c #59597B",
">.	c #54547F",
",.	c #454596",
"'.	c #44449A",
").	c #4C4C88",
"!.	c #606082",
"~.	c #4C4C74",
"{.	c #2E2E61",
"].	c #2C2C67",
"^.	c #2D2D6A",
"/.	c #292960",
"(.	c #41416C",
"_.	c #505076",
":.	c #4E4E74",
"<.	c #434393",
"[.	c #4A4AA0",
"}.	c #343470",
"|.	c #535377",
"1.	c #5B5B99",
"2.	c #6767A8",
"3.	c #3E3E73",
"4.	c #545477",
"5.	c #5F5F99",
"6.	c #6B6BA8",
"7.	c #404073",
"8.	c #47476F",
"9.	c #3F3F73",
"0.	c #4E4E72",
"a.	c #3A3A6D",
"b.	c #62629D",
"c.	c #6C6CA8",
"d.	c #4A4A80",
"e.	c #313161",
"f.	c #4C4C73",
"g.	c #6C6CA9",
"h.	c #6A6AA6",
"i.	c #414175",
"j.	c #4C4C72",
"k.	c #585891",
"l.	c #61619C",
"m.	c #3D3D71",
"n.	c #49496D",
"o.	c #2B2B5D",
"p.	c #2D2D5E",
"q.	c #282859",
"                                                                                                                                ",
"                                                                                                                                ",
"                                                                                                                                ",
"                                                                                                                                ",
"                                                                                                                                ",
"                                                                                                                                ",
"                                                                                                                                ",
"                                                                                                                                ",
"                                                                                                                                ",
"                                                                                                                                ",
"                                                                                                                                ",
"                                                                                                                                ",
"                                                                                                                                ",
"                                                                                                                                ",
"                                                                                                                                ",
"                                                                                                                                ",
"                                                                                                                                ",
"                                                                                                                                ",
"                                                                                                                                ",
"                                                                                                                                ",
"                                                                                                                                ",
"                                                                                                                                ",
"                                                                                                                                ",
"                                                                                                                                ",
"                                                                                                                                ",
"                                                                                                                                ",
"                                                                                                                                ",
"                                                                                                                                ",
"                                                                                                                                ",
"                                                                                                                                ",
"                                                              . +                                                               ",
"                                                            @                                                                   ",
"                                                              #                                                                 ",
"                                                              $ %                                                               ",
"                                                            & * = - ;                                                           ",
"                                                          > , ' ) ! ~ {                                                         ",
"                                                        ] ^ / ( _ : < [                                                         ",
"                                                      } | 1 2 3 4 5 6 7 8                                                       ",
"                                                      9 1 0 a b c d e f g                                                       ",
"                                                      h i j k l m n o p q                                                       ",
"                                                      r s t u v w x y z A                                                       ",
"                                      B C D E E E E E E E E E E E E E E E E E E E E F G H                                       ",
"                                        I J K L M N N N N N N N N N N N N N N N O K P Q R                                       ",
"                                          S T U V W W X M N N N N N N N Y W W W Z `  ...                                        ",
"                                            +.@.#.#.#.$.%.X X X X X X L &.#.#.#.*.=.                                            ",
"                                                -.;.;.>.,.'.'.'.'.'.'.'.).;.;.;.                                                ",
"                                                        !.~.{.].^./.(._.                                                        ",
"                                                            :.<.[.}.                                                            ",
"                                                            |.1.2.3.                                                            ",
"                                                            4.5.6.7.                                                            ",
"                                                            4.5.6.7.                                                            ",
"                                                            4.5.6.7.                                                            ",
"                                                            4.5.6.7.                                                            ",
"                                                            4.5.6.7.                                                            ",
"                                                            4.5.6.7.                                                            ",
"                                                            4.5.6.7.                                                            ",
"                                                            4.5.6.7.                                                            ",
"                                                            4.5.6.7.                                                            ",
"                                                            4.5.6.7.                                                            ",
"                                                            8.5.6.9.                                                            ",
"                                                          0.a.b.c.d.e.                                                          ",
"                                                          f.5.g.N h.i.                                                          ",
"                                                          j.k.b.b.l.m.                                                          ",
"                                                          n.o.p.p.p.q.                                                          "};
