/* XPM */
static char * wall3_xpm[] = {
"64 64 224 2",
"  	c #F5DAB7",
". 	c #F4CFAE",
"+ 	c #F4D9B6",
"@ 	c #DEB598",
"# 	c #B8A58D",
"$ 	c #FBF051",
"% 	c #F1D1AF",
"& 	c #E9C8A7",
"* 	c #FCF400",
"= 	c #ECD2B0",
"- 	c #E5D833",
"; 	c #CCC400",
"> 	c #848400",
", 	c #B4B4B4",
"' 	c #B6B5B4",
") 	c #B9B7B4",
"! 	c #CEC529",
"~ 	c #E4CBA8",
"{ 	c #C59978",
"] 	c #9C9C00",
"^ 	c #585400",
"/ 	c #707070",
"( 	c #7C7C7C",
"_ 	c #706C00",
": 	c #E88C58",
"< 	c #DAC3A1",
"[ 	c #EFD6B4",
"} 	c #EBD2B1",
"| 	c #E6C6A6",
"1 	c #989898",
"2 	c #BAAB98",
"3 	c #EBD0AF",
"4 	c #B88462",
"5 	c #CFB89C",
"6 	c #F3D8B6",
"7 	c #F2D8B6",
"8 	c #E3C7A7",
"9 	c #FC2020",
"0 	c #A40000",
"a 	c #400000",
"b 	c #545454",
"c 	c #700000",
"d 	c #B00000",
"e 	c #FC0000",
"f 	c #E00000",
"g 	c #C0C0C0",
"h 	c #BAA995",
"i 	c #F2D7B5",
"j 	c #F3D8B5",
"k 	c #F4D9B7",
"l 	c #E9C8A8",
"m 	c #A8A8A8",
"n 	c #D0D0D0",
"o 	c #B9A994",
"p 	c #E5CAA9",
"q 	c #8C8C8C",
"r 	c #6C0070",
"s 	c #646464",
"t 	c #BBAB98",
"u 	c #E4CBAB",
"v 	c #580058",
"w 	c #600064",
"x 	c #500050",
"y 	c #C5B6A5",
"z 	c #E5CCAC",
"A 	c #B45400",
"B 	c #CC6000",
"C 	c #FC7800",
"D 	c #CBBDAE",
"E 	c #F1CCAB",
"F 	c #484848",
"G 	c #480048",
"H 	c #FC8820",
"I 	c #CABDAE",
"J 	c #EBCDAC",
"K 	c #CFC3B5",
"L 	c #EBCEAD",
"M 	c #840084",
"N 	c #CEC2B5",
"O 	c #EECFAD",
"P 	c #980000",
"Q 	c #383838",
"R 	c #CDC2B5",
"S 	c #ECCFAE",
"T 	c #880000",
"U 	c #400040",
"V 	c #CCC1B5",
"W 	c #ECD0AF",
"X 	c #CBC1B5",
"Y 	c #ECD1AF",
"Z 	c #CAC0B5",
"` 	c #EDD2B0",
" .	c #C9C0B5",
"..	c #EDD3B1",
"+.	c #C8BFB5",
"@.	c #EED4B2",
"#.	c #C7BEB5",
"$.	c #F4D4B2",
"%.	c #7C0000",
"&.	c #9C009C",
"*.	c #C6BEB5",
"=.	c #F1D5B3",
"-.	c #C5BDB5",
";.	c #F3D6B3",
">.	c #C4BDB5",
",.	c #F2D7B4",
"'.	c #C3BCB5",
").	c #F3D7B5",
"!.	c #404040",
"~.	c #303030",
"{.	c #CBC5BE",
"].	c #D7D2CC",
"^.	c #640000",
"/.	c #C9C4BF",
"(.	c #4C0000",
"_.	c #C8C4BF",
":.	c #580000",
"<.	c #BEB9B4",
"[.	c #A9A9A8",
"}.	c #BDB9B4",
"|.	c #BBB8B4",
"1.	c #B0ADA9",
"2.	c #B7B6B4",
"3.	c #A09E9A",
"4.	c #94928F",
"5.	c #B8B6B4",
"6.	c #9D9B99",
"7.	c #B9B6B4",
"8.	c #9B9A99",
"9.	c #BAB7B4",
"0.	c #632D1D",
"a.	c #703825",
"b.	c #BBB9B9",
"c.	c #703926",
"d.	c #683120",
"e.	c #C9C8C8",
"f.	c #622D1D",
"g.	c #C57E6A",
"h.	c #C0BBBA",
"i.	c #C27B68",
"j.	c #AE6B4D",
"k.	c #B6AFAE",
"l.	c #AA684B",
"m.	c #B3AEAC",
"n.	c #744C28",
"o.	c #AA674A",
"p.	c #B3ADAC",
"q.	c #A9674A",
"r.	c #B0ACAB",
"s.	c #A86649",
"t.	c #92573F",
"u.	c #A5A09F",
"v.	c #8D523B",
"w.	c #A29E9D",
"x.	c #6D3422",
"y.	c #5E2A1A",
"z.	c #ABA8A8",
"A.	c #5F291A",
"B.	c #B3ABA9",
"C.	c #B77563",
"D.	c #B3ABA8",
"E.	c #B67462",
"F.	c #B3AAA7",
"G.	c #B4AFAE",
"H.	c #8C7871",
"I.	c #B3B1B1",
"J.	c #A56F59",
"K.	c #91563E",
"L.	c #876D65",
"M.	c #B4B3B3",
"N.	c #B3B3B3",
"O.	c #8C6356",
"P.	c #855645",
"Q.	c #7F7877",
"R.	c #B3B2B2",
"S.	c #85706A",
"T.	c #895643",
"U.	c #622B1C",
"V.	c #5F4C48",
"W.	c #7A7675",
"X.	c #5F4540",
"Y.	c #6E3523",
"Z.	c #672E1E",
"`.	c #692D1D",
" +	c #622215",
".+	c #57504F",
"++	c #B2B1B1",
"@+	c #776E6D",
"#+	c #644740",
"$+	c #6C3220",
"%+	c #98583F",
"&+	c #825E51",
"*+	c #887C7A",
"=+	c #B6AEAC",
"-+	c #9E7D75",
";+	c #AD7364",
">+	c #C37C68",
",+	c #A86857",
"'+	c #847A77",
")+	c #B4B1B1",
"!+	c #8D7771",
"~+	c #926350",
"{+	c #BC7764",
"]+	c #A6674A",
"^+	c #98644F",
"/+	c #ADAAAA",
"(+	c #7A7271",
"_+	c #76554B",
":+	c #844B36",
"<+	c #AD6A4C",
"[+	c #6B3726",
"}+	c #815647",
"|+	c #856F69",
"1+	c #B3AFAE",
"2+	c #8F776F",
"3+	c #A47062",
"4+	c #6B3625",
"5+	c #A36448",
"6+	c #936350",
"7+	c #90766E",
"8+	c #B3AEAD",
"9+	c #B3AFAD",
"0+	c #8E6150",
"a+	c #86513C",
"                                                                                                                                ",
"  .                                                                                                                       + @ + ",
"# $ %                                                                                                                     & * = ",
"- ; > , , , , , , , , , , , , , , , , , , , , , ' ) ) ) ) ) ) ) ) ) ) ) ) ) ) ) ) ) ) ) ) ) ) ) ) ) ) ) ) ) ) ) ) ) ) ) ) ! ; ~ ",
"{ ] ^ / / ( ( ( ( ( ( ( ( ( ( ( ( ( ( ( ( ( ( ( ( ( ( ( ( ( ( ( ( ( ( ( ( ( ( ( ( ( ( ( ( ( ( ( ( ( ( ( ( ( ( ( ( ( / / / _ : < ",
"[ } | ( ( ( ( 1 1 1 1 1 1 1 1 1 1 1 1 1 1 1 1 1 1 1 1 1 1 1 1 1 1 1 1 1 1 1 1 1 1 1 1 1 1 1 1 1 1 1 1 1 1 1 1 1 1 ( / ( 2 3 4 5 ",
"6 7 8 1 ( 9 0 a a b c c c c c c c c c c c c c c c c c c c c c c c c c c c c c c c c c c c c c c c c 0 d e f ( a a a ( g h   i j ",
"  k l m ( 0 g 1 / a ( m g n g g , , , , , , , , , , , , , , , , , , , , , , , , , , , , , , , , g g g g g ( a ( / 1 9 ( o       ",
"    p , 1 a 1 g 1 ( q 1 m m q ( m n g , , , , , , , , , , , , , , , , , , , , , , , , , , , , q r s g , m m m / m n 0 / t       ",
"    u n m a 1 m g 1 ( ( 1 1 b v / m n n g g , , , , , , , , , , , , , , , , , , , , , , g g q s w x 1 m m 1 1 m n ( a ( y       ",
"    z n , b / 1 , g 1 ( ( q x v v v ( m n g g g g g , , x / b x x x x A B C , , , , g g q s w v x x 1 1 1 1 m n g s b q D       ",
"    E , n a ( 1 m , g 1 / s F G x x v v ( m , , , , , , x x x x x ( x A A B H , , , q s w v x x x F 1 1 1 m g g m ( a 1 I       ",
"    J , n c 1 q 1 m , s v / s F G G x x v v v ( q , , , / x x x x x x A q , , q s w w v v x x x F / / x s m g m q ( a m K       ",
"    L , n d m 1 q 1 s r w F / s F G G G G M v v v / q , , x x x x x x q , q s w w v M x x x G F / b r w w s m 1 ( q c m N       ",
"    O , , P , 1 q q G w r w v F s F Q G G r G v v v v , , x x x x x x , , v w w v x r G G Q F s F x w w r r 1 q ( q c m R       ",
"    S , , T g m 1 q G G w r w w v F b Q U U G G G v b , , x x x x x x , , b G G G G G G Q F F G x v w r r r q ( q q c m V       ",
"    W , , c n , m 1 F G G w r r w v G U U U U G G q , , / x x x x x x / , , q G G G U U U G G x v w r r r b q ( q 1 c , X       ",
"    Y , , c n g , 1 s F G v w w r w v r U U U G q x / , x x x x x x x x , / G q G U U G v G G v w r r r b ( ( q q m c , Z       ",
"    ` , , c n n s x / b b F v w w r v M x U U G x G x , , x x x x x x , , G G G G G G v r x v w w r b ( s F F s 1 m c ,  .      ",
"    .., , c , n v x G F b b b F w w r v M x x x G x G ( s x x x x x x s ( G G G G G G r v v w w b q ( s F U U G 1 m c , +.      ",
"    @., , c , n w v x G G U Q F F b s v v v v G G G x x x x x x x x x x G G G G G G x x v b s q ( b x G U U U G m m c , #.      ",
"    $.g g %.g , w w x x G U U U G G v &.v v v G G x x x x x x x x x x x G G G G G x v v &.v v v x x G U U U U v m m c , *.      ",
"    =.n n P n g v w v x G G U U U G G M v v v x x x x x x x x x x x x x x G G x x v v v &.v v v x G G U U U G v 1 m %., -.      ",
"    ;.g g T g 1 / v w x x G U U G U G r v v x x x x x x b b s / / s b b x x x v v v v v M v v x G G U U U U G / 1 m %., >.      ",
"    ,., , %., 1 1 / F v x G G G x G x v r x x x x x x x s r &.r r &.r s x x v v v v v M v v x G G G U U U F / 1 1 , T , '.      ",
"    )., , c , x v F s / / s s b F !.~.G x v M v x x x x ( &.r r r r &.( x v x v v M v v v b b F !.Q !.F b s F w r g P g {.      ",
"    j m m c m x x v v v v x G x G x G x G x v M r x x x b r r r r r r b x x v r M v v v v x G G G G U G G x v w r n P n ].      ",
"    + m m ^.m x x x v v v x x G x G x G x x x x x x x x ( &.r r r r &.( x v x v x v v v x G G G G G G G x v v w w g P g /.      ",
"      1 1 (.1 x x v x v x v x x x x x x x x x x x x x x b r &.F r &.r b x x v x v v v x x G G G G G G G x x w r w g T g _.      ",
"      m m :.m x x x v x v x x x x x x b x x x x b x x x ( b r F r r b ( x v x b v x x x b G G G G G G G x x w w x , %., <.      ",
"      [.m ^.m s x x x x x x x x F / x x x x x b x x x x b ( ( b b ( ( b x x x v b x x G x G / F G G G x x v w v s , c , }.      ",
"      ' , c , 1 s x x x x F / / x x x x x x / x x x x x x x b ( ( b x x x x v x x / x x G G G x / / F x x v v s 1 , c , |.      ",
"      ' , c , , , 1 1 1 1 / x x x x x x x / x x x x x x x x x x x x x x x x x x x x / G x G G G G x / 1 1 1 1 , m m ^.m 1.      ",
"k k k 2., c , , 1 1 / x x x x x x x x x / x x x x x x x x x x x x x x x x x x x x x x / G x G x G x v v v / 1 1 1 1 :.1 3.      ",
"7 7 7 2., c , , x x x x x x x x x x x / x x x x / x / x x x x x x x x x x / x / x x x x / G x G x v v v v v x x q q (.q 4.6 6 6 ",
"7 7 7 5., c , , x x x x x x x x x x / x x x x s 1 / x x x x x x x x x x x x / 1 s x x x x / x x x x v v v v x x 1 1 :.1 6.7 7 7 ",
"k k k 7., %., , / x x x x x x x x / x x x x x 1 x x x x x x x x x x x x x x x x 1 x x x x x / x x v v v v v x / 1 1 ^.1 8.k k k ",
"      ) , %., , 1 x x x x x x x / x x x x x 1 x x x x x x x x x x x x x x x x x x 1 x x x x x / x x v x v x x 1 m m ^.m [.      ",
"      9., T , , , / x x x x x / x x x x x x x x x x x x x x x x x x x x x x x x x x x x x x x x / x x x v x / , , , ^., ,       ",
"0.a.a.b.g T g g g , / x x x / x x x x x x 1 x x x x x x x x x x x x x x x x x x x x 1 x x x x x x / x x x / , , , , c , , c.0.d.",
"a.d.a.e.n 0 n n n , , 1 1 1 1 x x x x x 1 , &.x x x x x x / x x x x / x x x x x x &., 1 x x x x x 1 1 1 1 , , , , , c , , f.d.a.",
"g.g.g.h.g P g g g , , , , , 1 1 x x x 1 , , , / x x x x x x x x x x x x x x x x / , , , 1 x x x 1 1 , , , , , , g g T g g i.g.g.",
"j.j.j.k., P , , , , , , , ( A A ( , , , , ( A x x x x x x x x x x x x x x x x x x A ( , , , , ( A A ( , , g g g g g T g g l.g.j.",
"j.j.j.m., T , , , , , , , A A A A A A A A A A n.n.x x / , x x x x x x , / x x n.n.A A A A A A A A A A g g g g n n n P n n o.j.j.",
"j.j.j.p., T , , , , , , , , ( s n.A A A A n.n.( , , , , x x x x x x x x , , , , ( n.n.A A A A n.s ( , , , g g g g g P g g q.j.j.",
"j.j.j.r., %., , , , , , , q A A A A A A A A A A , , , x x x x x x x x x x , , , A A A A A A A A A A q , , , , , g g T g g s.j.j.",
"t.t.t.u.m c m m m m , , , A n.n.q A A n., q n.A , ( x x x x x x x x x x x x ( , A n.q , n.A A q n.n.A , , , , , , , c , , v.t.t.",
"a.d.a.w.m c m m m m m m , n.( q , A n., , , , ( b x x x x x x x x x x x x x x b ( , , , , n.A , q ( n., , , , , , , c , , x.0.a.",
"0.y.a.z., c , , , , , , , , , , , A n., , ( b x x x x x x x x x x x x x x x x x x b ( , , n.A , , , , , , , , , , , c , , A.a.0.",
"y.j.j.B., c 1 , , , , , , , , , , q A , x x x x x x x x x ( x x x x ( x x x x x x x x x , A q , , , , , , , , , , 1 c , , C.g.a.",
"a.t.j.D., c ( , , , , , , , , , , , , , ( b x x x x x s , x x x x x x , s x x x x x b ( , , , , , , , , , , , , , ( c , , E.g.a.",
"a.t.j.F., ( c ( 1 , , , , , , , , , , , , , ( b x x s , ( x x x x x x ( , s x x b ( , , , , , , , , , , , , , 1 ( c ( , G.q.g.0.",
"0.t.t.H., , ( c c c ( 1 , , , , , , , , , , , , , , , , x x x x x x x x , , , , , , , , , , , , , , , , 1 q c c c ( 1 I.J.j.g.a.",
"a.t.t.K.L.M., , 1 ( c c c c ( 1 , , , , , , , , , , , , s x x x x x x s , , , , , , , , , , , , 1 ( c c c c q 1 , , N.O.j.j.j.a.",
"y.t.t.t.t.P.Q., , , , , 1 ( c c c ( 1 , , , , , , , , , , s x x x x s , , , , , , , , , , 1 ( c c c ( 1 , , , , R.S.T.t.t.t.t.0.",
"0.a.a.d.a.d.U.V.( , , , , , , 1 ( c c c ( 1 , , , , , , , , s x x s , , , , , , , , 1 ( c c c ( 1 , , , , , W.X.Y.0.a.y.d.a.a.d.",
"a.d.a.a.d.a.a.y.Z.`. +.+( , , , , , 1 ( c c c ( 1 , , , , , , s s , , , , , , 1 ( c c c ( 1 , , , , ++@+#+$+0.a.d.y.a.d.a.a.d.a.",
"g.g.g.g.g.g.g.a.0.j.j.j.s.%+&+*+, , , , , 1 ( c c c c ( 1 , , , , , , 1 ( c c c c ( 1 , , , , =+-+;+>+g.g.g.g.a.a.j.j.j.g.g.g.g.",
"g.g.j.j.g.g.g.a.a.j.j.j.j.j.j.j.s.,+&+'+, , , , , 1 ( c c c ( 1 1 ( c c c ( 1 , , , , )+!+~+{+g.g.g.g.j.g.g.g.0.a.t.j.j.j.j.g.g.",
"j.j.j.j.j.g.g.y.a.t.j.j.j.j.j.j.g.j.j.j.]+^+-+/+, , , , 1 ( c c c c ( 1 , , , M.(+_+:+<+j.j.j.j.j.j.j.j.j.g.g.a.d.t.j.j.j.j.j.j.",
"t.t.j.j.j.g.g.a.y.t.j.j.j.j.j.j.j.j.j.j.j.j.j.d.[+}+|+p., , , , , , , , 1+2+3+4+d.t.t.t.j.j.j.j.j.j.j.j.j.g.g.a.y.t.j.j.j.j.j.j.",
"j.j.j.j.j.j.g.d.0.t.t.t.j.j.j.t.t.t.t.j.j.g.g.0.a.t.t.t.5+6+7+8+9+H.0+a+j.j.j.a.0.t.t.t.t.t.t.j.j.j.j.j.t.t.g.d.a.t.t.t.t.t.j.t.",
"t.t.t.t.j.j.j.a.a.t.t.t.t.t.t.t.t.t.j.j.j.j.j.a.0.t.t.t.t.t.t.t.t.t.t.t.t.j.j.a.a.t.t.t.t.t.t.t.t.t.t.t.t.t.t.a.0.t.t.t.t.t.t.t.",
"y.a.a.0.a.y.d.a.d.a.a.a.y.y.a.a.y.y.a.a.y.a.0.a.d.a.a.0.a.a.0.a.y.y.a.d.a.a.a.d.a.0.0.a.a.0.a.y.a.a.0.0.a.a.d.0.d.a.a.0.y.a.a.d."};
