/* XPM */
static char * wall2_xpm[] = {
"64 64 89 1",
" 	c #F5DAB7",
".	c #F4D9B7",
"+	c #F4D9B6",
"@	c #F3D9B6",
"#	c #F3D8B6",
"$	c #FCFCD8",
"%	c #FCFC9C",
"&	c #FCF400",
"*	c #FCA85C",
"=	c #9C4C00",
"-	c #F2D8B6",
";	c #FC7800",
">	c #382C14",
",	c #E46C00",
"'	c #2C2C2C",
")	c #005858",
"!	c #007070",
"~	c #008484",
"{	c #009C9C",
"]	c #00B4B4",
"^	c #004040",
"/	c #00CCCC",
"(	c #00E4E4",
"_	c #20FCFC",
":	c #FC9C9C",
"<	c #FC7C7C",
"[	c #FC5C5C",
"}	c #FC4040",
"|	c #00FCFC",
"1	c #FC0000",
"2	c #FC2020",
"3	c #7C0000",
"4	c #E00000",
"5	c #C80000",
"6	c #B00000",
"7	c #580000",
"8	c #484848",
"9	c #545454",
"0	c #980000",
"a	c #B4B4B4",
"b	c #FCFCFC",
"c	c #C0C0C0",
"d	c #7C7C7C",
"e	c #646464",
"f	c #DCDCDC",
"g	c #989898",
"h	c #707070",
"i	c #000000",
"j	c #383838",
"k	c #28200C",
"l	c #ECECEC",
"m	c #A8A8A8",
"n	c #8C8C8C",
"o	c #403018",
"p	c #700000",
"q	c #202020",
"r	c #D0D0D0",
"s	c #880000",
"t	c #632D1D",
"u	c #703825",
"v	c #683120",
"w	c #FC8820",
"x	c #CCC400",
"y	c #B4AC00",
"z	c #9C9C00",
"A	c #706C00",
"B	c #723C28",
"C	c #7E442F",
"D	c #713926",
"E	c #640000",
"F	c #FCF420",
"G	c #FCFC7C",
"H	c #FCFCB8",
"I	c #E4D800",
"J	c #848400",
"K	c #744C28",
"L	c #C57E6A",
"M	c #D40000",
"N	c #FCF85C",
"O	c #BC0000",
"P	c #585400",
"Q	c #AE6B4D",
"R	c #543C1C",
"S	c #4C0000",
"T	c #92573F",
"U	c #5E2A1A",
"V	c #FC9840",
"W	c #6C4824",
"X	c #B45400",
"                                                                ",
"                                                                ",
"                                                                ",
"                                                        ...+..@#",
"... $%&&&&&&&&&&&&&&&&&&&&&&&&&&&&&&&&&&&&&&&&&&&&&&&&&&&*=-----",
"---#%&***************************************************;>--#@.",
"#---&*==================================================;,>+.   ",
" ...&*='''''''''''''''''''''''''''''''''''''''''''''''''*,>     ",
"    &*='))!~~~{]]]{~!!!!!!!!!!!!!!!!!!!!!!!!!!~~~~~!)^^^*,>     ",
"    &*=')~{/]////(_:<<<[[[[[[}}}}}[[[[[[[[<<<:|//{~!)))!*,>     ",
"    &*='~{/]///_:<[[[[[}}}}}1}1}1}1}}}}}}[[[[[<:|{~~!!!{*,>     ",
"    &*=']/]/]]([<<<[<[[[}}}}}1}1}1}}}}}}[[[<[<<<[]{~~{{/*,>     ",
"    &*='](/]]{[<<<<<[<[}[}}}}}1}1}1}}}[[}[<[<<<<<[]]]]((*,>     ",
"    &*=']|(/][2[<<<[<[[[}}}}}1}1}1}}}}}}[[[<[<<<[2[((((_*,>     ",
"    &*='{/||]341[<[15566666666666666666666551[<[143(((|/*,>     ",
"    &*='{]|((7341165))!~~~~!)8888)!~{{{{~9995611437(|||_*,>     ",
"    &*='~/(|~3706369))!!!))8888888)!~{{~~^~99636073||_|(*,>     ",
"    &*='~(|][667377!abbcd888ecfbbge)!~~dfbg99773766[__((*,>     ",
"    &*='!({[[[46779fbad98^88cfbfh8ih!!!9hcbc977764[[[(((*,>     ",
"    &*='){[<<[[409fbad9'8^^^cbbbgbbfh))jkhcb99304[[<<[{/*,>     ",
"    &*=')1[[<<[[9{bad9''9^^^cclgehhhh)^9k'hffg99[[<<[[1]*,>     ",
"    &*=')31[[<<~{fbg9'''98^^dfcgdj^^^^9ek''cbcg9^<<[[13{*,>     ",
"    &*=')341[[~{{bfd9'''d9d^effmmd9^^^dnk'jgfbg{{^[[143{*,>     ",
"    &*=')364129{{bae''o99mdddfllccnd9^ndkjjnfbg~{921463]*,>     ",
"    &*='!)064379^bg9''''9mclbbbbbbfgdnae'j8dfbg!973460~/*,>     ",
"    &*='~{)06p379bg9'j'''9mfbbbbbbfgd~e''j8dfbg973p60~/(*,>     ",
"    &*='{({)07p77bg9''j'''9mblllllcgee'''89dfbg77p70~/((*,>     ",
"    &*=']|(~77777bg9'''jj''9fcccccmdj''''8enfbg77777/(((*,>     ",
"    &*=']||(46037bg9'''''''9ccmmmmdejqqqj9egfbg76644/(//*,>     ",
"    &*='{|||}4607cg9j8'''''9fmddddd9jq'''8hgfbg7644}]/]]*,>     ",
"    &*='~||[}4467ca9jj88'''9cg9999e9jq'j9edafbg7444}[]]/*,>     ",
"    &*='!([<[}439nbejjjjj''9cd88889hjjjj9dgcfrg934}[<[//*,>     ",
"    &*='!~4[<[39^9bdj'jj'^^9me''''hnej889gafbag^93[<[4//*,>     ",
"... &*='{{61[3^99^caj'j'^^^had''''nah8jjhacfbmh^^93[16//*,>     ",
"---@&*=']]3013379^nbej''^^^drnqqqqnadjjjecffcg!^733103]/*,>#@###",
"----&*=']/)p0337799rmjj'^^'nrgqqqqranjjj8ffbgh^77330p!/]*,>-----",
"...+&*='{/{)7777379nbej^^^'mrmqqqqfanjjjjfbah9737777!{]{*,>++...",
"    &*='~(/{~)^3s379ncj'^^9fffqqqgfff^j^jbah973s3)!~{~{{*,>     ",
"    &*='!]([}33j36s79gd'^8fnfnbnfnnfnf^^^ah97s63)33}[{~~*,>     ",
"tuuv&*='!{[<[66336679999w*xxxxxxxxyyzzA^^^^^7663366[<[{!*,>BCDtv",
"uvuv&*=')[}[<[33376sE99*FGHHHHH%%GGFIyJK^^^Es67333[<[}[~*,>uutvu",
"LLLL&*=')M4}}337737379*FGH%NN}OOO}xyzzJPK^^73737733}}4M!*,>QQLLL",
"QQQL&*='^36443^)^77379^;xyNyOOiOOOOR=RPR^)!7377^^^34463!*,>QQQLQ",
"QQQQ&*='^)33663^)^779^9;FyH}Oi3OSiOpJRPR)~!)77^^^36633^!*,>QQQQQ",
"QQQQ&*=')~))7773333^99^;FyHOOSiSi3isJRPR!{~!)3333777^)~/*,>QQQQQ",
"QQQT&*=')]]~!!)77777^^9;FyHOOOSiSOOOJRPR)~!^77777^))!!~/*,>TQQQQ",
"TTTT&*='!]<[O3!))7s37^^;FyHOi3iSiSOsJRPR^)^73s7^^^3O[!!~*,>TTTTT",
"uvuu&*='!<<[44O3330s37^;FyH}OiSO3iOpJRPR))73s0333O44[[{!*,>tUutu",
"tUuU&*='![[<[4333660s7^;FyHyOOOOiOpRJRPR))7s0663334[<[[{*,>uUtut",
"UQQQ&*=')O4}<3^^336637^;FyHyG}OOOpARJRPR))736633993<}4O{*,>LLLLu",
"uTQQ&*='^!O6470^^^337^;VGHb%bGFFIxyJzWWPR^^733!!90746O{~*,>QQLLu",
"uTQQ&*='){!O77777^!!!!XAP;==V=====RKKKKRR^)!~~^77777O{~~*,>QQQLt",
"tTTQ&*=')~{))36607!~~;VGGbHbbGGFFIxyJzWWPR)!!)70663!!~~!*,>TQQLu",
"uTTT&*='))^3333363!~{XAP;==V;=====RRKKKKRR^)))3633333!!!*,>TQQQu",
"UTTT&*='^^^^^^j33^)!;VGGbHHbbGGFFIxyyJJWWPR^^^^33~~~!!!!*,>TTTTt",
"tuuv&*='^^^^^^^^^)^)XA;;==V;;=====RRRKKKWRR^^^^)!~{~!!!!*,>Uvuuv",
"uvuu&*;**************************************************,>vuuvu",
"LLLL&*,,,,,,,,,,,,,,,,,,,,,,,,,,,,,,,,,,,,,,,,,,,,,,,,,,,,>QLLLL",
"LLQQ*>>>>>>>>>>>>>>>>>>>>>>>>>>>>>>>>>>>>>>>>>>>>>>>>>>>>>>QQQLL",
"QQQQQLLUuTQQQQQQLQQQQQLuvTTQQQQQQQQQQQLtuTTQQQQQQQQQQLLuvTQQQQQQ",
"TTQQQLLuUTQQQQQQQQQQQQQvuTTQQQQQQQQQQQLuvTTTQQQQQQQQQLLuUTQQQQQQ",
"QQQQQQLvtTTTQQQTTTTQQLLtuTTTQQQQQQQTQQQutTTTTTTQQQQQTTLvuTTTTTQT",
"TTTTQQQuuTTTTTTTTTQQQQQutTTTTTTTTTTTTQQuuTTTTTTTTTTTTTTutTTTTTTT",
"UuutuUvuvuuuUUuuUUuuUutuvuutuutuUUuvuuuvuttuutuUuuttuuvtvuutUuuv"};
