/* XPM */
static char * wall4_xpm[] = {
"64 64 26 1",
" 	c #F5DAB7",
".	c #F4D9B7",
"+	c #F4D9B6",
"@	c #F3D9B6",
"#	c #F3D8B6",
"$	c #F2D8B6",
"%	c #706C00",
"&	c #FCF400",
"*	c #700000",
"=	c #D0D0D0",
"-	c #7C7C7C",
";	c #F3D8B5",
">	c #F1D6B2",
",	c #8C8C8C",
"'	c #B4B4B4",
")	c #989898",
"!	c #632D1D",
"~	c #703825",
"{	c #683120",
"]	c #5E2A1A",
"^	c #713926",
"/	c #723C28",
"(	c #7E442F",
"_	c #C57E6A",
":	c #92573F",
"<	c #AE6B4D",
"                                                                ",
"                                                                ",
"                                                                ",
"                                                        ...+..@#",
"...                                              ..@..@#$$$$$$$$",
"$$$#@+++...................+...+..........+++@##$$$$$$$$$$$$$#@.",
"#$$$$$$$$$$$$$$$$$$$$$$$$$$$$$$$$$$$$$$$$$$$$$$$$$$$$#@....+.   ",
" ...+++@####$$$%&&&&&&&&&&&&&&&&&&&&&&&&&&&&&&&&%....           ",
"             ..&%******************************%&               ",
"               &*=*=*==*==**==***=*===*==*=*=*=*&               ",
"               &*=*=*=**=*=*=*=*=*=*=**=**===*=*&               ",
"               &*=*=*==*==**==**=*=*=**==*===*=*&               ",
"               &*=*=*=**=*=*=*=*=*=*=**=**=*=***&               ",
"               &**=**==*=*=*==***=**=**==*=*=*=*&               ",
"               &********************************&               ",
"               &********************************&               ",
"               &********************************&               ",
"               &*****---*-*-----*--*------*--***&   .           ",
"               &********************************&  @$#          ",
"               &***------*---*--*-----*------***& .$$@          ",
"               &********************************& $$$+          ",
"               &***---*-------*---*-*----*---***&$$$#           ",
"               &********************************&$$#            ",
"        ;;     &********************************&$#             ",
"       +>>+    &*****---*--------*-*--*---*--***&#              ",
"        ++     &********************************&               ",
"               &***--*-----*----*--------*---***&               ",
"               &********************************&               ",
"               &***----*----------*-*----*---***&               ",
"               &********************************&               ",
"               &***---*--*-----*-*--*------*-***&               ",
"               &********************************&               ",
"               &***----*-*----*---*-----*----***&               ",
"...            &********************************&               ",
"$$$@+++........&********************************&    @....+#@###",
"$$$$$$$$$$$$$$$&*******************=,=,'=)='=***&@##$$$$$$$$$$$$",
"...+++@###$$$$$&%******************************%&$$$$$$$$$#++...",
"           ....%&&&&&&&&&&&&&&&&&&&&&&&&&&&&&&&&%+........      ",
"                                                                ",
"!~~{~{!~~]]~~{~!{{~~!~{~!~~]~~!~!~~{~~!~~]~~!~~!{~]~!~~{!~^/(^!{",
"~{~{{~~]{]~~!!{~~{]~~!{{{]~~!~~]!~~]!~{{{{~~{{~~]{~~{~!]{]{~~!{~",
"_______!~:_____________~!<<<___________~~<<<<<<________~~:<<<___",
"<<<____~~:<<<<_____<___~~:<<<<____<<___~!<<<<<<<<_<<<__~!:<<<<_<",
"<<<<<<_~]::<<<<<<<<<<__]{:<<<<<<<<<<<__]~:<<<<<<_<<<<<_]~::<<<<<",
"<<<<<<_{~:::<<<<<<<<<__~]:<<<<<<::<<<__{~:<<<<<<<<<<<<<~]::<<<<<",
"<<<:<<<!~::::::<<<<<::_~~:::::<:<<<<<<_~!:::<<<::::<<__~!:::<<<<",
":::::<<~!::::::::::::::!!:::::::::::<<<!!:::::::::<<<<<!~:::::::",
"~{~~~~{~{]~~~]!~~]!~~]!{{~~!~~!{~~!~~]~~~!~~{!~~]~!~!~~!{~~!]~!~",
"!]~]~!!~~]]~{!~~{{~~{!~~!!~~]!~!!~]~{~~{{~~~{~~!{{~~{!~~!!~~]!~!",
"]<<<___________]~<<<<<<<_______~~:_____________~!:<<<__________~",
"~:<<<___<<<<___~~<<<<<<<<<<_<__!~:<<_<<<<<<<___~~:<<:<<<<<<<<__~",
"~:<<<<<<<<<<<__!]:<<<<<<<<<_<<_~!::<<<<<<<<<<<_!~:::<<<<<<<<<<_!",
"!::<<<<<<<<:<<_~{:<<<<<<<<<<<<_]!::<<<<:<<<<<<_!{::<<<<<<<<:<<_~",
"~:::::::<<::<<_~~::<<<<<<::<<<<~~:::<<<<:<<<<<_~~::::<<<<<::<<<~",
"]::::::::::::<<]~:::::::::<<<<<~~::::::::::::__~~::::::::::::::!",
"!~~{~{!~~]]~~{~!{~~]!~{{~~]~{~~{!{~~!~~{{~]!~~]!{{~]!~~{~!~]{~~{",
"~{~~{~~]{~~{~~~]~~]]~~{~~]~~!!{~~~]]~!{~~{~~{~~!]~~{~~!~{]~{~~{~",
"_______~!<<<<<<________!~:<<<__________~!:_____________~~<<<____",
"__<<___~~<<<<<<<<_<<<__~!:<<<<_<<<<____]~:<<<<_____<___!~:<<<<__",
"<<<<<__]~:<<<<<<_<<<<<_~{::<<<<<<<<<<<_!~::<<<<<<<<<<__~{:<<<<<<",
"::<<<__~]:<<<<<<<<<<<<<{~::<<<<<<<<<<<_~{:::<<<<<<<<<__~]:<<<<<<",
"<<<<<<_{!:::<<<::::<<__!~:::<<<<<<<:<<<~!::::::<<<<<::_{~:::::<:",
"::::<<<~~:::::::::<<<<<~!::::::::::::<<~~::::::::::::::~!:::::::",
"]~~!~]{~{~~~]]~~]]~~]~!~{~~!~~!~]]~{~~~{~!!~~!~]~~!!~~{!{~~!]~~{"};
