/* XPM */
static char * wall1_xpm[] = {
"64 64 75 1",
" 	c #F5DAB7",
".	c #F4D9B7",
"+	c #F4D9B6",
"@	c #F3D9B6",
"#	c #F3D8B6",
"$	c #B4AC00",
"%	c #9C9C00",
"&	c #B45400",
"*	c #F2D8B6",
"=	c #FC8820",
"-	c #FC7800",
";	c #E46C00",
">	c #543C1C",
",	c #483818",
"'	c #5C4020",
")	c #545454",
"!	c #646464",
"~	c #707070",
"{	c #989898",
"]	c #7C7C7C",
"^	c #484848",
"/	c #8C8C8C",
"(	c #202020",
"_	c #383838",
":	c #DC8854",
"<	c #C87C4C",
"[	c #FC9C60",
"}	c #FCB080",
"|	c #BC7848",
"1	c #2C2C2C",
"2	c #FCB890",
"3	c #FCBC9C",
"4	c #D08050",
"5	c #FCC4A4",
"6	c #F0945C",
"7	c #A86840",
"8	c #FCA470",
"9	c #B47044",
"0	c #9C6038",
"a	c #885830",
"b	c #80502C",
"c	c #382C14",
"d	c #905C34",
"e	c #FCD4BC",
"f	c #E88C58",
"g	c #CCC400",
"h	c #403018",
"i	c #744C28",
"j	c #E4D800",
"k	c #A0643C",
"l	c #632D1D",
"m	c #703825",
"n	c #683120",
"o	c #723C28",
"p	c #7E442F",
"q	c #713926",
"r	c #C57E6A",
"s	c #AE6B4D",
"t	c #DCDCDC",
"u	c #D40000",
"v	c #D0D0D0",
"w	c #92573F",
"x	c #7C0000",
"y	c #C0C0C0",
"z	c #A80000",
"A	c #980000",
"B	c #A40000",
"C	c #FC0000",
"D	c #880000",
"E	c #700000",
"F	c #5E2A1A",
"G	c #640000",
"H	c #4C0000",
"I	c #6C4824",
"J	c #9C4C00",
"                                                                ",
"                                                                ",
"                                                                ",
"                                                        ...+..@#",
"... $$$$$$$$$$$$$$$$$$$$$$$$$$$$$$$$$$$$$$$$$$$$$$$$$$$$$%&*****",
"***#$=====================-------------------;;;;;;;;;;;&&>**#@.",
"#***$=,,,,,,,,,,,,,,,,,,,,,,,,,,,,,,,,,,,,,'''''''''''''%&>+.   ",
" ...$=,))))))))))))))))))))))!!!!!!!!!!!!!!!!!!!~~~~~~~~$&>     ",
"    $=,){{{{{{{{{{{{{{{{{{{{{{{{{{{{{{{{{{{{{{{{{{{{{{{{$&>     ",
"    $=,){{{{{{{{{{{{{{{{{{]!^^^^^^^]/{{{{{{{{{{{{{{{{{{{$&>     ",
"    $=,){{{{{{{{{{{{{{{{{)^^(((((((((^^]{{{{{{{{{{{{{{{{$&>     ",
"    $=,){{{{{{{{{{{{{{{{)^((__)_____(((^{{{{{{{{{{{{{{{{$&>     ",
"    $=,){{{{{{{{{{{{{{{:<~___))/])_^)__(({{{{{{{{{{{{{{{$&>     ",
"    $=,){{{{{{{{{{{{{{{[}}}~<|~]/!1!~!_1(^{{{{{{{{{{{{{{$&>     ",
"    $=,){{{{{{{{{{{{{{:}223}~4|))_1^)^^1((!{{{{{{{{{{{{{$&>     ",
"    $=,){{{{{{{{{{{{{{[}225}~4____1____1((^{{{{{{{{{{{{{$&>     ",
"    $=,){{{{{{{{{{{{{[}}25}}}6____1____1((1{{{{{{{{{{{{{$&>     ",
"    $=,){{{{{{{{{{{{{<7|85}}}}900ab___1(((1{{{{{{{{{{{{{$&>     ",
"    $=,!{{{{{{{{{{{{{{cca|5}}2867777b_(((11{{{{{{{{{{{{{$&>     ",
"    $=,!{{{{{{{{{{{{{2<^|86}5866:667d'(((1^{{{{{{{{{{{{{$&>     ",
"    $=,!{{{{{{{{{{{{2e}:8}}}866f['76''((1^~{{{{{{{{{{{{{g&h     ",
"    $=,!{{{{{{{{{{{5e58[:2}866f:84b8''((1~{{{{{{{{{{{{{{g&h     ",
"    $-,!{{{{{{{{{{{f|||<[:[[[f::476|''(1^{{{{{{{{{{{{{{{g&h     ",
"    $-,!{{{{{{{{{{{{{('8:8[[6f:<[84i''(1~{{{{{{{{{{{{{{{g&h     ",
"    $-,!{{{{{{{{{{{{{'0}8686f<|74aiii''^{{{{{{{{{{{{{{{{g&h     ",
"    $-,!{{{{{{{{{{{{{2[[}866<770|:ddi''~{{{{{{{{{{{{{{{{g&h     ",
"    $-,!{{{{{{{{{{{{{486}8[f<70098:|a''{{{{{{{{{{{{{{{{{g&h     ",
"    $-,!{{{{{{{{{{{{{828:[:|0d098886|7ii{{{{{{{{{{{{{{{{j&h     ",
"    $-,!{{{{{{{{{{{{{68:|70dd09:88||dbii]/{{{{{{{{{{{{{{j&h     ",
"    $-,!{{{{{{{{{{{{{{{{0aaa09:8||dddbb>ii~/{{{{{{{{{{{{j&h     ",
"    $-,!{{{{{{{{{{{{{{{{{{90998|dd0dai>bbiii~/{{{{{{{{{{j&h     ",
"    $-,!{{{{{{{{{{{{{{{{/49948dd000i>bkkkddbai~/{{{{{{{{j&h     ",
"    $-,!{{{{{{{{{{{{{{//4|4490099i>bk999999900ai~{{{{{{{j&h     ",
"... $-,!{{{{{{{{{{{{{/~44|4<k99a>bk999999999990ai]{{{{{{j&h     ",
"***@$-,!{{{{{{{{{{{{/~i4k44<<9i>0999970b00999990bi]{{{{{j&h#@###",
"****$-,!{{{{{{{{{{{{~bi4k44<9iik99997kbb0000aaaaabi{{{{{j&h*****",
"...+$-,!{{{{{{{{{{{/bbi4bk49ii999999kdib00a000aaaai{{{{{j&h++...",
"    $-,!{{{{{{{{{{{~ddi0iki>k9999997db''9999900abb'{{{{{j&h     ",
"    $-,!{{{{{{{{{{{0ddibikkd9999999kb''994999090ii,{{{{{j&h     ",
"lmmn$-,!{{{{{{{{{{/0dd'iakk999999977b'9949940d90i',{{{{{j&hopqln",
"mnmn$-,!{{{{{{{{{{~0ddiikk||<<99990b''9499490d9ai',{{{{{j&hmmlnm",
"rrrr$-,!{{{{{{{{{{k0ddiak||<<|||i0a''0099940dk9ai',{{{{{j&hssrrr",
"sssr$-'!{{{{{{{{{/kkdiikk||<|||i0aa'{tt0449kd99b',){{{{{j&hsssrs",
"ssss$-'!{{{{{{{{{~kdddikkdi,,||ia''{11)tu4i0d99i',~{{{{{j&hsssss",
"ssss$-'!{{{{{{{{/00ddiak9||,,iia'{1t1vtttuid099i',]{{{{{j&hsssss",
"sssw$;'~{{{{{{{{~777dikk||<b7aa'x{)1111)yzAAd99i,'{{{{{{j&hwssss",
"wwww$;'~{{{{{{{{0077iik9||<d7aaxBCttt1t1{zADDdai,'{{{{{{j&hwwwww",
"mnmm$;'~{{{{{{{{97ddibk9|||7a'0AAu{11)t{]ADDxEi,''{{{{{{j&hlFmlm",
"lFmF$;'~{{{{{{{{9d7dkdk9|||a'f|<b>u{yy{]ADDxEGi,''{{{{{{j&hmFlml",
"Fsss$;'~{{{{{{{:<9di900aaa|f<kf<<b>uuzAADDxEGGH''i{{{{{{j&hrrrrm",
"mwss$;'~{{{{{{{:4<99900000fffkkf|99>>AADDxEGGH''ii{{{{{{j&hssrrm",
"mwss$;'~{{{{{{{{:44::000<<ff<f|ff900>>DDxEGGH'''i7{{{{{{j&hsssrl",
"lwws$;'~{{{{{{{{{::{::99|ff||<fff<00i>DxEGGH''aa7|{{{{{{j&hwssrm",
"mwww$;'~{{{{{{{{{{{{{{<4444|700<<<0aI>>EGH'''a77|{{{{{{{j&hwsssm",
"Fwww$;'~{{{{{{{{{{{{{{{ff4444444444|aa(x(ia77|{{{{{{{{{{j&hwwwwl",
"lmmn$;'~{{{{{{{{{{{{{{{{{{{{{{{{{{{{{{{{{{{{{{{{{{{{{{{{j&hFnmmn",
"mnmm$;;$$$$$$$$$$$$$gggggggggggjjjjjjjjjjjjjjjjjjjjjjjjjj&hnmmnm",
"rrrr$&&&&&&&&&&&&&&&&&&&&&&&&&&&&&&&&&&&&&&&&&&&&&&&&&&&&&hsrrrr",
"rrssJ>>>>>>hhhhhhhhhhhhhhhhhhhhhhhhhhhcccchhhhhhhhhhhhhhhhhsssrr",
"sssssrrFmwssssssrsssssrmnwwsssssssssssrlmwwssssssssssrrmnwssssss",
"wwsssrrmFwsssssssssssssnmwwsssssssssssrmnwwwsssssssssrrmFwssssss",
"ssssssrnlwwwssswwwwssrrlmwwwssssssswsssmlwwwwwwssssswwrnmwwwwwsw",
"wwwwsssmmwwwwwwwwwsssssmlwwwwwwwwwwwwssmmwwwwwwwwwwwwwwmlwwwwwww",
"FmmlmFnmnmmmFFmmFFmmFmlmnmmlmmlmFFmnmmmnmllmmlmFmmllmmnlnmmlFmmn"};
