/* XPM */
static char * south_wall_xpm[] = {
"64 64 81 1",
" 	c #465962",
".	c #364349",
"+	c #CCD8D4",
"@	c #EEF4F1",
"#	c #EDF3F0",
"$	c #ECF3EF",
"%	c #ECF2EF",
"&	c #EBF1EF",
"*	c #EAF1ED",
"=	c #E9F0ED",
"-	c #E9F0EC",
";	c #E8EEEB",
">	c #E6EEEB",
",	c #E6EDEA",
"'	c #E5ECEA",
")	c #E4ECE8",
"!	c #E3EBE7",
"~	c #E3EAE7",
"{	c #E2EAE7",
"]	c #E3EBE8",
"^	c #E5EBE9",
"/	c #E5ECE9",
"(	c #E7EEEB",
"_	c #E7EFEC",
":	c #E8EFEC",
"<	c #EAF1EE",
"[	c #ECF3F0",
"}	c #EDF4F0",
"|	c #EDF3EF",
"1	c #EBF2EF",
"2	c #EBF1EE",
"3	c #E5EDE9",
"4	c #E4EBE9",
"5	c #E7EEEA",
"6	c #E8EFEB",
"7	c #E8F0EC",
"8	c #EEF3F1",
"9	c #EAF0EE",
"0	c #E9EFED",
"a	c #E4EBE8",
"b	c #E6EDE9",
"c	c #EAEFED",
"d	c #EEF3F0",
"e	c #EAF0ED",
"f	c #E4EBE7",
"g	c #E6EEEA",
"h	c #E7EFEB",
"i	c #EEF4F0",
"j	c #EBF2EE",
"k	c #E3EAE8",
"l	c #E2EBE7",
"m	c #EDF3F1",
"n	c #E5EDEA",
"o	c #E4ECE9",
"p	c #E5EBE8",
"q	c #EBF3EF",
"r	c #EDF4F1",
"s	c #E9EFEC",
"t	c #E7EDEB",
"u	c #E6EDEB",
"v	c #EBF2F0",
"w	c #EDF2EF",
"x	c #E8F0ED",
"y	c #EAF2EE",
"z	c #E8EFED",
"A	c #E6ECEA",
"B	c #E7EEEC",
"C	c #ECF2F0",
"D	c #E6ECE9",
"E	c #E8EEEC",
"F	c #E4EAE8",
"G	c #EDF2F0",
"H	c #E9F0EE",
"I	c #E7EDEA",
"J	c #E5ECE8",
"K	c #E4EAE7",
"L	c #EAF2EF",
"M	c #EAEFEC",
"N	c #4E5D58",
"O	c #EAF0EC",
"P	c #E2EAE8",
"                                                                ",
"................................................................",
"                                                                ",
"+@@@@@@@@@@@@@@@@#$%&*=-;>,')!~++{]^/,(_:=<&%[}@@@@@@@@@@@@@@@@+",
"+@@@@@@@@@@@@@@@@#|12<-:(>,3)]~++~]4/,567=*2%#}@@@@@@@@@@@@@@@@+",
"+@@@@@@@@@@@@@@@@8[%&900;5,/)!~++{]ab,(;:c*&$##@@@@@@@@@@@@@@@@+",
"+@@@@@@@@@@@@@@@@d#12e=7:(,/4]~++~f)',gh-e<&1|@@@@@@@@@@@@@@@@@+",
"+@@@@@@@@@@@@@@@@i#%j*e7h(,/ak~++l])/,5;:=e1%#@@@@@@@@@@@@@@@@@+",
"+@@@@@@@@@@@@@@@@m#%19-7h(,noa~++{ap3,(6:=e1q|m@@@@@@@@@@@@@@@@+",
"+@@@@@@@@@@@@@@@@r#%2<-s(t,n4]~++{!a/,u(s-<2%[i@@@@@@@@@@@@@@@@+",
"+@@@@@@@@@@@@@@@@}[%2<=:6>,/oa~++{]43,(6:=*jv$d@@@@@@@@@@@@@@@@+",
"+@@@@@@@@@@@@@@@@r#1j9=:h(,3/a{++!!a'gt67=<j%w#@@@@@@@@@@@@@@@@+",
"+@@@@@@@@@@@@@@@@@[129-:_>,n4a~++{!4/g((x=ey%$@@@@@@@@@@@@@@@@@+",
"+@@@@@@@@@@@@@@@@i[%2*=s(tn/)a{++~]4/,>;z-e21|@@@@@@@@@@@@@@@@@+",
"+@@@@@@@@@@@@@@@@#[%2e-7h5gnak~++{]aA,(B:-*2%[r@@@@@@@@@@@@@@@@+",
"+@@@@@@@@@@@@@@@@}#%19=:_>,/)a!++~]abn>h:=<&%#8@@@@@@@@@@@@@@@@+",
"+@@@@@@@@@@@@@@@@@#%29=s6(,3)]{++k!a/,5B:=e1%C#@@@@@@@@@@@@@@@@+",
"+@@@@@@@@@@@@@@@@i#%&9=s;5,D4!{++~]o,,5Es-<j%Cr@@@@@@@@@@@@@@@@+",
"+@@@@@@@@@@@@@@@@r#%&*=76>,/)!l++{]a/,(h7=<j%##@@@@@@@@@@@@@@@@+",
"+@@@@@@@@@@@@@@@@d$qj9esEtg/a]{++la43,5hs=<21|i@@@@@@@@@@@@@@@@+",
"+@@@@@@@@@@@@@@@@##%1<-s65,/aa{++{F43,5(s=*2%#m@@@@@@@@@@@@@@@@+",
"+@@@@@@@@@@@@@@@@8#%j90:B>g'af!++~fa/,(6:c9j%[m@@@@@@@@@@@@@@@@+",
"+@@@@@@@@@@@@@@@@8#%2<=:_(,'a!{++~]a/,(6:=9j%$8@@@@@@@@@@@@@@@@+",
"+@@@@@@@@@@@@@@@@mw%2*e76>,no]~++{f)',(;:=<2%#r@@@@@@@@@@@@@@@@+",
"+@@@@@@@@@@@@@@@@}[%y<es_(,/o]~++~])',(E:=e11#m@@@@@@@@@@@@@@@@+",
"+@@@@@@@@@@@@@@@@}GC2Hez;I,DpF{++{])3,tB:=<j%[8@@@@@@@@@@@@@@@@+",
"+@@@@@@@@@@@@@@@@i#%2<=:h,,/)!l++!aa/,u6s092%#}@@@@@@@@@@@@@@@@+",
"+@@@@@@@@@@@@@@@@i%%j*=shg,/a!{++~]J3,5B:e<11#r@@@@@@@@@@@@@@@@+",
"+@@@@@@@@@@@@@@@@}#%j9=s:(g3a]{++~K43,56see2%#8@@@@@@@@@@@@@@@@+",
"+@@@@@@@@@@@@@@@@}[%L<Ms;NNNa!{++~aon,5hs092C[}@@@@@@@@@@@@@@@@+",
"+@@@@@@@@@@@@@@@@}#%je=7_N,bak{++~]a',>;s-<j%#@@@@@@@@@@@@@@@@@+",
"+@@@@@@@@@@@@@@@@r#%j==s(NNN4ak++!aon,(B:=e2%#m@@@@@@@@@@@@@@@@+",
"+@@@@@@@@@@@@@@@@m#%1*s7B(,Na]{++~]o3,5;7=<2%[#@@@@@@@@@@@@@@@@+",
"+@@@@@@@@@@@@@@@@@[11*=:ENNN)!{++~]a3,((7ee&%w}@@@@@@@@@@@@@@@@+",
"+@@@@@@@@@@@@@@@@i#qj9-:;t,/o!~++{!a/,((:=ej%Cd@@@@@@@@@@@@@@@@+",
"+@@@@@@@@@@@@@@@@r#%j*-sE(,/o]~++{fa3,(Ez=91$|d@@@@@@@@@@@@@@@@+",
"+@@@@@@@@@@@@@@@@@#%29O:;5,/o!~++{aJ/,t6:=9j%##@@@@@@@@@@@@@@@@+",
"+@@@@@@@@@@@@@@@@8[%29=zE(,/)]P++!!oDg5(:-*2%Gm@@@@@@@@@@@@@@@@+",
"+@@@@@@@@@@@@@@@@m#%j*=7((,/a!{++{!/b,tBz-*j%|@@@@@@@@@@@@@@@@@+",
"+@@@@@@@@@@@@@@@@d#%&<=:((,/4a{++~a)3,5h:e*y%#r@@@@@@@@@@@@@@@@+",
"+@@@@@@@@@@@@@@@@rC%1eex6(,34a{++{aa/,I6:-e21$}@@@@@@@@@@@@@@@@+",
"+@@@@@@@@@@@@@@@@d#%2*=s(5,Da]~++~!^/,g;s0*j%$}@@@@@@@@@@@@@@@@+",
"+@@@@@@@@@@@@@@@@r[%j<=:h>,/o~~++{]4',u6:0<&%#8@@@@@@@@@@@@@@@@+",
"+@@@@@@@@@@@@@@@@#[%2<-:;t,/4!~++{fon,(;:=e2%#d@@@@@@@@@@@@@@@@+",
"+@@@@@@@@@@@@@@@@}#%2*=s6In'of~++~]4/,(;:=*&1G8@@@@@@@@@@@@@@@@+",
"+@@@@@@@@@@@@@@@@@#%&*=s;(g3Ja~++!!o'g5;s0*21#d@@@@@@@@@@@@@@@@+",
"+@@@@@@@@@@@@@@@@}|$&<=:((,34k~++{ao3,5hs-e&1#i@@@@@@@@@@@@@@@@+",
"+@@@@@@@@@@@@@@@@i|%ye=-;(,/)a~++{a4b,I_s-<2$#8@@@@@@@@@@@@@@@@+",
"+@@@@@@@@@@@@@@@@}#%2e00_>nb4a~++{k4',g_:=<1%##@@@@@@@@@@@@@@@@+",
"+@@@@@@@@@@@@@@@@d[%1<=:;t,'4K{++~k)/,5Es=<2%C8@@@@@@@@@@@@@@@@+",
"+@@@@@@@@@@@@@@@@r[%j*-sh(,')]{++{]a/,(:z=<2%[#@@@@@@@@@@@@@@@@+",
"+@@@@@@@@@@@@@@@@##%j9=0:(,/)]{++{ko3,5B:c92[[i@@@@@@@@@@@@@@@@+",
"+@@@@@@@@@@@@@@@@d|1&9=:E(,3o]~++{aa3,(6:O9&1[r@@@@@@@@@@@@@@@@+",
"+@@@@@@@@@@@@@@@@8|%&e=sBt,'o]{++lka/g5;s=<1%[8@@@@@@@@@@@@@@@@+",
"+@@@@@@@@@@@@@@@@m$%&9=:(g,3)]~++Pfa',(h:=e&%$d@@@@@@@@@@@@@@@@+",
"+@@@@@@@@@@@@@@@@d#vj*0:;(,/J]{++~]//,>(:=92%#d@@@@@@@@@@@@@@@@+",
"+@@@@@@@@@@@@@@@@}#%&<=sE>,34a{++l])'g5B-=<2%#@@@@@@@@@@@@@@@@@+",
"+@@@@@@@@@@@@@@@@}G%2*==B>,3a!~++~k43,5h-=9j1#}@@@@@@@@@@@@@@@@+",
"+@@@@@@@@@@@@@@@@m[%je-:B,,34]~++{])D,(::=*j%#d@@@@@@@@@@@@@@@@+",
"+@@@@@@@@@@@@@@@@8$%&9-0Btn'oa~++~fo3,(_:=<j1#@@@@@@@@@@@@@@@@@+",
"+@@@@@@@@@@@@@@@@d#%2<=s;u,,)]{++~]a/,(hse*2%#r@@@@@@@@@@@@@@@@+",
"                                                                ",
"................................................................",
"                                                                "};
