/* XPM */
static char * fire_xpm[] = {
"64 64 148 2",
"  	c #980088",
". 	c #F8774A",
"+ 	c #F77F56",
"@ 	c #F8784C",
"# 	c #FC6330",
"$ 	c #FB6A3C",
"% 	c #FC5D27",
"& 	c #FF4F04",
"* 	c #F87D56",
"= 	c #FE560D",
"- 	c #FF7500",
"; 	c #FF5903",
"> 	c #FA6F42",
", 	c #F7815D",
"' 	c #FF7800",
") 	c #FF8D00",
"! 	c #FF7F00",
"~ 	c #F97349",
"{ 	c #F68765",
"] 	c #FE560C",
"^ 	c #FF7600",
"/ 	c #FF9300",
"( 	c #FFB500",
"_ 	c #FF9A00",
": 	c #FF7D00",
"< 	c #FF5802",
"[ 	c #F97851",
"} 	c #F58D6D",
"| 	c #FE550A",
"1 	c #FF7300",
"2 	c #FFB700",
"3 	c #FFD300",
"4 	c #FFBE00",
"5 	c #FF9B00",
"6 	c #FF7A00",
"7 	c #FF5801",
"8 	c #F87D57",
"9 	c #FE5010",
"0 	c #FF5900",
"a 	c #FF9C00",
"b 	c #FFD100",
"c 	c #FFDB00",
"d 	c #FFD800",
"e 	c #FFA500",
"f 	c #FF9100",
"g 	c #FF6400",
"h 	c #FF4900",
"i 	c #F1A690",
"j 	c #FF5607",
"k 	c #FF7B00",
"l 	c #FF9600",
"m 	c #FFBF00",
"n 	c #FFD700",
"o 	c #FFD900",
"p 	c #FF8800",
"q 	c #FF5B01",
"r 	c #FA6F43",
"s 	c #CC4828",
"t 	c #CD4B1D",
"u 	c #CD731D",
"v 	c #CD801D",
"w 	c #CDA81D",
"x 	c #CDB11D",
"y 	c #CDAC1D",
"z 	c #CD661D",
"A 	c #CD421E",
"B 	c #828298",
"C 	c #2C2C69",
"D 	c #3C3C7A",
"E 	c #45457A",
"F 	c #42427A",
"G 	c #333374",
"H 	c #46466D",
"I 	c #57578B",
"J 	c #4E4E9A",
"K 	c #6161AA",
"L 	c #6565AA",
"M 	c #6C6CAA",
"N 	c #6D6DAA",
"O 	c #6969AA",
"P 	c #5A5AA4",
"Q 	c #47478E",
"R 	c #7E7F99",
"S 	c #56568A",
"T 	c #404093",
"U 	c #4C4C9A",
"V 	c #6262AA",
"W 	c #6363AA",
"X 	c #6464AA",
"Y 	c #6868AA",
"Z 	c #5959A3",
"` 	c #414193",
" .	c #46468F",
"..	c #7C7C96",
"+.	c #646381",
"@.	c #555586",
"#.	c #424296",
"$.	c #484899",
"%.	c #6161A8",
"&.	c #5353A0",
"*.	c #49498F",
"=.	c #616181",
"-.	c #5C5C7D",
";.	c #59597B",
">.	c #54547F",
",.	c #454596",
"'.	c #44449A",
").	c #4C4C88",
"!.	c #606082",
"~.	c #4C4C74",
"{.	c #2E2E61",
"].	c #2C2C67",
"^.	c #2D2D6A",
"/.	c #292960",
"(.	c #41416C",
"_.	c #505076",
":.	c #4E4E74",
"<.	c #434393",
"[.	c #4A4AA0",
"}.	c #343470",
"|.	c #535377",
"1.	c #5B5B99",
"2.	c #6767A8",
"3.	c #3E3E73",
"4.	c #545477",
"5.	c #5F5F99",
"6.	c #6B6BA8",
"7.	c #404073",
"8.	c #47476F",
"9.	c #3F3F73",
"0.	c #4E4E72",
"a.	c #3A3A6D",
"b.	c #62629D",
"c.	c #6C6CA8",
"d.	c #4A4A80",
"e.	c #313161",
"f.	c #4C4C73",
"g.	c #6C6CA9",
"h.	c #6A6AA6",
"i.	c #414175",
"j.	c #4C4C72",
"k.	c #585891",
"l.	c #61619C",
"m.	c #3D3D71",
"n.	c #49496D",
"o.	c #2B2B5D",
"p.	c #2D2D5E",
"q.	c #282859",
"                                                                                                                                ",
"                                                                                                                                ",
"                                                                                                                                ",
"                                                                                                                                ",
"                                                                                                                                ",
"                                                                                                                                ",
"                                                                                                                                ",
"                                                                                                                                ",
"                                                                                                                                ",
"                                                                                                                                ",
"                                                                                                                                ",
"                                                                                                                                ",
"                                                                                                                                ",
"                                                                                                                                ",
"                                                                                                                                ",
"                                                                                                                                ",
"                                                                                                                                ",
"                                                                                                                                ",
"                                                                                                                                ",
"                                                                                                                                ",
"                                                                                                                                ",
"                                                                                                                                ",
"                                                                                                                                ",
"                                                                                                                                ",
"                                                                                                                                ",
"                                                                                                                                ",
"                                                                                                                                ",
"                                                                                                                                ",
"                                                                                                                                ",
"                                                                                                                                ",
"                                                                                                                                ",
"                                                      . +                                                                       ",
"                                                          @ # $                                                                 ",
"                                                            % & $                                                               ",
"                                                          * = - ; >                                                             ",
"                                                        , = ' ) ! ; ~                                                           ",
"                                                      { ] ^ / ( _ : < [                                                         ",
"                                                    } | 1 / 2 3 4 5 6 7 8                                                       ",
"                                                    9 0 ) a b c d e f g h i                                                     ",
"                                                    * j k l m n o 2 p q r                                                       ",
"                                                      s t u v w x y z A                                                         ",
"                                      B C D E E E E E E E E E E E E E E E E E E E E F G H                                       ",
"                                        I J K L M N N N N N N N N N N N N N N N O K P Q R                                       ",
"                                          S T U V W W X M N N N N N N N Y W W W Z `  ...                                        ",
"                                            +.@.#.#.#.$.%.X X X X X X L &.#.#.#.*.=.                                            ",
"                                                -.;.;.>.,.'.'.'.'.'.'.'.).;.;.;.                                                ",
"                                                        !.~.{.].^./.(._.                                                        ",
"                                                            :.<.[.}.                                                            ",
"                                                            |.1.2.3.                                                            ",
"                                                            4.5.6.7.                                                            ",
"                                                            4.5.6.7.                                                            ",
"                                                            4.5.6.7.                                                            ",
"                                                            4.5.6.7.                                                            ",
"                                                            4.5.6.7.                                                            ",
"                                                            4.5.6.7.                                                            ",
"                                                            4.5.6.7.                                                            ",
"                                                            4.5.6.7.                                                            ",
"                                                            4.5.6.7.                                                            ",
"                                                            4.5.6.7.                                                            ",
"                                                            8.5.6.9.                                                            ",
"                                                          0.a.b.c.d.e.                                                          ",
"                                                          f.5.g.N h.i.                                                          ",
"                                                          j.k.b.b.l.m.                                                          ",
"                                                          n.o.p.p.p.q.                                                          "};
