/* XPM */
static char * wall_xpm[] = {
"64 64 642 2",
"  	c #C2988C",
". 	c #C4B3AD",
"+ 	c #C4B2AC",
"@ 	c #C4C0BD",
"# 	c #C4BDB9",
"$ 	c #C4B6B2",
"% 	c #C5B7B2",
"& 	c #C4ADA6",
"* 	c #C4AAA1",
"= 	c #C4A195",
"- 	c #C4A499",
"; 	c #C4ACA4",
"> 	c #C4A99F",
", 	c #C4A397",
"' 	c #C49F93",
") 	c #C3A298",
"! 	c #C39C90",
"~ 	c #C4A298",
"{ 	c #C3988C",
"] 	c #C29B91",
"^ 	c #C39B8F",
"/ 	c #C29386",
"( 	c #C1968B",
"_ 	c #C39C91",
": 	c #C2978D",
"< 	c #C29285",
"[ 	c #C29488",
"} 	c #C19183",
"| 	c #C28A7B",
"1 	c #C28775",
"2 	c #C29588",
"3 	c #C18B7C",
"4 	c #C18777",
"5 	c #C18C7D",
"6 	c #C18C7C",
"7 	c #C18F80",
"8 	c #C1897A",
"9 	c #C08C7C",
"0 	c #C19184",
"a 	c #C18E7D",
"b 	c #C0897A",
"c 	c #C18A7A",
"d 	c #C18979",
"e 	c #C18F81",
"f 	c #C1978B",
"g 	c #C2998D",
"h 	c #C28D7D",
"i 	c #C18675",
"j 	c #C29081",
"k 	c #C29F95",
"l 	c #C3978A",
"m 	c #C18D7E",
"n 	c #C19284",
"o 	c #C1988B",
"p 	c #C2978B",
"q 	c #AF8A7F",
"r 	c #B87F6B",
"s 	c #B67561",
"t 	c #B88676",
"u 	c #B99283",
"v 	c #BC9E93",
"w 	c #BB9D93",
"x 	c #BDA39B",
"y 	c #BE8F80",
"z 	c #B77562",
"A 	c #B98776",
"B 	c #B56E59",
"C 	c #B8806E",
"D 	c #B77A68",
"E 	c #A5614A",
"F 	c #8E5745",
"G 	c #A9604A",
"H 	c #8B5746",
"I 	c #A9624C",
"J 	c #A5604A",
"K 	c #AC624B",
"L 	c #A05D48",
"M 	c #8A5746",
"N 	c #8D5646",
"O 	c #A25946",
"P 	c #935947",
"Q 	c #905746",
"R 	c #8E5847",
"S 	c #A5614D",
"T 	c #B46B54",
"U 	c #A35F49",
"V 	c #815244",
"W 	c #745044",
"X 	c #A3604A",
"Y 	c #885746",
"Z 	c #985A47",
"` 	c #935A47",
" .	c #985B49",
"..	c #835445",
"+.	c #8C5646",
"@.	c #AD644C",
"#.	c #855546",
"$.	c #7F5446",
"%.	c #A15C49",
"&.	c #AC624C",
"*.	c #7F5245",
"=.	c #805447",
"-.	c #905848",
";.	c #9B5B49",
">.	c #A15E4A",
",.	c #9B5C49",
"'.	c #905748",
").	c #795145",
"!.	c #835446",
"~.	c #A35E4A",
"{.	c #B56A53",
"].	c #9E5C4A",
"^.	c #AA624D",
"/.	c #905948",
"(.	c #A56754",
"_.	c #A8857A",
":.	c #90695D",
"<.	c #B3725F",
"[.	c #A9634E",
"}.	c #B3715C",
"|.	c #B47E6E",
"1.	c #B99184",
"2.	c #BB9C90",
"3.	c #C6BBB8",
"4.	c #C9A49A",
"5.	c #8E5646",
"6.	c #AE654E",
"7.	c #B67A68",
"8.	c #B78475",
"9.	c #B5735E",
"0.	c #A35F4A",
"a.	c #C7A398",
"b.	c #9F4D38",
"c.	c #5F4A42",
"d.	c #875747",
"e.	c #B7715B",
"f.	c #AB634C",
"g.	c #B5654B",
"h.	c #C5907F",
"i.	c #C7654A",
"j.	c #634B43",
"k.	c #895948",
"l.	c #AF634C",
"m.	c #A7624D",
"n.	c #C8998B",
"o.	c #6F4535",
"p.	c #6B4E44",
"q.	c #8E5749",
"r.	c #7A5447",
"s.	c #955A47",
"t.	c #A6614D",
"u.	c #855848",
"v.	c #C5725B",
"w.	c #C6593B",
"x.	c #634A42",
"y.	c #875848",
"z.	c #765146",
"A.	c #7E5446",
"B.	c #A15E4B",
"C.	c #9F5D49",
"D.	c #C68672",
"E.	c #9B4D37",
"F.	c #5B4942",
"G.	c #7B5448",
"H.	c #A05E4B",
"I.	c #A3604D",
"J.	c #8E5849",
"K.	c #875647",
"L.	c #C3705A",
"M.	c #BF573A",
"N.	c #544742",
"O.	c #8E584A",
"P.	c #855748",
"Q.	c #694E45",
"R.	c #B28F85",
"S.	c #B3978E",
"T.	c #936D62",
"U.	c #966F63",
"V.	c #946D61",
"W.	c #BD9C91",
"X.	c #B57663",
"Y.	c #B89284",
"Z.	c #BCA298",
"`.	c #BD7763",
" +	c #74473A",
".+	c #8B5647",
"++	c #B68372",
"@+	c #B7806E",
"#+	c #BA978B",
"$+	c #B98A79",
"%+	c #B36B55",
"&+	c #774D3F",
"*+	c #2C3233",
"=+	c #6F4F45",
"-+	c #975B4A",
";+	c #B46953",
">+	c #B4664D",
",+	c #B56B54",
"'+	c #B3644B",
")+	c #724D41",
"!+	c #393938",
"~+	c #7C5043",
"{+	c #955B49",
"]+	c #AD634D",
"^+	c #A5624C",
"/+	c #945947",
"(+	c #7E5346",
"_+	c #58433C",
":+	c #23292A",
"<+	c #6B4D44",
"[+	c #825547",
"}+	c #8A5747",
"|+	c #755346",
"1+	c #54453E",
"2+	c #2D3131",
"3+	c #4C4541",
"4+	c #755246",
"5+	c #644B43",
"6+	c #765246",
"7+	c #6C4A3F",
"8+	c #282D2D",
"9+	c #6E4E44",
"0+	c #905849",
"a+	c #915949",
"b+	c #AF634E",
"c+	c #795347",
"d+	c #57463F",
"e+	c #2B3030",
"f+	c #584742",
"g+	c #965A4A",
"h+	c #9C786E",
"i+	c #8C6457",
"j+	c #B19288",
"k+	c #987367",
"l+	c #AF938B",
"m+	c #AF7867",
"n+	c #886358",
"o+	c #925C4A",
"p+	c #B47763",
"q+	c #B9A298",
"r+	c #BEB5B1",
"s+	c #BDACA6",
"t+	c #B98574",
"u+	c #B67560",
"v+	c #B78675",
"w+	c #BA9486",
"x+	c #BB998D",
"y+	c #BA8E7F",
"z+	c #B77F6F",
"A+	c #B88472",
"B+	c #B66B53",
"C+	c #A3624C",
"D+	c #925B4A",
"E+	c #B3654E",
"F+	c #AC634D",
"G+	c #B66F57",
"H+	c #B56C54",
"I+	c #A35E48",
"J+	c #A25C47",
"K+	c #A4614B",
"L+	c #8D5949",
"M+	c #B56B53",
"N+	c #A5624D",
"O+	c #955B48",
"P+	c #985B48",
"Q+	c #9A5A48",
"R+	c #8A5646",
"S+	c #865747",
"T+	c #7E5648",
"U+	c #795246",
"V+	c #895747",
"W+	c #775347",
"X+	c #664C44",
"Y+	c #6C4E44",
"Z+	c #584843",
"`+	c #8C5848",
" @	c #9A5B48",
".@	c #955A49",
"+@	c #9A5B4B",
"@@	c #B1644E",
"#@	c #7E5548",
"$@	c #715045",
"%@	c #915A49",
"&@	c #7C5548",
"*@	c #7C5549",
"=@	c #89584A",
"-@	c #8D5849",
";@	c #7E5B50",
">@	c #7D584C",
",@	c #7B5548",
"'@	c #7B5549",
")@	c #7D594D",
"!@	c #825548",
"~@	c #8A5342",
"{@	c #714D43",
"]@	c #7B4F41",
"^@	c #724D40",
"/@	c #7C4E40",
"(@	c #6B4B40",
"_@	c #594941",
":@	c #714C40",
"<@	c #6D4C41",
"[@	c #594740",
"}@	c #4B4340",
"|@	c #5A4740",
"1@	c #47423F",
"2@	c #58463F",
"3@	c #59483F",
"4@	c #4D433E",
"5@	c #383E3E",
"6@	c #3C403D",
"7@	c #3D403D",
"8@	c #56463F",
"9@	c #4A433F",
"0@	c #4E453F",
"a@	c #41413E",
"b@	c #3A3E3C",
"c@	c #41403E",
"d@	c #333E3D",
"e@	c #343F3E",
"f@	c #3A403E",
"g@	c #2A3739",
"h@	c #283739",
"i@	c #263334",
"j@	c #2B3A3C",
"k@	c #2C3A3B",
"l@	c #2F3C3C",
"m@	c #4B433F",
"n@	c #3E3F3E",
"o@	c #53443F",
"p@	c #49423F",
"q@	c #45423F",
"r@	c #554540",
"s@	c #534440",
"t@	c #534540",
"u@	c #434240",
"v@	c #3D403F",
"w@	c #2F3B3D",
"x@	c #825546",
"y@	c #7C5448",
"z@	c #7A5448",
"A@	c #795448",
"B@	c #775348",
"C@	c #B5AAA5",
"D@	c #BCB3AF",
"E@	c #BBB2AE",
"F@	c #BDB4B0",
"G@	c #BAB2AE",
"H@	c #BBB2AF",
"I@	c #BBB3AF",
"J@	c #BAB1AD",
"K@	c #B28C81",
"L@	c #B18A7F",
"M@	c #B18B80",
"N@	c #A27C71",
"O@	c #B18C81",
"P@	c #B18D83",
"Q@	c #C2ABA4",
"R@	c #C2A59D",
"S@	c #C1A69F",
"T@	c #C2B1AD",
"U@	c #C2AAA2",
"V@	c #C2A9A1",
"W@	c #C3B7B3",
"X@	c #C3BDBB",
"Y@	c #C3C5C2",
"Z@	c #C4C7C7",
"`@	c #C4CBCC",
" #	c #C2C5C3",
".#	c #C3C5C5",
"+#	c #C2BEBB",
"@#	c #C2BDBA",
"##	c #C2B3AE",
"$#	c #C2B2AD",
"%#	c #C2B5B0",
"&#	c #C3BDBA",
"*#	c #C3B6B0",
"=#	c #C2ACA5",
"-#	c #C2A79F",
";#	c #C2B4AE",
">#	c #C2AFA9",
",#	c #C2B1AC",
"'#	c #C1A299",
")#	c #C1A8A1",
"!#	c #C19E93",
"~#	c #C1A59D",
"{#	c #C2ADA6",
"]#	c #C1A9A1",
"^#	c #C1A399",
"/#	c #C19F93",
"(#	c #C1A097",
"_#	c #C19F94",
":#	c #C1A49B",
"<#	c #C19D91",
"[#	c #C19A8F",
"}#	c #C1998E",
"|#	c #BC968B",
"1#	c #C0998E",
"2#	c #B89287",
"3#	c #AD887E",
"4#	c #895F51",
"5#	c #B88272",
"6#	c #BB9386",
"7#	c #BC9082",
"8#	c #B67866",
"9#	c #AD6F5E",
"0#	c #A1604C",
"a#	c #875849",
"b#	c #8F5949",
"c#	c #A7624E",
"d#	c #B46E59",
"e#	c #B6715B",
"f#	c #B6715C",
"g#	c #B67969",
"h#	c #BA9184",
"i#	c #B88672",
"j#	c #B9988C",
"k#	c #B67F6D",
"l#	c #B47967",
"m#	c #B16852",
"n#	c #A7634E",
"o#	c #935C49",
"p#	c #965C4B",
"q#	c #935B49",
"r#	c #AB644E",
"s#	c #B3654F",
"t#	c #965B49",
"u#	c #A35F4C",
"v#	c #B0634C",
"w#	c #B4644B",
"x#	c #8F5849",
"y#	c #8E5948",
"z#	c #925948",
"A#	c #8F5748",
"B#	c #995A49",
"C#	c #8E5747",
"D#	c #925B49",
"E#	c #895847",
"F#	c #995B49",
"G#	c #7F5547",
"H#	c #855447",
"I#	c #735145",
"J#	c #7A5247",
"K#	c #915B48",
"L#	c #955A48",
"M#	c #9E5E49",
"N#	c #7C5146",
"O#	c #534842",
"P#	c #614B43",
"Q#	c #684E45",
"R#	c #684D44",
"S#	c #645753",
"T#	c #855849",
"U#	c #956555",
"V#	c #A36E5D",
"W#	c #B99286",
"X#	c #B78371",
"Y#	c #B36C55",
"Z#	c #905B4B",
"`#	c #C17A65",
" $	c #C55D3F",
".$	c #594843",
"+$	c #86584A",
"@$	c #AD634E",
"#$	c #B36853",
"$$	c #B36A55",
"%$	c #B36953",
"&$	c #C5A49A",
"*$	c #AD523A",
"=$	c #B2634B",
"-$	c #B6806E",
";$	c #B77F6D",
">$	c #A1634F",
",$	c #AC654F",
"'$	c #B3705B",
")$	c #C18879",
"!$	c #B8573C",
"~$	c #5E4B43",
"{$	c #7D5547",
"]$	c #8A584B",
"^$	c #9E5D4B",
"/$	c #C59486",
"($	c #7F4839",
"_$	c #865346",
":$	c #725146",
"<$	c #845648",
"[$	c #A15E49",
"}$	c #C2745F",
"|$	c #BE593C",
"1$	c #8D5748",
"2$	c #5F4B44",
"3$	c #C4715B",
"4$	c #884939",
"5$	c #755044",
"6$	c #815548",
"7$	c #835547",
"8$	c #A5614B",
"9$	c #C2705A",
"0$	c #BF583B",
"a$	c #574841",
"b$	c #684E44",
"c$	c #6C4D44",
"d$	c #5C4943",
"e$	c #674D44",
"f$	c #744F45",
"g$	c #9B6654",
"h$	c #9E6451",
"i$	c #B88A7A",
"j$	c #B36D56",
"k$	c #A26350",
"l$	c #854E3F",
"m$	c #453A36",
"n$	c #494441",
"o$	c #B36B56",
"p$	c #A8624E",
"q$	c #B2654E",
"r$	c #96503C",
"s$	c #483A35",
"t$	c #B5745F",
"u$	c #B5725D",
"v$	c #7E4C3D",
"w$	c #4B3B35",
"x$	c #484441",
"y$	c #725246",
"z$	c #A4614E",
"A$	c #B87662",
"B$	c #8B5748",
"C$	c #854A39",
"D$	c #2E302F",
"E$	c #744F44",
"F$	c #775247",
"G$	c #8A5848",
"H$	c #985C49",
"I$	c #835748",
"J$	c #7A493C",
"K$	c #5B4640",
"L$	c #7C5447",
"M$	c #8E5848",
"N$	c #6C4E45",
"O$	c #5B4039",
"P$	c #2F3030",
"Q$	c #654B43",
"R$	c #8D5847",
"S$	c #895749",
"T$	c #8C4F3E",
"U$	c #4D3B35",
"V$	c #42403F",
"W$	c #544642",
"X$	c #745145",
"Y$	c #7B5244",
"Z$	c #8E665A",
"`$	c #A77C6F",
" %	c #A77360",
".%	c #B88B7A",
"+%	c #A6654F",
"@%	c #6A4F45",
"#%	c #785347",
"$%	c #B56D57",
"%%	c #A9624E",
"&%	c #8D584A",
"*%	c #A15D49",
"=%	c #B46851",
"-%	c #B4715D",
";%	c #B46F59",
">%	c #9C5E4B",
",%	c #A3604C",
"'%	c #895848",
")%	c #B87865",
"!%	c #614B44",
"~%	c #855547",
"{%	c #875648",
"]%	c #835647",
"^%	c #795547",
"/%	c #6D4D44",
"(%	c #6E5045",
"_%	c #705045",
":%	c #664D45",
"<%	c #504541",
"[%	c #554842",
"}%	c #7C5346",
"|%	c #8F5948",
"1%	c #A05C48",
"2%	c #875546",
"3%	c #564843",
"4%	c #6A4F47",
"5%	c #735044",
"6%	c #785145",
"7%	c #705046",
"8%	c #7B5245",
"9%	c #A15B45",
"0%	c #9B5944",
"a%	c #845445",
"b%	c #9A5844",
"c%	c #9C5844",
"d%	c #8A5644",
"e%	c #725044",
"f%	c #785245",
"g%	c #5B4A43",
"h%	c #4D4641",
"i%	c #714E43",
"j%	c #764E43",
"k%	c #604942",
"l%	c #744E42",
"m%	c #674C43",
"n%	c #734E43",
"o%	c #795043",
"p%	c #594943",
"q%	c #5B4943",
"r%	c #4C4641",
"s%	c #4F4640",
"t%	c #484440",
"u%	c #734D42",
"v%	c #7E4F42",
"w%	c #674A42",
"x%	c #524641",
"y%	c #42433F",
"z%	c #544640",
"A%	c #584840",
"B%	c #4F4541",
"C%	c #5B4841",
"D%	c #614740",
"E%	c #46433F",
"F%	c #504641",
"G%	c #634941",
"H%	c #373F3E",
"I%	c #4E4540",
"J%	c #3A3F3E",
"K%	c #393E3D",
"L%	c #393E40",
"M%	c #484340",
"N%	c #3C3F3F",
"O%	c #524740",
"P%	c #594741",
"Q%	c #5A4741",
"R%	c #383E3F",
"S%	c #4D4540",
"T%	c #5E4840",
"U%	c #6F4D43",
"V%	c #5D4740",
"W%	c #7A5245",
"X%	c #714F44",
"Y%	c #795144",
"  . + @ # # $ % & * = - ; > , ' ) ! ~ { ] ^ / ( _ : < [ [   } | 1 2 3 4 5 6 7 6 7 3 } 8 6 9 0 a b c d e f g h i j k l m n   o p ",
"q r s t u v w x y z A B C D E F G H I J K L M N O P Q R S T U V W X I Y Z `  ...+.L @.#.$.%.&.P *.=.-.;.>.,.'.).!.~.{.].^./.(._.",
":.<.[.}.|.1.2.3.4.5.6.7.8.9.0.a.b.c.d.d.e.f.g.h.i.j.k.l.m.m.-.n.o.p.q.r.s.t.u.v.w.x.y.z.A.B.C.D.E.F.G.H.I.J.K.L.M.N.].O.P.Q.R.S.",
"T.U.V.W.X.Y.Z.`. +.+++@+#+$+%+&+*+=+-+;+>+,+'+)+!+~+{+]+^+/+(+_+:+<+P.[+}+u.|+1+2+3+4+5+6+].>.7+8+9+0+a+b+B.c+d+e+f+g+h+i+j+k+k+",
"l+m+n+o+p+q+r+s+t+u+v+w+x+y+z+A+B+C+D+E+F+G+H+I+J+K+L+M+N+O+P+Q+R+S+T+U+V+d.W+X+Y+X+4+Z+U+`+>. @(+.@J.+@@@I.-+#@$@P.%@&@*@=@-@Y+",
";@>@,@'@)@'@G.!@~@{@]@^@/@(@_@:@<@[@}@|@1@2@3@4@5@6@7@2@8@4@9@0@a@b@c@d@e@f@e@g@h@i@j@k@l@1@m@0@n@o@p@q@r@s@t@u@v@w@x@y@z@,@A@B@",
"r+C@r+r+C@r+r+r+r+r+r+r+r+r+r+r+r+r+r+r+r+r+r+r+r+r+r+r+r+r+r+r+r+r+r+r+r+r+r+r+r+r+r+r+r+r+r+r+r+r+r+r+r+r+r+r+r+r+r+r+r+r+r+r+",
"r+r+r+r+r+r+r+r+r+r+r+r+r+r+r+r+r+r+r+r+r+r+r+r+r+r+r+r+r+r+r+r+r+r+r+r+r+r+r+r+r+r+r+r+r+r+r+r+r+r+r+r+r+r+r+r+r+r+r+r+r+r+r+r+",
"r+r+r+D@D@r+r+r+r+r+r+r+r+r+r+r+r+r+r+r+r+r+r+r+r+r+r+r+r+r+r+r+r+r+r+r+r+r+r+r+r+r+r+r+r+r+r+r+r+r+r+r+r+r+r+r+r+r+r+r+E@D@r+F@",
"D@D@D@E@r+r+r+r+r+r+r+r+r+r+r+r+r+r+r+r+r+r+r+r+r+r+r+r+r+r+r+r+r+r+r+r+r+r+r+r+r+r+r+r+r+r+r+r+r+r+r+r+F@D@F@r+r+r+r+D@E@r+r+E@",
"E@E@E@D@r+r+F@D@r+F@F@r+r+r+r+r+r+r+r+r+r+r+r+r+r+r+r+r+r+F@F@F@r+r+r+r+r+r+r+r+r+r+r+r+r+r+r+r+r+r+r+r+F@D@E@D@D@D@D@E@E@E@E@E@",
"F@E@E@D@G@G@E@D@F@F@F@r+r+r+r+r+r+r+r+r+r+r+r+r+r+D@E@E@E@E@D@F@D@D@D@D@F@F@F@r+r+r+r+r+F@D@D@D@F@r+D@D@D@D@D@D@E@E@E@E@E@E@D@F@",
"F@D@D@F@F@D@E@E@E@E@E@E@E@E@E@E@D@F@r+r+r+r+r+r+r+F@r+r+r+r+r+r+r+r+r+r+F@F@F@H@E@D@F@F@r+F@D@r+D@E@D@F@D@E@E@E@E@E@E@D@E@E@E@D@",
"E@E@E@E@E@E@E@E@E@E@E@E@E@E@E@E@F@F@D@r+r+r+r+r+F@D@F@r+r+r+r+F@r+F@F@F@F@D@E@D@I@E@D@D@E@D@F@D@E@E@E@E@E@E@E@D@F@E@E@D@F@F@F@D@",
"r+r+r+r+r+F@E@E@E@E@E@E@E@E@D@D@E@D@D@r+r+r+D@D@D@r+F@D@D@r+D@D@E@D@E@E@E@r+r+E@F@r+F@D@F@E@E@D@E@E@E@E@E@E@E@E@E@E@E@E@D@r+r+r+",
"r+r+r+r+r+F@F@E@E@D@r+r+r+D@H@H@D@E@E@E@E@E@E@E@E@E@E@E@E@E@E@E@E@E@E@D@D@E@D@F@D@D@r+r+E@D@E@E@E@E@E@E@E@E@D@D@D@D@E@D@D@r+r+r+",
"r+r+r+r+r+D@E@E@E@E@E@E@D@E@E@E@E@E@E@E@E@E@E@E@E@E@E@D@E@E@E@E@E@E@D@E@E@H@E@E@E@E@E@E@E@E@E@E@E@E@E@E@D@F@D@F@r+r+r+F@D@D@F@F@",
"E@D@F@r+r+r+r+r+r+F@F@F@F@D@E@E@E@E@E@E@E@E@E@E@E@E@E@E@E@E@E@E@E@E@E@E@E@E@E@E@E@E@E@E@E@E@E@E@E@r+F@E@E@E@E@E@E@E@D@D@D@I@E@E@",
"r+D@E@r+r+r+r+r+r+r+r+r+r+F@r+r+F@D@F@F@F@D@D@E@E@E@E@E@E@E@E@E@E@D@r+r+r+r+r+D@F@E@E@E@E@E@I@E@E@E@D@F@E@D@E@D@D@F@D@F@r+r+r+r+",
"r+r+r+r+r+r+r+r+r+r+r+r+r+r+r+r+r+r+r+r+r+r+E@E@E@E@E@D@D@D@E@D@D@D@E@D@r+r+r+r+D@E@D@F@E@E@E@D@E@E@E@D@F@F@F@E@E@E@E@E@E@E@r+r+",
"r+r+r+r+r+r+r+r+r+r+r+r+r+r+r+r+r+r+r+r+D@F@D@D@F@r+r+r+F@F@D@E@D@D@D@D@D@I@I@D@F@E@E@r+r+F@E@E@E@E@D@E@E@F@D@F@F@D@D@D@I@F@r+r+",
"r+r+r+r+r+r+r+r+r+r+r+r+r+r+r+r+r+r+r+r+D@F@r+r+r+r+r+r+r+r+F@D@F@F@D@D@D@D@D@E@E@H@E@E@D@D@F@E@E@D@r+r+F@D@D@D@D@r+r+r+r+r+r+r+",
"F@r+r+r+r+r+r+r+r+r+r+r+r+r+r+r+r+r+r+r+r+r+r+r+r+r+r+F@D@D@F@D@r+r+r+r+r+r+D@D@D@D@D@D@D@r+D@F@D@F@F@D@F@F@F@F@F@F@F@F@F@F@F@F@",
"F@r+r+r+r+r+r+r+r+r+r+r+r+r+r+r+r+r+r+r+r+r+r+r+r+r+r+F@F@F@D@E@r+r+r+r+r+r+D@D@F@D@r+r+F@D@D@r+D@r+F@D@F@F@F@F@F@F@F@F@F@F@F@F@",
"r+r+r+r+r+r+r+r+r+r+r+r+r+r+r+r+r+r+r+r+r+r+r+r+F@D@E@E@D@F@r+r+r+r+r+r+D@D@r+r+D@r+r+r+D@D@r+r+D@r+r+r+r+r+r+r+r+r+r+r+r+r+r+r+",
"r+r+r+r+r+r+r+r+r+r+r+r+r+r+r+r+r+r+r+r+r+r+r+r+F@E@E@E@E@E@E@E@D@D@D@E@D@D@D@I@D@r+r+D@r+r+r+F@F@r+r+r+r+r+r+r+r+r+r+r+r+r+r+r+",
"r+r+r+r+r+r+r+r+r+r+r+r+r+r+r+r+r+r+r+r+D@D@E@D@E@E@E@E@E@E@E@E@E@E@E@E@E@E@E@E@D@F@D@r+r+r+E@D@r+r+r+r+r+r+r+r+r+r+r+r+r+r+r+r+",
"r+r+r+r+r+r+r+r+r+r+r+F@F@r+r+r+r+r+r+D@E@D@D@E@E@G@E@D@r+E@D@H@E@F@F@r+r+F@F@E@E@E@D@r+r+E@D@r+r+r+r+r+r+r+r+r+r+r+r+r+r+r+r+r+",
"r+r+r+r+r+r+r+r+r+r+r+D@D@r+r+r+r+F@D@E@E@E@E@E@E@F@D@D@F@E@E@D@r+r+F@D@D@D@r+E@D@E@D@E@E@E@F@F@F@F@F@F@r+r+r+r+r+r+r+r+r+r+r+r+",
"r+r+r+r+r+r+r+r+r+r+r+D@E@E@E@E@E@E@E@D@E@E@E@F@F@F@E@E@D@F@F@E@D@E@D@D@r+r+D@r+r+D@E@E@E@F@F@F@F@F@D@F@r+r+r+r+r+r+r+r+r+r+r+r+",
"r+r+r+D@E@D@D@D@D@D@F@F@D@D@F@D@E@E@E@E@E@E@D@H@E@E@E@E@E@E@D@I@F@D@F@D@D@D@r+r+r+D@E@E@E@D@r+r+F@D@F@r+r+r+r+r+r+r+r+r+r+r+r+r+",
"r+r+r+r+r+F@F@D@D@D@D@D@D@D@E@E@E@E@D@E@F@D@D@F@r+r+r+F@F@D@F@r+D@F@r+r+E@r+r+D@D@E@E@E@E@E@D@D@F@r+r+r+r+r+r+r+r+r+r+F@F@F@r+r+",
"r+r+r+r+r+r+r+F@F@E@E@E@E@E@E@D@E@D@D@E@D@D@E@F@r+r+r+r+F@D@r+D@r+r+r+D@E@D@D@F@r+r+H@D@E@E@E@D@F@F@F@F@r+r+r+r+F@F@E@E@D@r+r+r+",
"E@E@E@E@E@E@E@D@D@I@E@E@E@D@F@D@D@E@E@E@E@E@E@E@E@E@F@F@F@F@F@F@r+r+r+D@D@r+r+r+r+r+D@D@D@D@E@E@E@E@E@D@F@F@D@D@F@D@F@r+r+r+r+D@",
"r+r+r+D@D@D@E@E@E@E@E@r+r+r+r+r+F@r+r+r+F@r+r+r+F@D@E@I@D@D@E@F@r+r+r+F@F@r+r+r+r+r+r+r+F@D@E@E@E@I@E@E@E@F@F@D@D@r+r+r+r+r+r+r+",
"r+r+r+D@F@r+r+J@E@F@D@D@r+r+r+r+r+r+r+r+r+r+r+r+r+r+r+D@E@D@F@D@E@E@E@E@D@D@F@r+r+r+r+r+D@E@F@D@E@E@F@r+E@D@F@r+r+r+r+r+r+r+r+r+",
"r+r+r+r+D@E@E@E@r+r+F@F@D@F@r+r+r+r+r+r+r+r+r+r+r+F@D@E@E@D@D@D@I@D@F@D@F@D@D@r+r+r+r+r+r+D@E@E@E@E@E@E@E@E@E@D@D@D@F@r+r+r+r+r+",
"E@I@E@E@E@E@D@E@E@E@r+r+r+F@D@F@r+r+r+r+r+r+r+D@E@E@D@F@F@F@F@I@F@F@F@D@F@r+r+r+r+r+r+r+r+D@E@D@E@E@E@E@E@E@E@E@E@E@E@D@D@D@D@D@",
"E@E@E@E@E@E@E@E@F@F@F@r+r+r+r+F@D@F@r+r+r+r+r+r+r+D@r+r+r+r+r+r+F@D@E@D@r+r+r+r+r+r+r+r+D@E@D@D@D@E@E@E@E@E@E@E@E@E@E@E@E@E@E@E@",
"D@D@D@F@r+r+r+r+r+D@r+r+r+r+r+r+r+F@D@D@D@r+r+r+E@D@r+r+r+r+r+r+r+F@F@E@E@E@r+r+r+r+r+F@D@D@F@r+r+D@F@D@E@E@E@E@E@E@D@E@D@D@D@D@",
"D@F@D@F@r+r+r+r+r+D@D@D@D@E@E@D@r+r+r+r+r+r+F@E@D@D@r+r+r+r+r+F@D@D@r+r+r+D@D@D@D@r+r+D@D@r+r+r+E@F@r+r+r+r+r+F@E@E@E@E@D@D@D@D@",
"D@D@F@r+r+r+r+r+r+F@F@D@D@F@r+r+r+r+r+F@D@E@E@F@E@F@F@r+r+r+r+F@D@E@F@r+r+F@F@r+D@D@r+r+r+r+r+r+F@E@D@r+r+F@F@E@F@D@D@F@D@D@D@D@",
"D@D@F@F@F@D@D@D@D@F@F@r+r+r+r+r+r+F@D@D@E@E@F@E@E@E@F@D@F@r+r+r+r+r+F@D@F@D@D@r+r+r+D@D@r+r+r+D@E@E@D@D@D@D@F@E@E@I@D@D@F@F@r+F@",
"D@D@D@D@E@D@r+r+r+r+r+r+r+D@D@D@I@D@E@E@D@r+E@E@E@F@r+D@E@F@F@D@r+r+r+r+F@D@D@D@r+r+r+D@r+r+r+r+r+r+r+r+E@F@r+F@D@D@D@F@F@r+r+D@",
"D@F@F@D@D@D@D@r+r+r+r+r+D@D@E@E@D@E@E@E@F@I@E@I@D@r+r+D@D@D@E@r+r+r+r+r+r+r+F@D@D@r+r+D@r+r+r+r+r+r+F@D@D@r+r+r+r+r+r+F@F@D@D@D@",
"F@F@F@F@F@F@D@E@E@D@r+E@E@D@r+r+F@E@E@E@D@D@E@D@F@r+r+E@E@D@r+r+r+r+r+r+r+r+r+D@r+D@D@D@r+F@r+r+r+F@D@F@r+r+r+r+r+r+r+r+r+D@F@D@",
"F@D@D@r+r+D@F@r+F@D@D@F@r+F@E@E@E@E@E@E@E@E@D@E@D@E@D@E@E@F@r+r+r+r+r+r+r+r+r+r+r+r+D@E@D@F@D@F@D@F@E@F@r+r+r+r+F@D@r+r+r+D@F@r+",
"r+r+D@D@D@D@E@E@r+r+r+r+E@E@E@E@E@E@E@E@E@E@E@E@E@E@E@E@E@E@E@E@E@E@E@G@D@D@D@D@D@E@E@D@E@D@D@D@F@D@D@D@r+r+r+D@D@D@r+r+r+r+D@F@",
"E@F@r+r+r+r+F@D@D@F@r+E@E@E@E@E@E@D@D@D@D@F@E@F@D@D@D@D@E@F@F@F@F@F@F@D@D@D@D@D@E@E@E@E@E@E@E@D@D@E@D@E@E@D@D@r+E@D@D@D@r+r+D@E@",
"E@E@D@F@r+F@F@D@D@D@D@E@E@E@D@D@D@D@E@E@E@D@F@D@E@E@r+F@F@r+r+r+r+r+r+r+F@D@E@E@E@E@E@D@F@r+I@E@E@E@E@D@D@D@F@D@E@E@E@D@F@E@F@r+",
"E@E@E@E@E@G@G@E@E@D@E@E@D@D@D@E@E@D@E@F@F@F@D@D@D@D@D@E@E@F@r+r+r+r+F@E@E@D@D@E@D@r+r+r+r+D@D@F@E@E@E@E@E@E@E@E@E@E@E@E@E@E@E@D@",
"D@D@D@D@E@E@D@F@r+r+F@r+F@D@F@r+F@I@E@F@F@F@F@F@F@F@F@F@F@F@r+r+r+r+D@F@r+r+D@F@r+r+r+r+F@D@r+r+r+r+D@E@E@E@E@D@H@E@E@E@E@E@D@E@",
"D@r+r+r+r+D@E@E@D@r+r+r+r+r+F@D@D@F@D@r+r+r+r+r+r+r+r+r+r+r+r+r+r+r+r+r+r+r+F@r+r+r+r+r+D@r+r+r+r+E@E@D@F@r+r+r+F@D@F@r+D@F@D@D@",
"D@D@r+r+r+r+F@E@E@r+r+r+r+r+r+r+r+F@D@D@r+r+r+r+r+r+r+r+r+r+r+r+r+r+r+r+r+r+r+r+r+r+r+r+r+r+r+r+F@D@r+r+r+r+r+r+r+r+r+r+r+r+r+D@",
"F@D@D@r+r+r+r+r+r+r+r+r+r+r+r+r+r+r+r+D@D@r+r+r+r+r+r+r+r+r+r+r+r+r+r+r+r+r+r+r+r+r+r+r+r+r+r+r+F@r+r+r+r+r+r+r+r+r+r+r+r+r+r+r+",
"r+F@F@r+r+r+r+r+r+r+r+r+r+r+r+r+r+r+r+r+r+r+r+r+r+r+r+r+r+r+r+r+r+r+r+r+r+r+r+r+r+r+r+r+r+r+r+r+r+r+r+r+r+r+r+r+r+r+r+r+r+r+r+r+",
"r+r+r+r+r+r+r+r+r+r+r+r+r+r+r+r+r+r+r+r+r+r+r+r+r+r+r+r+r+r+r+r+r+r+r+r+r+r+r+r+r+r+r+r+r+r+r+r+r+r+r+r+r+r+r+r+r+r+r+r+r+r+r+r+",
"r+r+r+r+r+r+r+r+r+r+r+r+r+r+r+r+r+r+r+r+r+r+r+r+r+r+r+r+r+r+r+r+r+r+r+r+r+r+r+r+r+r+r+r+r+r+r+r+r+r+r+r+r+r+r+r+r+r+r+r+r+r+r+r+",
"K@L@L@M@N@O@P@Q@R@S@S@T@U@V@W@X@Y@Z@`@ #.#+#@#####$#%#&#*#=#-#U@;#>#,#V@'#)#!#~#{#]#'#S@^#/#~#^#o (#^#^#'#_#:#(#<#[#}#|#1#2#2#3#",
"4#5#6##+7#8#9#0#-+a#b#c#d#e#f#g#h#i#j#k#l#m#6.n#o#p#q#r#s#t#q#u#v#w#-+x#y#z#A#B#C#D#E#D#F#T+G#H#I#J#P+P+K#L#M#Z C#x@N#O#P#Q#R#S#",
"T#U#V#W#X#Y#Z#`# $.$+$@$#$$$%$&$*$=$-$;$>$,$'$)$!$~${$]$B.^$J./$($_$:$$.<$b#[$}$|$W k.1$ .#@2$3$4$5$z#6$7$` 8$9$0$a$b$c$d$e$f$W ",
"x@g$h$i$t j$k$l$m$n$%@o$b+p$q$r$s$H t$v+u$%@p$v$w$x$y$z$A$T B$C$D$E${$F$G$H$I$J$w$K$d.L$M$N$R#O$P$Q$R$S$`+K#X T$U$V$2$W$X$e$6+Y$",
"Z$`$ %.%i$X.+%a+@%#%D+$%%%&%]$*%=.=%-%;%%$>%,%U+Q.G.'%E+)%S b#I#!%~%[+{%y#]%^%~%/%(%[+_%L$$@:%<%[%}%|%U+T+H$1%2%3%x@4%5%R#6%7%8%",
"9%0%a%b%c%d%e%f%g%h%d$i%j%k%N.l%m%n%o%9+j.p%q%r%Q$s%t%u%v%w%x%y%x$z%A%B%C%D%E%F%G%H%I%5@v@v@J%K%L%M%t%N%O%P%Q%R%S%T%v@U%V%W%X%Y%"};
