/* XPM */
static char * wall_xpm[] = {
"64 64 21 1",
" 	c #F5DAB7",
".	c #F4D9B7",
"+	c #F4D9B6",
"@	c #F3D9B6",
"#	c #F3D8B6",
"$	c #F2D8B6",
"%	c #F1D6B2",
"&	c #F3D8B5",
"*	c #F1D6B3",
"=	c #F2D8B5",
"-	c #F4DAB7",
";	c #632D1D",
">	c #703825",
",	c #683120",
"'	c #5E2A1A",
")	c #713926",
"!	c #723C28",
"~	c #7E442F",
"{	c #C57E6A",
"]	c #92573F",
"^	c #AE6B4D",
"                                                                ",
"                                                                ",
"                                                                ",
"                                                        ...+..@#",
"...                                              ..@..@#$$$$$$$$",
"$$$#@+++...................+...+..........+++@##$$$$$$$$$$$$$#@.",
"#$$$$$$$$$$$$$$$$$$$$$$$$$$$$$$$$$$$$$$$$$$$$$$$$$$$$#@....+.   ",
" ...+++@####$$$$$$$$$$$$$$$$$$#@#$$$$$$$$$@#@+.......           ",
"             ..............+.     ........                      ",
"                                                                ",
"                                                                ",
"                                                                ",
"                                    ..+++                       ",
"                                 .+#$$$$$+                      ",
"                                @$$$$$@++                       ",
"                          +   .$$$#+..                          ",
"                         +%&.@$$$+                              ",
"                         +*=$$$#.                   .           ",
"                        -.$$$@.                    @$#          ",
"                       -$$$#.                     .$$@          ",
"                        ++.                       $$$+          ",
"                                                 $$$#           ",
"                                 ............  .$$$#            ",
"        &&              @####$$.#$$$$$$$$$$$$##$$$#             ",
"       +%%+            #$$$$$$$$$$$$$$$$$$$$$$$$$#              ",
"        ++            +$#..#$$$$$$$$$$@@@@@@$$$#.               ",
"                       +    +#@+.@#$$$$$$$$$$$.                 ",
"                                   ...@###@$@                   ",
"                                           -                    ",
"                                                                ",
"                                                                ",
"                                                                ",
"                                                                ",
"...                                                             ",
"$$$@+++.............. .    ........        ......    @....+#@###",
"$$$$$$$$$$$$$$$$$$$$$$$$##$$$$$$$$$$######$$$$$$$@##$$$$$$$$$$$$",
"...+++@###$$$$$$$$$$$$$$$$$$$$$$$$$$$$$$$$$$$$$$$$$$$$$$$$#++...",
"           ......................................+........      ",
"                                                                ",
";>>,>,;>>''>>,>;,,>>;>,>;>>'>>;>;>>,>>;>>'>>;>>;,>'>;>>,;>)!~);,",
">,>,,>>','>>;;,>>,'>>;,,,'>>;>>';>>';>,,,,>>,,>>',>>,>;',',>>;,>",
"{{{{{{{;>]{{{{{{{{{{{{{>;^^^{{{{{{{{{{{>>^^^^^^{{{{{{{{>>]^^^{{{",
"^^^{{{{>>]^^^^{{{{{^{{{>>]^^^^{{{{^^{{{>;^^^^^^^^{^^^{{>;]^^^^{^",
"^^^^^^{>']]^^^^^^^^^^{{',]^^^^^^^^^^^{{'>]^^^^^^{^^^^^{'>]]^^^^^",
"^^^^^^{,>]]]^^^^^^^^^{{>']^^^^^^]]^^^{{,>]^^^^^^^^^^^^^>']]^^^^^",
"^^^]^^^;>]]]]]]^^^^^]]{>>]]]]]^]^^^^^^{>;]]]^^^]]]]^^{{>;]]]^^^^",
"]]]]]^^>;]]]]]]]]]]]]]];;]]]]]]]]]]]^^^;;]]]]]]]]]^^^^^;>]]]]]]]",
">,>>>>,>,'>>>';>>';>>';,,>>;>>;,>>;>>'>>>;>>,;>>'>;>;>>;,>>;'>;>",
";'>'>;;>>''>,;>>,,>>,;>>;;>>';>;;>'>,>>,,>>>,>>;,,>>,;>>;;>>';>;",
"'^^^{{{{{{{{{{{'>^^^^^^^{{{{{{{>>]{{{{{{{{{{{{{>;]^^^{{{{{{{{{{>",
">]^^^{{{^^^^{{{>>^^^^^^^^^^{^{{;>]^^{^^^^^^^{{{>>]^^]^^^^^^^^{{>",
">]^^^^^^^^^^^{{;']^^^^^^^^^{^^{>;]]^^^^^^^^^^^{;>]]]^^^^^^^^^^{;",
";]]^^^^^^^^]^^{>,]^^^^^^^^^^^^{';]]^^^^]^^^^^^{;,]]^^^^^^^^]^^{>",
">]]]]]]]^^]]^^{>>]]^^^^^^]]^^^^>>]]]^^^^]^^^^^{>>]]]]^^^^^]]^^^>",
"']]]]]]]]]]]]^^'>]]]]]]]]]^^^^^>>]]]]]]]]]]]]{{>>]]]]]]]]]]]]]];",
";>>,>,;>>''>>,>;,>>';>,,>>'>,>>,;,>>;>>,,>';>>';,,>';>>,>;>',>>,",
">,>>,>>',>>,>>>'>>''>>,>>'>>;;,>>>''>;,>>,>>,>>;'>>,>>;>,'>,>>,>",
"{{{{{{{>;^^^^^^{{{{{{{{;>]^^^{{{{{{{{{{>;]{{{{{{{{{{{{{>>^^^{{{{",
"{{^^{{{>>^^^^^^^^{^^^{{>;]^^^^{^^^^{{{{'>]^^^^{{{{{^{{{;>]^^^^{{",
"^^^^^{{'>]^^^^^^{^^^^^{>,]]^^^^^^^^^^^{;>]]^^^^^^^^^^{{>,]^^^^^^",
"]]^^^{{>']^^^^^^^^^^^^^,>]]^^^^^^^^^^^{>,]]]^^^^^^^^^{{>']^^^^^^",
"^^^^^^{,;]]]^^^]]]]^^{{;>]]]^^^^^^^]^^^>;]]]]]]^^^^^]]{,>]]]]]^]",
"]]]]^^^>>]]]]]]]]]^^^^^>;]]]]]]]]]]]]^^>>]]]]]]]]]]]]]]>;]]]]]]]",
"'>>;>',>,>>>''>>''>>'>;>,>>;>>;>''>,>>>,>;;>>;>'>>;;>>,;,>>;'>>,"};
