/* XPM */
static char * wall3_xpm[] = {
"64 64 630 2",
"  	c #C39283",
". 	c #C5C4C1",
"+ 	c #C5C3C0",
"@ 	c #C4C0BD",
"# 	c #C4BDB9",
"$ 	c #C4B6B2",
"% 	c #C5B7B2",
"& 	c #C4ADA6",
"* 	c #C4AAA1",
"= 	c #C4A195",
"- 	c #C4A499",
"; 	c #C4ACA4",
"> 	c #C4A99F",
", 	c #C4A397",
"' 	c #C49F93",
") 	c #C3A298",
"! 	c #C39C90",
"~ 	c #C4A298",
"{ 	c #C3988C",
"] 	c #C29B91",
"^ 	c #C39B8F",
"/ 	c #C29386",
"( 	c #C1968B",
"_ 	c #C39C91",
": 	c #C2978D",
"< 	c #C29285",
"[ 	c #C29488",
"} 	c #C2988C",
"| 	c #C19183",
"1 	c #C28A7B",
"2 	c #C28775",
"3 	c #C29588",
"4 	c #C18B7C",
"5 	c #C18777",
"6 	c #C18C7D",
"7 	c #C18C7C",
"8 	c #C18F80",
"9 	c #C1897A",
"0 	c #C08C7C",
"a 	c #C19184",
"b 	c #C18E7D",
"c 	c #C0897A",
"d 	c #C18A7A",
"e 	c #C18979",
"f 	c #C18F81",
"g 	c #C1978B",
"h 	c #C2998D",
"i 	c #C28D7D",
"j 	c #C18675",
"k 	c #C29081",
"l 	c #C29F95",
"m 	c #C3978A",
"n 	c #C18D7E",
"o 	c #C19284",
"p 	c #C1988B",
"q 	c #AB553E",
"r 	c #B87F6B",
"s 	c #B67561",
"t 	c #B88676",
"u 	c #B99283",
"v 	c #BC9E93",
"w 	c #BB9D93",
"x 	c #BDA39B",
"y 	c #BE8F80",
"z 	c #B77562",
"A 	c #B98776",
"B 	c #B56E59",
"C 	c #B8806E",
"D 	c #B77A68",
"E 	c #A5614A",
"F 	c #8E5745",
"G 	c #A9604A",
"H 	c #8B5746",
"I 	c #A9624C",
"J 	c #A5604A",
"K 	c #AC624B",
"L 	c #A05D48",
"M 	c #8A5746",
"N 	c #8D5646",
"O 	c #A25946",
"P 	c #935947",
"Q 	c #905746",
"R 	c #8E5847",
"S 	c #A5614D",
"T 	c #B46B54",
"U 	c #A35F49",
"V 	c #815244",
"W 	c #745044",
"X 	c #A3604A",
"Y 	c #885746",
"Z 	c #985A47",
"` 	c #935A47",
" .	c #985B49",
"..	c #835445",
"+.	c #8C5646",
"@.	c #AD644C",
"#.	c #855546",
"$.	c #7F5446",
"%.	c #A15C49",
"&.	c #AC624C",
"*.	c #7F5245",
"=.	c #805447",
"-.	c #905848",
";.	c #9B5B49",
">.	c #A15E4A",
",.	c #9B5C49",
"'.	c #905748",
").	c #795145",
"!.	c #835446",
"~.	c #A35E4A",
"{.	c #B56A53",
"].	c #9E5C4A",
"^.	c #AA624D",
"/.	c #905948",
"(.	c #A25F4A",
"_.	c #634B43",
":.	c #C3A49A",
"<.	c #B0644C",
"[.	c #A9634E",
"}.	c #B3715C",
"|.	c #B47E6E",
"1.	c #B99184",
"2.	c #BB9C90",
"3.	c #C6BBB8",
"4.	c #C9A49A",
"5.	c #8E5646",
"6.	c #AE654E",
"7.	c #B67A68",
"8.	c #B78475",
"9.	c #B5735E",
"0.	c #A35F4A",
"a.	c #C7A398",
"b.	c #9F4D38",
"c.	c #5F4A42",
"d.	c #875747",
"e.	c #B7715B",
"f.	c #AB634C",
"g.	c #B5654B",
"h.	c #C5907F",
"i.	c #C7654A",
"j.	c #895948",
"k.	c #AF634C",
"l.	c #A7624D",
"m.	c #C8998B",
"n.	c #6F4535",
"o.	c #6B4E44",
"p.	c #8E5749",
"q.	c #7A5447",
"r.	c #955A47",
"s.	c #A6614D",
"t.	c #855848",
"u.	c #C5725B",
"v.	c #C6593B",
"w.	c #634A42",
"x.	c #875848",
"y.	c #765146",
"z.	c #7E5446",
"A.	c #A15E4B",
"B.	c #9F5D49",
"C.	c #C68672",
"D.	c #9B4D37",
"E.	c #5B4942",
"F.	c #7B5448",
"G.	c #A05E4B",
"H.	c #A3604D",
"I.	c #8E5849",
"J.	c #875647",
"K.	c #C3705A",
"L.	c #BF573A",
"M.	c #544742",
"N.	c #8E584A",
"O.	c #855748",
"P.	c #694E45",
"Q.	c #895849",
"R.	c #4B4641",
"S.	c #C4B4AE",
"T.	c #B77B68",
"U.	c #8D5949",
"V.	c #955B4A",
"W.	c #B57663",
"X.	c #B89284",
"Y.	c #BCA298",
"Z.	c #BD7763",
"`.	c #74473A",
" +	c #8B5647",
".+	c #B68372",
"++	c #B7806E",
"@+	c #BA978B",
"#+	c #B98A79",
"$+	c #B36B55",
"%+	c #774D3F",
"&+	c #2C3233",
"*+	c #6F4F45",
"=+	c #975B4A",
"-+	c #B46953",
";+	c #B4664D",
">+	c #B56B54",
",+	c #B3644B",
"'+	c #724D41",
")+	c #393938",
"!+	c #7C5043",
"~+	c #955B49",
"{+	c #AD634D",
"]+	c #A5624C",
"^+	c #945947",
"/+	c #7E5346",
"(+	c #58433C",
"_+	c #23292A",
":+	c #6B4D44",
"<+	c #825547",
"[+	c #8A5747",
"}+	c #755346",
"|+	c #54453E",
"1+	c #2D3131",
"2+	c #4C4541",
"3+	c #755246",
"4+	c #644B43",
"5+	c #765246",
"6+	c #6C4A3F",
"7+	c #282D2D",
"8+	c #6E4E44",
"9+	c #905849",
"0+	c #915949",
"a+	c #AF634E",
"b+	c #795347",
"c+	c #57463F",
"d+	c #2B3030",
"e+	c #584742",
"f+	c #965A4A",
"g+	c #805549",
"h+	c #7A5346",
"i+	c #684D44",
"j+	c #7D5547",
"k+	c #5A4842",
"l+	c #C4AEA6",
"m+	c #B87964",
"n+	c #795346",
"o+	c #925C4A",
"p+	c #B47763",
"q+	c #B9A298",
"r+	c #BEB5B1",
"s+	c #BDACA6",
"t+	c #B98574",
"u+	c #B67560",
"v+	c #B78675",
"w+	c #BA9486",
"x+	c #BB998D",
"y+	c #BA8E7F",
"z+	c #B77F6F",
"A+	c #B88472",
"B+	c #B66B53",
"C+	c #A3624C",
"D+	c #925B4A",
"E+	c #B3654E",
"F+	c #AC634D",
"G+	c #B66F57",
"H+	c #B56C54",
"I+	c #A35E48",
"J+	c #A25C47",
"K+	c #A4614B",
"L+	c #B56B53",
"M+	c #A5624D",
"N+	c #955B48",
"O+	c #985B48",
"P+	c #9A5A48",
"Q+	c #8A5646",
"R+	c #865747",
"S+	c #7E5648",
"T+	c #795246",
"U+	c #895747",
"V+	c #775347",
"W+	c #664C44",
"X+	c #6C4E44",
"Y+	c #584843",
"Z+	c #8C5848",
"`+	c #9A5B48",
" @	c #955A49",
".@	c #9A5B4B",
"+@	c #B1644E",
"@@	c #7E5548",
"#@	c #715045",
"$@	c #915A49",
"%@	c #7C5548",
"&@	c #7D5549",
"*@	c #905A4B",
"=@	c #634A43",
"-@	c #C3ACA4",
";@	c #B99183",
">@	c #B36952",
",@	c #B57763",
"'@	c #B79689",
")@	c #B97663",
"!@	c #B05E46",
"~@	c #AB5A45",
"{@	c #8A5342",
"]@	c #714D43",
"^@	c #7B4F41",
"/@	c #724D40",
"(@	c #7C4E40",
"_@	c #6B4B40",
":@	c #594941",
"<@	c #714C40",
"[@	c #6D4C41",
"}@	c #594740",
"|@	c #4B4340",
"1@	c #5A4740",
"2@	c #47423F",
"3@	c #58463F",
"4@	c #59483F",
"5@	c #4D433E",
"6@	c #383E3E",
"7@	c #3C403D",
"8@	c #3D403D",
"9@	c #56463F",
"0@	c #4A433F",
"a@	c #4E453F",
"b@	c #41413E",
"c@	c #3A3E3C",
"d@	c #41403E",
"e@	c #333E3D",
"f@	c #343F3E",
"g@	c #3A403E",
"h@	c #2A3739",
"i@	c #283739",
"j@	c #263334",
"k@	c #2B3A3C",
"l@	c #2C3A3B",
"m@	c #2F3C3C",
"n@	c #4B433F",
"o@	c #3E3F3E",
"p@	c #53443F",
"q@	c #49423F",
"r@	c #45423F",
"s@	c #554540",
"t@	c #534440",
"u@	c #534540",
"v@	c #434240",
"w@	c #3D403F",
"x@	c #2F3B3D",
"y@	c #BC6852",
"z@	c #7B5547",
"A@	c #825648",
"B@	c #795448",
"C@	c #514743",
"D@	c #C3A399",
"E@	c #B7806C",
"F@	c #B67D6B",
"G@	c #B99286",
"H@	c #B88D80",
"I@	c #BFA097",
"J@	c #C2B4AF",
"K@	c #C2ABA4",
"L@	c #C2A59D",
"M@	c #C1A69F",
"N@	c #C2B1AD",
"O@	c #C2AAA2",
"P@	c #C2A9A1",
"Q@	c #C3B7B3",
"R@	c #C3BDBB",
"S@	c #C3C5C2",
"T@	c #C4C7C7",
"U@	c #C4CBCC",
"V@	c #C2C5C3",
"W@	c #C3C5C5",
"X@	c #C2BEBB",
"Y@	c #C2BDBA",
"Z@	c #C2B3AE",
"`@	c #C2B2AD",
" #	c #C2B5B0",
".#	c #C3BDBA",
"+#	c #C3B6B0",
"@#	c #C2ACA5",
"##	c #C2A79F",
"$#	c #C2B4AE",
"%#	c #C2AFA9",
"&#	c #C2B1AC",
"*#	c #C1A299",
"=#	c #C1A8A1",
"-#	c #C19E93",
";#	c #C1A59D",
">#	c #C2ADA6",
",#	c #C1A9A1",
"'#	c #C1A399",
")#	c #C19F93",
"!#	c #C1A097",
"~#	c #C19F94",
"{#	c #C1A49B",
"]#	c #C19D91",
"^#	c #C19A8F",
"/#	c #755245",
"(#	c #7A5246",
"_#	c #6B4E45",
":#	c #765347",
"<#	c #4A4440",
"[#	c #BA9184",
"}#	c #B9968A",
"|#	c #B88878",
"1#	c #B4705B",
"2#	c #A9644F",
"3#	c #A1604C",
"4#	c #875849",
"5#	c #8F5949",
"6#	c #A7624E",
"7#	c #B46E59",
"8#	c #B6715B",
"9#	c #B6715C",
"0#	c #B67969",
"a#	c #B88672",
"b#	c #B9988C",
"c#	c #B67F6D",
"d#	c #B47967",
"e#	c #B16852",
"f#	c #A7634E",
"g#	c #935C49",
"h#	c #965C4B",
"i#	c #935B49",
"j#	c #AB644E",
"k#	c #B3654F",
"l#	c #965B49",
"m#	c #A35F4C",
"n#	c #B0634C",
"o#	c #B4644B",
"p#	c #8F5849",
"q#	c #8E5948",
"r#	c #925948",
"s#	c #8F5748",
"t#	c #995A49",
"u#	c #8E5747",
"v#	c #925B49",
"w#	c #895847",
"x#	c #995B49",
"y#	c #7F5547",
"z#	c #855447",
"A#	c #735145",
"B#	c #7A5247",
"C#	c #915B48",
"D#	c #955A48",
"E#	c #9E5E49",
"F#	c #825546",
"G#	c #7C5146",
"H#	c #534842",
"I#	c #614B43",
"J#	c #684E45",
"K#	c #3C3F3F",
"L#	c #C1A29A",
"M#	c #B57E6C",
"N#	c #B78371",
"O#	c #B36C55",
"P#	c #905B4B",
"Q#	c #C17A65",
"R#	c #C55D3F",
"S#	c #594843",
"T#	c #86584A",
"U#	c #AD634E",
"V#	c #B36853",
"W#	c #B36A55",
"X#	c #B36953",
"Y#	c #C5A49A",
"Z#	c #AD523A",
"`#	c #B2634B",
" $	c #B6806E",
".$	c #B77F6D",
"+$	c #A1634F",
"@$	c #AC654F",
"#$	c #B3705B",
"$$	c #C18879",
"%$	c #B8573C",
"&$	c #5E4B43",
"*$	c #8A584B",
"=$	c #9E5D4B",
"-$	c #C59486",
";$	c #7F4839",
">$	c #865346",
",$	c #725146",
"'$	c #845648",
")$	c #A15E49",
"!$	c #C2745F",
"~$	c #BE593C",
"{$	c #8D5748",
"]$	c #5F4B44",
"^$	c #C4715B",
"/$	c #884939",
"($	c #755044",
"_$	c #815548",
":$	c #835547",
"<$	c #A5614B",
"[$	c #C2705A",
"}$	c #BF583B",
"|$	c #574841",
"1$	c #684E44",
"2$	c #484341",
"3$	c #534743",
"4$	c #674D44",
"5$	c #714E45",
"6$	c #393F3F",
"7$	c #B3705A",
"8$	c #B88A7A",
"9$	c #B36D56",
"0$	c #A26350",
"a$	c #854E3F",
"b$	c #453A36",
"c$	c #494441",
"d$	c #B36B56",
"e$	c #A8624E",
"f$	c #B2654E",
"g$	c #96503C",
"h$	c #483A35",
"i$	c #B5745F",
"j$	c #B5725D",
"k$	c #7E4C3D",
"l$	c #4B3B35",
"m$	c #484441",
"n$	c #725246",
"o$	c #A4614E",
"p$	c #B87662",
"q$	c #8B5748",
"r$	c #854A39",
"s$	c #2E302F",
"t$	c #744F44",
"u$	c #775247",
"v$	c #8A5848",
"w$	c #985C49",
"x$	c #835748",
"y$	c #7A493C",
"z$	c #5B4640",
"A$	c #7C5447",
"B$	c #8E5848",
"C$	c #6C4E45",
"D$	c #5B4039",
"E$	c #2F3030",
"F$	c #654B43",
"G$	c #8D5847",
"H$	c #895749",
"I$	c #8C4F3E",
"J$	c #4D3B35",
"K$	c #42403F",
"L$	c #4B4642",
"M$	c #745146",
"N$	c #C1A49D",
"O$	c #B78B7E",
"P$	c #B67F6A",
"Q$	c #B88B7A",
"R$	c #A6654F",
"S$	c #6A4F45",
"T$	c #785347",
"U$	c #B56D57",
"V$	c #A9624E",
"W$	c #8D584A",
"X$	c #A15D49",
"Y$	c #B46851",
"Z$	c #B4715D",
"`$	c #B46F59",
" %	c #9C5E4B",
".%	c #A3604C",
"+%	c #895848",
"@%	c #B87865",
"#%	c #614B44",
"$%	c #855547",
"%%	c #875648",
"&%	c #835647",
"*%	c #795547",
"=%	c #6D4D44",
"-%	c #6E5045",
";%	c #705045",
">%	c #664D45",
",%	c #504541",
"'%	c #554842",
")%	c #7C5346",
"!%	c #8F5948",
"~%	c #A05C48",
"{%	c #875546",
"]%	c #564843",
"^%	c #6A4F47",
"/%	c #474341",
"(%	c #4F4642",
"_%	c #5C4943",
":%	c #6C4F46",
"<%	c #3D3F3D",
"[%	c #BF634B",
"}%	c #9B5944",
"|%	c #845445",
"1%	c #9A5844",
"2%	c #9C5844",
"3%	c #8A5644",
"4%	c #725044",
"5%	c #785245",
"6%	c #5B4A43",
"7%	c #4D4641",
"8%	c #714E43",
"9%	c #764E43",
"0%	c #604942",
"a%	c #744E42",
"b%	c #674C43",
"c%	c #734E43",
"d%	c #795043",
"e%	c #594943",
"f%	c #5B4943",
"g%	c #4C4641",
"h%	c #4F4640",
"i%	c #484440",
"j%	c #734D42",
"k%	c #7E4F42",
"l%	c #674A42",
"m%	c #524641",
"n%	c #42433F",
"o%	c #544640",
"p%	c #584840",
"q%	c #4F4541",
"r%	c #5B4841",
"s%	c #614740",
"t%	c #46433F",
"u%	c #504641",
"v%	c #634941",
"w%	c #373F3E",
"x%	c #4E4540",
"y%	c #3A3F3E",
"z%	c #393E3D",
"A%	c #393E40",
"B%	c #484340",
"C%	c #524740",
"D%	c #594741",
"E%	c #5A4741",
"F%	c #383E3F",
"G%	c #4D4540",
"H%	c #5E4840",
"I%	c #2C3B3C",
"J%	c #2D3B3C",
"K%	c #333D3E",
"L%	c #383F40",
"M%	c #273334",
"  . + @ # # $ % & * = - ; > , ' ) ! ~ { ] ^ / ( _ : < [ [ } | 1 2 3 4 5 6 7 8 7 8 4 | 9 7 0 a b c d e f g h i j k l m n o } p q ",
") r s t u v w x y z A B C D E F G H I J K L M N O P Q R S T U V W X I Y Z `  ...+.L @.#.$.%.&.P *.=.-.;.>.,.'.).!.~.{.].^./.(._.",
":.<.[.}.|.1.2.3.4.5.6.7.8.9.0.a.b.c.d.d.e.f.g.h.i._.j.k.l.l.-.m.n.o.p.q.r.s.t.u.v.w.x.y.z.A.B.C.D.E.F.G.H.I.J.K.L.M.].N.O.P.Q.R.",
"S.T.U.V.W.X.Y.Z.`. +.+++@+#+$+%+&+*+=+-+;+>+,+'+)+!+~+{+]+^+/+(+_+:+O.<+[+t.}+|+1+2+3+4+5+].>.6+7+8+9+0+a+A.b+c+d+e+f+g+h+i+j+k+",
"l+m+n+o+p+q+r+s+t+u+v+w+x+y+z+A+B+C+D+E+F+G+H+I+J+K+U.L+M+N+O+P+Q+R+S+T+U+d.V+W+X+W+3+Y+T+Z+>.`+/+ @I..@+@H.=+@@#@O.$@%@&@*@0+=@",
"-@;@>@,@'@)@!@~@{@]@^@/@(@_@:@<@[@}@|@1@2@3@4@5@6@7@8@3@9@5@0@a@b@c@d@e@f@g@f@h@i@j@k@l@m@2@n@a@o@p@q@r@s@t@u@v@w@x@y@z@A@$@B@C@",
"r+r+r+r+r+r+r+r+r+r+r+r+r+r+r+r+r+r+r+r+r+r+r+r+r+r+r+r+r+r+r+r+r+r+r+r+r+r+r+r+r+r+r+r+r+r+r+r+r+r+r+r+r+r+r+r+r+r+r+r+r+r+r+r+",
"r+r+r+r+r+r+r+r+r+r+r+r+r+r+r+r+r+r+r+r+r+r+r+r+r+r+r+r+r+r+r+r+r+r+r+r+r+r+r+r+r+r+r+r+r+r+r+r+r+r+r+r+r+r+r+r+r+r+r+r+r+r+r+r+",
"r+r+r+r+r+r+r+r+r+r+r+r+r+r+r+r+r+r+r+r+r+r+r+r+r+r+r+r+r+r+r+r+r+r+r+r+r+r+r+r+r+r+r+r+r+r+r+r+r+r+r+r+r+r+r+r+r+r+r+r+r+r+r+r+",
"r+r+r+r+r+r+r+r+r+r+r+r+r+r+r+r+r+r+r+r+r+r+r+r+r+r+r+r+r+r+r+r+r+r+r+r+r+r+r+r+r+r+r+r+r+r+r+r+r+r+r+r+r+r+r+r+r+r+r+r+r+r+r+r+",
"r+r+r+r+r+r+r+r+r+r+r+r+r+r+r+r+r+r+r+r+r+r+r+r+r+r+r+r+r+r+r+r+r+r+r+r+r+r+r+r+r+r+r+r+r+r+r+r+r+r+r+r+r+r+r+r+r+r+r+r+r+r+r+r+",
"r+r+r+r+r+r+r+r+r+r+r+r+r+r+r+r+r+r+r+r+r+r+r+r+r+r+r+r+r+r+r+r+r+r+r+r+r+r+r+r+r+r+r+r+r+r+r+r+r+r+r+r+r+r+r+r+r+r+r+r+r+r+r+r+",
"r+r+r+r+r+r+r+r+r+r+r+r+r+r+r+r+r+r+r+r+r+r+r+r+r+r+r+r+r+r+r+r+r+r+r+r+r+r+r+r+r+r+r+r+r+r+r+r+r+r+r+r+r+r+r+r+r+r+r+r+r+r+r+r+",
"r+r+r+r+r+r+r+r+r+r+r+r+r+r+r+r+r+r+r+r+r+r+r+r+r+r+r+r+r+r+r+r+r+r+r+r+r+r+r+r+r+r+r+r+r+r+r+r+r+r+r+r+r+r+r+r+r+r+r+r+r+r+r+r+",
"r+r+r+r+r+r+r+r+r+r+r+r+r+r+r+r+r+r+r+r+r+r+r+r+r+r+r+r+r+r+r+r+r+r+r+r+r+r+r+r+r+r+r+r+r+r+r+r+r+r+r+r+r+r+r+r+r+r+r+r+r+r+r+r+",
"r+r+r+r+r+r+r+r+r+r+r+r+r+r+r+r+r+r+r+r+r+r+r+r+r+r+r+r+r+r+r+r+r+r+r+r+r+r+r+r+r+r+r+r+r+r+r+r+r+r+r+r+r+r+r+r+r+r+r+r+r+r+r+r+",
"r+r+r+r+r+r+r+r+r+r+r+r+r+r+r+r+r+r+r+r+r+r+r+r+r+r+r+r+r+r+r+r+r+r+r+r+r+r+r+r+r+r+r+r+r+r+r+r+r+r+r+r+r+r+r+r+r+r+r+r+r+r+r+r+",
"r+r+r+r+r+r+r+r+r+r+r+r+r+r+r+r+r+r+r+r+r+r+r+r+r+r+r+r+r+r+r+r+r+r+r+r+r+r+r+r+r+r+r+r+r+r+r+r+r+r+r+r+r+r+r+r+r+r+r+r+r+r+r+r+",
"r+r+r+r+r+r+r+r+r+r+r+r+r+r+r+r+r+r+r+r+r+r+r+r+r+r+r+r+r+r+r+r+r+r+r+r+r+r+r+r+r+r+r+r+r+r+r+r+r+r+r+r+r+r+r+r+r+r+r+r+r+r+r+r+",
"r+r+r+r+r+r+r+r+r+r+r+r+r+r+r+r+r+r+r+r+r+r+r+r+r+r+r+r+r+r+r+r+r+r+r+r+r+r+r+r+r+r+r+r+r+r+r+r+r+r+r+r+r+r+r+r+r+r+r+r+r+r+r+r+",
"r+r+r+r+r+r+r+r+r+r+r+r+r+r+r+r+r+r+r+r+r+r+r+r+r+r+r+r+r+r+r+r+r+r+r+r+r+r+r+r+r+r+r+r+r+r+r+r+r+r+r+r+r+r+r+r+r+r+r+r+r+r+r+r+",
"r+r+r+r+r+r+r+r+r+r+r+r+r+r+r+r+r+r+r+r+r+r+r+r+r+r+r+r+r+r+r+r+r+r+r+r+r+r+r+r+r+r+r+r+r+r+r+r+r+r+r+r+r+r+r+r+r+r+r+r+r+r+r+r+",
"r+r+r+r+r+r+r+r+r+r+r+r+r+r+r+r+r+r+r+r+r+r+r+r+r+r+r+r+r+r+r+r+r+r+r+r+r+r+r+r+r+r+r+r+r+r+r+r+r+r+r+r+r+r+r+r+r+r+r+r+r+r+r+r+",
"r+r+r+r+r+r+r+r+r+r+r+r+r+r+r+r+r+r+r+r+r+r+r+r+r+r+r+r+r+r+r+r+r+r+r+r+r+r+r+r+r+r+r+r+r+r+r+r+r+r+r+r+r+r+r+r+r+r+r+r+r+r+r+r+",
"r+r+r+r+r+r+r+r+r+r+r+r+r+r+r+r+r+r+r+r+r+r+r+r+r+r+r+r+r+r+r+r+r+r+r+r+r+r+r+r+r+r+r+r+r+r+r+r+r+r+r+r+r+r+r+r+r+r+r+r+r+r+r+r+",
"r+r+r+r+r+r+r+r+r+r+r+r+r+r+r+r+r+r+r+r+r+r+r+r+r+r+r+r+r+r+r+r+r+r+r+r+r+r+r+r+r+r+r+r+r+r+r+r+r+r+r+r+r+r+r+r+r+r+r+r+r+r+r+r+",
"r+r+r+r+r+r+r+r+r+r+r+r+r+r+r+r+r+r+r+r+r+r+r+r+r+r+r+r+r+r+r+r+r+r+r+r+r+r+r+r+r+r+r+r+r+r+r+r+r+r+r+r+r+r+r+r+r+r+r+r+r+r+r+r+",
"r+r+r+r+r+r+r+r+r+r+r+r+r+r+r+r+r+r+r+r+r+r+r+r+r+r+r+r+r+r+r+r+r+r+r+r+r+r+r+r+r+r+r+r+r+r+r+r+r+r+r+r+r+r+r+r+r+r+r+r+r+r+r+r+",
"r+r+r+r+r+r+r+r+r+r+r+r+r+r+r+r+r+r+r+r+r+r+r+r+r+r+r+r+r+r+r+r+r+r+r+r+r+r+r+r+r+r+r+r+r+r+r+r+r+r+r+r+r+r+r+r+r+r+r+r+r+r+r+r+",
"r+r+r+r+r+r+r+r+r+r+r+r+r+r+r+r+r+r+r+r+r+r+r+r+r+r+r+r+r+r+r+r+r+r+r+r+r+r+r+r+r+r+r+r+r+r+r+r+r+r+r+r+r+r+r+r+r+r+r+r+r+r+r+r+",
"r+r+r+r+r+r+r+r+r+r+r+r+r+r+r+r+r+r+r+r+r+r+r+r+r+r+r+r+r+r+r+r+r+r+r+r+r+r+r+r+r+r+r+r+r+r+r+r+r+r+r+r+r+r+r+r+r+r+r+r+r+r+r+r+",
"r+r+r+r+r+r+r+r+r+r+r+r+r+r+r+r+r+r+r+r+r+r+r+r+r+r+r+r+r+r+r+r+r+r+r+r+r+r+r+r+r+r+r+r+r+r+r+r+r+r+r+r+r+r+r+r+r+r+r+r+r+r+r+r+",
"r+r+r+r+r+r+r+r+r+r+r+r+r+r+r+r+r+r+r+r+r+r+r+r+r+r+r+r+r+r+r+r+r+r+r+r+r+r+r+r+r+r+r+r+r+r+r+r+r+r+r+r+r+r+r+r+r+r+r+r+r+r+r+r+",
"r+r+r+r+r+r+r+r+r+r+r+r+r+r+r+r+r+r+r+r+r+r+r+r+r+r+r+r+r+r+r+r+r+r+r+r+r+r+r+r+r+r+r+r+r+r+r+r+r+r+r+r+r+r+r+r+r+r+r+r+r+r+r+r+",
"r+r+r+r+r+r+r+r+r+r+r+r+r+r+r+r+r+r+r+r+r+r+r+r+r+r+r+r+r+r+r+r+r+r+r+r+r+r+r+r+r+r+r+r+r+r+r+r+r+r+r+r+r+r+r+r+r+r+r+r+r+r+r+r+",
"r+r+r+r+r+r+r+r+r+r+r+r+r+r+r+r+r+r+r+r+r+r+r+r+r+r+r+r+r+r+r+r+r+r+r+r+r+r+r+r+r+r+r+r+r+r+r+r+r+r+r+r+r+r+r+r+r+r+r+r+r+r+r+r+",
"r+r+r+r+r+r+r+r+r+r+r+r+r+r+r+r+r+r+r+r+r+r+r+r+r+r+r+r+r+r+r+r+r+r+r+r+r+r+r+r+r+r+r+r+r+r+r+r+r+r+r+r+r+r+r+r+r+r+r+r+r+r+r+r+",
"r+r+r+r+r+r+r+r+r+r+r+r+r+r+r+r+r+r+r+r+r+r+r+r+r+r+r+r+r+r+r+r+r+r+r+r+r+r+r+r+r+r+r+r+r+r+r+r+r+r+r+r+r+r+r+r+r+r+r+r+r+r+r+r+",
"r+r+r+r+r+r+r+r+r+r+r+r+r+r+r+r+r+r+r+r+r+r+r+r+r+r+r+r+r+r+r+r+r+r+r+r+r+r+r+r+r+r+r+r+r+r+r+r+r+r+r+r+r+r+r+r+r+r+r+r+r+r+r+r+",
"r+r+r+r+r+r+r+r+r+r+r+r+r+r+r+r+r+r+r+r+r+r+r+r+r+r+r+r+r+r+r+r+r+r+r+r+r+r+r+r+r+r+r+r+r+r+r+r+r+r+r+r+r+r+r+r+r+r+r+r+r+r+r+r+",
"r+r+r+r+r+r+r+r+r+r+r+r+r+r+r+r+r+r+r+r+r+r+r+r+r+r+r+r+r+r+r+r+r+r+r+r+r+r+r+r+r+r+r+r+r+r+r+r+r+r+r+r+r+r+r+r+r+r+r+r+r+r+r+r+",
"r+r+r+r+r+r+r+r+r+r+r+r+r+r+r+r+r+r+r+r+r+r+r+r+r+r+r+r+r+r+r+r+r+r+r+r+r+r+r+r+r+r+r+r+r+r+r+r+r+r+r+r+r+r+r+r+r+r+r+r+r+r+r+r+",
"r+r+r+r+r+r+r+r+r+r+r+r+r+r+r+r+r+r+r+r+r+r+r+r+r+r+r+r+r+r+r+r+r+r+r+r+r+r+r+r+r+r+r+r+r+r+r+r+r+r+r+r+r+r+r+r+r+r+r+r+r+r+r+r+",
"r+r+r+r+r+r+r+r+r+r+r+r+r+r+r+r+r+r+r+r+r+r+r+r+r+r+r+r+r+r+r+r+r+r+r+r+r+r+r+r+r+r+r+r+r+r+r+r+r+r+r+r+r+r+r+r+r+r+r+r+r+r+r+r+",
"r+r+r+r+r+r+r+r+r+r+r+r+r+r+r+r+r+r+r+r+r+r+r+r+r+r+r+r+r+r+r+r+r+r+r+r+r+r+r+r+r+r+r+r+r+r+r+r+r+r+r+r+r+r+r+r+r+r+r+r+r+r+r+r+",
"r+r+r+r+r+r+r+r+r+r+r+r+r+r+r+r+r+r+r+r+r+r+r+r+r+r+r+r+r+r+r+r+r+r+r+r+r+r+r+r+r+r+r+r+r+r+r+r+r+r+r+r+r+r+r+r+r+r+r+r+r+r+r+r+",
"r+r+r+r+r+r+r+r+r+r+r+r+r+r+r+r+r+r+r+r+r+r+r+r+r+r+r+r+r+r+r+r+r+r+r+r+r+r+r+r+r+r+r+r+r+r+r+r+r+r+r+r+r+r+r+r+r+r+r+r+r+r+r+r+",
"r+r+r+r+r+r+r+r+r+r+r+r+r+r+r+r+r+r+r+r+r+r+r+r+r+r+r+r+r+r+r+r+r+r+r+r+r+r+r+r+r+r+r+r+r+r+r+r+r+r+r+r+r+r+r+r+r+r+r+r+r+r+r+r+",
"r+r+r+r+r+r+r+r+r+r+r+r+r+r+r+r+r+r+r+r+r+r+r+r+r+r+r+r+r+r+r+r+r+r+r+r+r+r+r+r+r+r+r+r+r+r+r+r+r+r+r+r+r+r+r+r+r+r+r+r+r+r+r+r+",
"r+r+r+r+r+r+r+r+r+r+r+r+r+r+r+r+r+r+r+r+r+r+r+r+r+r+r+r+r+r+r+r+r+r+r+r+r+r+r+r+r+r+r+r+r+r+r+r+r+r+r+r+r+r+r+r+r+r+r+r+r+r+r+r+",
"r+r+r+r+r+r+r+r+r+r+r+r+r+r+r+r+r+r+r+r+r+r+r+r+r+r+r+r+r+r+r+r+r+r+r+r+r+r+r+r+r+r+r+r+r+r+r+r+r+r+r+r+r+r+r+r+r+r+r+r+r+r+r+r+",
"r+r+r+r+r+r+r+r+r+r+r+r+r+r+r+r+r+r+r+r+r+r+r+r+r+r+r+r+r+r+r+r+r+r+r+r+r+r+r+r+r+r+r+r+r+r+r+r+r+r+r+r+r+r+r+r+r+r+r+r+r+r+r+r+",
"r+r+r+r+r+r+r+r+r+r+r+r+r+r+r+r+r+r+r+r+r+r+r+r+r+r+r+r+r+r+r+r+r+r+r+r+r+r+r+r+r+r+r+r+r+r+r+r+r+r+r+r+r+r+r+r+r+r+r+r+r+r+r+r+",
"r+r+r+r+r+r+r+r+r+r+r+r+r+r+r+r+r+r+r+r+r+r+r+r+r+r+r+r+r+r+r+r+r+r+r+r+r+r+r+r+r+r+r+r+r+r+r+r+r+r+r+r+r+r+r+r+r+r+r+r+r+r+r+r+",
"r+r+r+r+r+r+r+r+r+r+r+r+r+r+r+r+r+r+r+r+r+r+r+r+r+r+r+r+r+r+r+r+r+r+r+r+r+r+r+r+r+r+r+r+r+r+r+r+r+r+r+r+r+r+r+r+r+r+r+r+r+r+r+r+",
"r+r+r+r+r+r+r+r+r+r+r+r+r+r+r+r+r+r+r+r+r+r+r+r+r+r+r+r+r+r+r+r+r+r+r+r+r+r+r+r+r+r+r+r+r+r+r+r+r+r+r+r+r+r+r+r+r+r+r+r+r+r+r+r+",
"r+r+r+r+r+r+r+r+r+r+r+r+r+r+r+r+r+r+r+r+r+r+r+r+r+r+r+r+r+r+r+r+r+r+r+r+r+r+r+r+r+r+r+r+r+r+r+r+r+r+r+r+r+r+r+r+r+r+r+r+r+r+r+r+",
"r+r+r+r+r+r+r+r+r+r+r+r+r+r+r+r+r+r+r+r+r+r+r+r+r+r+r+r+r+r+r+r+r+r+r+r+r+r+r+r+r+r+r+r+r+r+r+r+r+r+r+r+r+r+r+r+r+r+r+r+r+r+r+r+",
"D@E@F@G@H@I@J@K@L@M@M@N@O@P@Q@R@S@T@U@V@W@X@Y@Z@Z@`@ #.#+#@###O@$#%#&#P@*#=#-#;#>#,#*#M@'#)#;#'#p !#'#'#*#~#{#!#]#^#( /#(#_#:#<#",
"!#F@[#}#|#1#2#3#=+4#5#6#7#8#9#0#[#a#b#c#d#e#6.f#g#h#i#j#k#l#i#m#n#o#=+p#q#r#s#t#u#v#w#v#x#S+y#z#A#B#O+O+C#D#E#Z u#F#G#H#I#J#i+K#",
"L#M#F@G@N#O#P#Q#R#S#T#U#V#W#X#Y#Z#`# $.$+$@$#$$$%$&$j+*$A.=$I.-$;$>$,$$.'$5#)$!$~$W j.{$ .@@]$^$/$($r#_$:$` <$[$}$|$1$2$3$4$5$6$",
"{#,@7$8$t 9$0$a$b$c$$@d$a+e$f$g$h$H i$v+j$$@e$k$l$m$n$o$p$T q$r$s$t$j+u$v$w$x$y$l$z$d.A$B$C$i+D$E$F$G$H$Z+C#X I$J$K$]$2$L$I#M$w@",
"N$O$P$Q$8$W.R$0+S$T$D+U$V$W$*$X$=.Y$Z$`$X# %.%T+P.F.+%E+@%S 5#A##%$%<+%%q#&%*%$%=%-%<+;%A$#@>%,%'%)%!%T+S+w$~%{%]%F#^%/%(%_%:%<%",
"[%}%|%1%2%3%4%5%6%7%_%8%9%0%M.a%b%c%d%8+_.e%f%g%F$h%i%j%k%l%m%n%m$o%p%q%r%s%t%u%v%w%x%6@w@w@y%z%A%B%i%K#C%D%E%F%G%H%w@I%J%K%L%M%"};
