/* XPM */
static char * bullet_xpm[] = {
"64 64 59 1",
" 	c #980088",
".	c #2C373C",
"+	c #2D373C",
"@	c #2D383C",
"#	c #384448",
"$	c #3B474B",
"%	c #3C484C",
"&	c #3C484B",
"*	c #3E4A4E",
"=	c #5E6365",
"-	c #858889",
";	c #797D7E",
">	c #525A5E",
",	c #475559",
"'	c #4F5E62",
")	c #48555A",
"!	c #4F5F63",
"~	c #475459",
"{	c #3F4C50",
"]	c #765036",
"^	c #4B443F",
"/	c #354144",
"(	c #374246",
"_	c #A85204",
":	c #A44F02",
"<	c #835337",
"[	c #3C474A",
"}	c #3D484B",
"|	c #995629",
"1	c #A44F01",
"2	c #A85303",
"3	c #746157",
"4	c #8A8D8D",
"5	c #374043",
"6	c #8B5634",
"7	c #AA5505",
"8	c #7A7B7B",
"9	c #8F9192",
"0	c #95562D",
"a	c #A65103",
"b	c #745241",
"c	c #9EA0A1",
"d	c #A75817",
"e	c #A55001",
"f	c #7A533D",
"g	c #8D6E60",
"h	c #A65102",
"i	c #AB570A",
"j	c #6A6A69",
"k	c #9E5727",
"l	c #9D5624",
"m	c #AB5607",
"n	c #A34F04",
"o	c #915632",
"p	c #8D6D5E",
"q	c #724329",
"r	c #805139",
"s	c #A05927",
"t	c #715141",
"                                                                ",
"                                                                ",
"                                                                ",
"                                                                ",
"                                                                ",
"                                                                ",
"                                                                ",
"                                                                ",
"                                                                ",
"                                                                ",
"                                                                ",
"                                                                ",
"                                                                ",
"                                                                ",
"                                                                ",
"                                                                ",
"                                                                ",
"                                                                ",
"                                                                ",
"                                                                ",
"                                                                ",
"                                                                ",
"                                                                ",
"                                                                ",
"                                                                ",
"                                                                ",
"                                                                ",
"                                                                ",
"                                                                ",
"                                                                ",
"                                                                ",
"                                                                ",
"                                                                ",
"                                                                ",
"                                                                ",
"                                                                ",
"                                                                ",
"                                                                ",
"                                                                ",
"                                                                ",
"                                                                ",
"                                                                ",
"                                                                ",
"                                                                ",
"                       .+@#$%&*=-------;.>                      ",
"                       ...,')!~..........{                      ",
"                       .]]]^/((((((((((((.                      ",
"                       ._::<[}}}}}.                             ",
"                        |123 4   5                              ",
"                        6178 9   9                              ",
"                        01ab9   c9                              ",
"                       .d1ef9999                                ",
"                       gh1ij                                    ",
"                       k11l.                                    ",
"                      .mn1o.                                    ",
"                      p1q1r                                     ",
"                      bssst                                     ",
"                                                                ",
"                                                                ",
"                                                                ",
"                                                                ",
"                                                                ",
"                                                                ",
"                                                                "};
