/* XPM */
static char * door_xpm[] = {
"64 64 29 1",
" 	c #383838",
".	c #006C6C",
"+	c #007070",
"@	c #007C7C",
"#	c #005858",
"$	c #004040",
"%	c #008C8C",
"&	c #008484",
"*	c #00A4A4",
"=	c #009C9C",
"-	c #20B4B4",
";	c #A8A8A8",
">	c #B4B4B4",
",	c #8C8C8C",
"'	c #7C7C7C",
")	c #707070",
"!	c #646464",
"~	c #545454",
"{	c #484848",
"]	c #989898",
"^	c #202020",
"/	c #E4D800",
"(	c #CCC400",
"_	c #9C9C00",
":	c #585400",
"<	c #404000",
"[	c #B4AC00",
"}	c #000000",
"|	c #74C8C8",
"                                                                ",
" .............................................................. ",
" .++++++@#.+++++@#.+++++@#.+++++@#.+++++@#.+++++@#.+++++@#.+++@ ",
" .+++++@#$.@@@@@#$.@@%%%#$.@%%&&#$.@@@@@#$.@@@@@#$.@@@@@#$.@@@@ ",
" .+++++++..@@@@@+..@@@%%+..@*=%&+..@@@@@+..@@@@@+..@@@@@+..@@@@ ",
" .++++$$$$$$$$$$$$$$$$$$$$$$$$$$$$$$$$$$$$$$$$$$$$$$$$$$$$#@@@@ ",
" .++++$###################################################@@@@@ ",
" .+=#+$#+++++++++++++++++++++++++++++++++++++++++++++++++@%@-#+ ",
" .+#$.$#++++@@@@@@@@&&&&%&%&%&%&&&&&@&@@@@@@@@@@@@@@@@@@@&%@#$. ",
" .++..$#+++++@@@@@@@@&&&&%&%%%&%&%&&&@&@@@@@@@@@@@@@@@@@@%%@+.. ",
" .+@@+$#++++@+@@@@@@@@&&&&%&%%%&%&%&&&&&@&@@@@@@@@@@@@@@@&%@@@@ ",
" .+@@+$#+++++@+@@@@@@@@&&&&%&%%%&%&%&%&&&@&@@@@@@@@@@@@@@%=@@@@ ",
" .+@@+$#++++++@+@@@@@@@@&&&&%&%%%&%&%&%&&&@&@&@@@@@@@@@@@&=@@@@ ",
" .+@@@$#+++++++@+@@@@@@@@&&&&%&%%%&%&%&%&&&&&@&@@@@@@@@@@%=@@@@ ",
" .+@@@$#++++++++@+@@@@@@@@&&&&%&%%%%%&%&%&&&&&@&@&@@@@@@@&=@@@@ ",
" .+=#+$#+++++++++@+@@@@@@@@&&&&%&%%%%%&%&%&&&&&@&@&@@@@@@%=@-#+ ",
" .+#$.$#++++++++++@@@@@@@@@@&&&&%&%%%%%&%&%&%&&&&&@&@&@@@&=@#$. ",
" .++..$#+++++++++++@@@@@@@@&@&&&&%&%%%%%&%&%&%&&&&&@&@&@@%=@+.. ",
" .+@@@$#.+++++++++@+@@@@@@@@&@&&&&%&%%%%%&%&%&%&&&&&@&@&@&=@@@@ ",
" .+@@@$#+.+++++++++@+@@@@@@@@&@&&&&%&%%%%%&%&%&%&&&&&&&@&%=@@@@ ",
" .+@@@$#+.++++++++++@+@@@@@@@@&@&&%&%&%%%%%%%&%&%&&&&&&&@&*@@@@ ",
" .+@@@$#+...+++++++++@+@@@@@@@@&@&&%&%&%%%%%%%&%&%&%&&&&&%*@@@@ ",
" .+@@@$#++.+.+++++++++@@@@@@@@@@&@&&%&%&%%%%%%%%%&%&%&&&&&*@@@@ ",
" .+=#+$#+.+.+.+++++++++@@@@@@@@@@&@&&%&%&%%%&%%%%%&%&%&&&%*@-#+ ",
" .+#$.$#++...+.+++++++++@@@@@@@@@@&@&&%&%&%%%&%%%%%&%&%&&&*@#$. ",
" .++..$#+++...+++++++++++@@@@@@@@@@&@&&%&%&%%%&%%%%%&%&%&%*@+.. ",
" .+@@@$#++++...+++++++++@+@@@@@@@@@@&@&&%&%&%%%&%%%%%%%&%&*@@@@ ",
" .+@@@$#+++.+.+.+++++++++@+@@@@@@@@@@&@;;>>>>>>>,%%%%%%%&%-@@@@ ",
" .++@@$#++++...+.+++++++++@+@@@@@@@@@@&;,')!!~~{!@%%%%%%%&-&&@@ ",
" .+.+@$#+++++...+++++++++++@+@@@@@@@@@@]'> !~,^{^.@%/(_%%%-&&&@ ",
" .+.+@$#++++++...+++++++++++@+@@@@@@@@@])!!~~{{{^.@&/:<@%%-&&&& ",
" .+&#+$#+++++.+...+++++++++++@@@@@@@@@@]!!~~{{{{^.+%(:<.@%-&-#+ ",
" .+#{.$#++++++...+.+++++++++++@@@@@@@@@,!~~{{{{{^.+&(:<+.&-&#$. ",
" .++..$#+++++++...+.+++++++++++@@@@@@@@,~~/[[:^ ^.+%(:<*.@=%+.. ",
" .++..$#++++++++...+++++++++++@+@@@@@@@,~{[}}:^^^.+&[:<=.+==%@@ ",
" .+++.$#+++++++++...+++++++++++@+@@@@@@,{{[}}:^^^.+%[:<=.+&*==% ",
" .+@+.$#++++++++...+.+++++++++++@+@@@@@,{{[^^<^^^.+&[:<=.+&**== ",
" .+@+.$#+++++++++...+.+++++++++++@+@@@@,{{::<<^^^.+%_:<%.+@-**= ",
" .+@++$#++++++++++...+.+++++++++++@+@@@'{{^^^^^^^.+&_:<%.+@---* ",
" .+=#+$#+++++++++++...+++++++++++++@+@@'{{^^^^^^^.+%::<%.+@-|&= ",
" .+#$.$#++++++++++.+...+++++++++++++@@@'{{{ ^^^^^.+&:<.+.+@-&$@ ",
" .++..$#+@+++++++++...+.+++++++++++@+@@){)^{ ~^^^.+&&....+&-=@@ ",
" .+@+.$#+++++++++++++..+.+++++++++++@+@){{{   ^^^.+&&&...+&*-== ",
" .+@++$#+@+++++++++.+...+.+++++++++++@+{^^^^^^^^^.+@&&&+.+&**-| ",
" .+@@+$#++@+++++++++.+...+++++++++++++@+..........+@&&&&++%=**- ",
" .+@@+$#+@+++++++++++.....+++++++++++++@@++++++++++@@&&&&+===** ",
" .+@@@$#++@+++++++++++...+.+++++++++++++@@@@@@@@@@@@@@&&&+-%%=* ",
" .+=#+$#+@+++++++++++.+...+.+++++++++++++@@@@@@@@@@@@@@&&@-%-#+ ",
" .+#$.$#+@@+++++++++++.+...+++++++++++++++@@@@@@@@@@@@@@&%-%#$. ",
" .++..$#+@+@+++++++++++.....+++++++++++++@+@@@@@@@@@@@@@@=-%+.. ",
" .+@@@$#+@@+++++++++++++.....+++++++++++++@+@@@@@@@@@@@@@=-%%@@ ",
" .+@@@$#+@+@+++++++++++.+...+.+++++++++++++@+@@@@@@@@@@@@=-&%%% ",
" .+@@@$#+@@+++++++++++++.+...+.+++++++++++++@+@@@@@@@@@@@=-&&%% ",
" .+@@@$#+@@@+++++++++++++.....+++++++++++++++@+@@@@@@@@@@=-&&&& ",
" .+@@@$#+@@+@+++++++++++++.....+++++++++++++++@@@@@@@@@@@=-&&&& ",
" .+-#+$#+@@@+++++++++++++.+...+.+++++++++++++++@@@@@@@@@@=-&-#+ ",
" .+#$.$#@@@+@+++++++++++++.+...+.+++++++++++++++@@@@@@@@@=-&#$. ",
" .++..$.&&&&%%%%%%%%%%%&&&@@@@@++@@@@@&&&%%%==============-@+.. ",
" .+@@@.+%=======***********==%%&&&&%%===****---------------@@@@ ",
" .+@@@@@@@@@@@@@@@@@@++++++++........+++++++++@@@@@@@@@@@@@@@@@ ",
" .+@@@@@-#+@@@@@-#+@@+++&#+++...+#....++&#+++++@-#+@@@@@-#+@@@@ ",
" .+@@@@@#$.@@@@@#$.@@@++#$.++...#$.....+#$.+++++#$.@@@@@#$.@@@@ ",
"{.+@@@@@+..@@@@@+..@@@+++..+++.........++..++++++..@@@@@+..@@@@{",
"~~~~~~~~~~~~~~~~~~~~~~~~~~~~~~~~~~~~~~~~~~~~~~~~~~~~~~~~~~~~~~~~"};
