/* XPM */
static char * enemy7_xpm[] = {
"64 64 52 1",
" 	c #980088",
".	c #7C7C7C",
"+	c #A8A8A8",
"@	c #8C8C8C",
"#	c #545454",
"$	c #383838",
"%	c #646464",
"&	c #707070",
"*	c #484848",
"=	c #2C2C2C",
"-	c #C0C0C0",
";	c #D0D0D0",
">	c #000000",
",	c #A0643C",
"'	c #0004FC",
")	c #80502C",
"!	c #202020",
"~	c #744C28",
"{	c #FCA470",
"]	c #FCBC9C",
"^	c #D08050",
"/	c #B47044",
"(	c #483818",
"_	c #DC8854",
":	c #FC9C60",
"<	c #F0945C",
"[	c #BC7848",
"}	c #C87C4C",
"|	c #9C6038",
"1	c #FCB080",
"2	c #885830",
"3	c #6C4824",
"4	c #A86840",
"5	c #B4B4B4",
"6	c #989898",
"7	c #905C34",
"8	c #E88C58",
"9	c #543C1C",
"0	c #28200C",
"a	c #382C14",
"b	c #403018",
"c	c #5C4020",
"d	c #FCB890",
"e	c #000070",
"f	c #00004C",
"g	c #000040",
"h	c #00007C",
"i	c #000064",
"j	c #0000A8",
"k	c #0000C8",
"l	c #000088",
"m	c #0000B0",
"                                                                ",
"                                                                ",
"                                                                ",
"                                                                ",
"                                                                ",
"                                                                ",
"                                                                ",
"                                                                ",
"                                                                ",
"                                                                ",
"                                                                ",
"                                                                ",
"                                                                ",
"                                                                ",
"                                                                ",
"                                                                ",
"                                                                ",
"                             .+@.#$                             ",
"                            .+%&#*==                            ",
"                            @.&&#*$=                            ",
"                           .@.&&##*==                           ",
"                          ..-;-+@&##$$                          ",
"                          .*>,',)')>!$                          ",
"                          =!~{]^/]{~!=                          ",
"                           !(_:<<:_(!                           ",
"                            ([_}/_[(                            ",
"                           >>|:11:(>>                           ",
"                          %>##>2/>##>>3                         ",
"                        44%$56>>>>6.>744                        ",
"                       ~_8/%9>*202>>/___4                       ",
"                       }8^^$%788|____^}}[~                      ",
"                      }_8[//$$7^|^77)~,7,[                      ",
"                      ^8[4)}7!$79^7^^~~37))                     ",
"                      ^8[3(3)7!$$7~||(~a))9                     ",
"                     }}8^3b9339>!$7~(~9a~~)                     ",
"                     88843ab99b9>>!$79aabc3                     ",
"                     8[|ccabbbbba9>>>00(c))3                    ",
"                     [88})a!!!!.%%!!!!!(3773                    ",
"                     [^},,3!!!!%%*!!!!00!,,3                    ",
"                      ^^d^3((33393c((bb0/},|                    ",
"                      ^d_24~)2449)))3c9b/},|                    ",
"                       {{_4)2274)~2)~3c b}/                     ",
"                        44222277)~22)3c                         ",
"                         (c||~~))~22)3c                         ",
"                          /^<<4~aa933b0                         ",
"                          ^{{{<4cc3~)3c                         ",
"                          :{{{<^23)22)c                         ",
"                         |{{{{{|23)22)c                         ",
"                         <<<<</<23)22)c                         ",
"                         <|44|)|}3)2|)c                         ",
"                          3))4/923)2)|3                         ",
"                         93))3((09))~3)(                        ",
"                          b3c9bb(99999b(                        ",
"                          !000>!((9999b                         ",
"                          !e>>>>0(((b0b                         ",
"                           ef>>>g!g!!>                          ",
"                           >>>>>g!g!!>                          ",
"                           h!>>>gigg!>                          ",
"                          !ji!>> gig!>                          ",
"                          !kle!> leg!>                          ",
"                           !!!>  lee>                           ",
"                                >mjhg>                          ",
"                                mhigg>>                         ",
"                                !!!!!>>                         "};
