/* XPM */
static char * fire2_xpm[] = {
"64 64 255 2",
"  	c #008080",
". 	c #FFFFFF",
"+ 	c #980088",
"@ 	c #9C9C00",
"# 	c #E4D800",
"$ 	c #B4AC00",
"% 	c #E46C00",
"& 	c #FC8820",
"* 	c #646464",
"= 	c #FCF400",
"- 	c #7C7C7C",
"; 	c #8C8C8C",
"> 	c #FCFCD8",
", 	c #FCA85C",
"' 	c #044C00",
") 	c #046400",
"! 	c #CCC400",
"~ 	c #FCFC7C",
"{ 	c #047000",
"] 	c #047C00",
"^ 	c #045800",
"/ 	c #FCF85C",
"( 	c #FCFC9C",
"_ 	c #FCF420",
": 	c #048800",
"< 	c #049800",
"[ 	c #04B000",
"} 	c #04C800",
"| 	c #04A400",
"1 	c #04BC00",
"2 	c #00EC00",
"3 	c #00E000",
"4 	c #00A800",
"5 	c #FCFCFC",
"6 	c #00FC00",
"7 	c #80FC7C",
"8 	c #BCFCB8",
"9 	c #D8FCD8",
"0 	c #FCFCB8",
"a 	c #FCFC54",
"b 	c #706C00",
"c 	c #FCF440",
"d 	c #848400",
"e 	c #DCDCDC",
"f 	c #B4B4B4",
"g 	c #989898",
"h 	c #ECECEC",
"i 	c #C0C0C0",
"j 	c #707070",
"k 	c #A8A8A8",
"l 	c #D0D0D0",
"m 	c #0000E0",
"n 	c #545454",
"o 	c #0000FC",
"p 	c #0000C8",
"q 	c #0000BC",
"r 	c #000088",
"s 	c #383838",
"t 	c #2024FC",
"u 	c #0000EC",
"v 	c #0000D4",
"w 	c #484848",
"x 	c #2C2C2C",
"y 	c #0000A8",
"z 	c #000070",
"A 	c #000098",
"B 	c #0000B0",
"C 	c #0004FC",
"D 	c #0000A4",
"E 	c #E88C58",
"F 	c #DC8854",
"G 	c #C87C4C",
"H 	c #A86840",
"I 	c #B47044",
"J 	c #80502C",
"K 	c #6C4824",
"L 	c #543C1C",
"M 	c #000000",
"N 	c #202020",
"O 	c #FC7800",
"P 	c #CC6000",
"Q 	c #FC9840",
"R 	c #A85400",
"S 	c #9C4C00",
"T 	c #744C28",
"U 	c #A0643C",
"V 	c #483818",
"W 	c #5C4020",
"X 	c #FC9C60",
"Y 	c #905C34",
"Z 	c #9C6038",
"` 	c #F0945C",
" .	c #FCA470",
"..	c #D08050",
"+.	c #BC7848",
"@.	c #885830",
"#.	c #980000",
"$.	c #A80000",
"%.	c #7C0000",
"&.	c #EC0000",
"*.	c #D40000",
"=.	c #880000",
"-.	c #FC2020",
";.	c #FC0000",
">.	c #E00000",
",.	c #BC0000",
"'.	c #640000",
").	c #700000",
"!.	c #FC5454",
"~.	c #FC5C5C",
"{.	c #FC9C9C",
"].	c #A40000",
"^.	c #C80000",
"/.	c #B00000",
"(.	c #FC4040",
"_.	c #009C9C",
":.	c #007070",
"<.	c #004040",
"[.	c #044000",
"}.	c #00CCCC",
"|.	c #00B4B4",
"1.	c #008484",
"2.	c #00E4E4",
"3.	c #00FCFC",
"4.	c #54FCFC",
"5.	c #5C5C5C",
"6.	c #404040",
"7.	c #B8FCFC",
"8.	c #005858",
"9.	c #4C4C4C",
"0.	c #343434",
"a.	c #FCB080",
"b.	c #585400",
"c.	c #00D400",
"d.	c #40FC40",
"e.	c #9CFC9C",
"f.	c #60FC5C",
"g.	c #54FC54",
"h.	c #B45400",
"i.	c #20FC20",
"j.	c #403018",
"k.	c #382C14",
"l.	c #000058",
"m.	c #5454FC",
"n.	c #9C9CFC",
"o.	c #000064",
"p.	c #000040",
"q.	c #5C60FC",
"r.	c #00007C",
"s.	c #404000",
"t.	c #7CFCF8",
"u.	c #9CFCFC",
"v.	c #20FCFC",
"w.	c #D8FCFC",
"x.	c #40FCFC",
"y.	c #FC7C7C",
"z.	c #B8BCFC",
"A.	c #7C80FC",
"B.	c #4040FC",
"C.	c #5CFCFC",
"D.	c #28200C",
"E.	c #580000",
"F.	c #4C0000",
"G.	c #400000",
"H.	c #FCB8B8",
"I.	c #FCBC9C",
"J.	c #9CDCDC",
"K.	c #48C0C0",
"L.	c #20B0B0",
"M.	c #00A4A4",
"N.	c #006C6C",
"O.	c #74C8C8",
"P.	c #008C8C",
"Q.	c #B8E8E8",
"R.	c #007474",
"S.	c #009898",
"T.	c #007C7C",
"U.	c #20B4B4",
"V.	c #007878",
"W.	c #FCE0D0",
"X.	c #006464",
"Y.	c #006060",
"Z.	c #0E0E0E",
"`.	c #F1AE43",
" +	c #F1F100",
".+	c #F1F1F1",
"++	c #F10000",
"@+	c #575757",
"#+	c #4F4F4F",
"$+	c #5B5B5B",
"%+	c #636363",
"&+	c #6B6B6B",
"*+	c #373737",
"=+	c #7B634F",
"-+	c #8B8B8B",
";+	c #939393",
">+	c #979797",
",+	c #9F9F9F",
"'+	c #BFA78F",
")+	c #A7A7A7",
"!+	c #ABABAB",
"~+	c #AF977F",
"{+	c #A78F77",
"]+	c #777777",
"^+	c #838383",
"/+	c #BFBFBF",
"(+	c #6F6F6F",
"_+	c #7F7F7F",
":+	c #937B63",
"<+	c #474F33",
"[+	c #008CE4",
"}+	c #007CCC",
"|+	c #B3B3B3",
"1+	c #7B7F63",
"2+	c #474747",
"3+	c #009CFC",
"4+	c #9F876F",
"5+	c #5CBCFC",
"6+	c #D8D8FC",
"7+	c #8B735B",
"8+	c #FCB890",
"9+	c #6F7357",
"0+	c #B79F87",
"a+	c #836B57",
"b+	c #2F2F2F",
"c+	c #40B0FC",
"d+	c #53573B",
"e+	c #4B4B4B",
"f+	c #FCC4A4",
"g+	c #434343",
"h+	c #20A8FC",
"i+	c #67533F",
"j+	c #FCD4BC",
"k+	c #FCE8DC",
"l+	c #FCD8C4",
"m+	c #430000",
"n+	c #006CB4",
"o+	c #A70000",
"p+	c #E30000",
"q+	c #EF0000",
"r+	c #CB0000",
"s+	c #B30000",
"t+	c #7F0000",
"u+	c #730000",
"v+	c #9B0000",
"w+	c #BF0000",
"x+	c #8B0000",
"y+	c #D70000",
"z+	c #670000",
"A+	c #5B0000",
"B+	c #3B3B3B",
"C+	c #530707",
"D+	c #272727",
"E+	c #232323",
"F+	c #574333",
"+ + + + + + + + + + + + + + + + + + + + + + + + + + + + + + + + + + + + + + + + + + + + + + + + + + + + + + + + + + + + + + + + ",
"+ + + + + + + + + + + + + + + + + + + + + + + + + + + + + + + + + + + + + + + + + + + + + + + + + + + + + + + + + + + + + + + + ",
"+ + + + + + + + + + + + + + + + + + + + + + + + + + + + + + + + + + + + + + + + + + + + + + + + + + + + + + + + + + + + + + + + ",
"+ + + + + + + + + + + + + + + + + + + + + + + + + + + + + + + + + + + + + + + + + + + + + + + + + + + + + + + + + + + + + + + + ",
"+ + + + + + + + + + + + + + + + + + + + + + + + + + + + + + + + + + + + + + + + + + + + + + + + + + + + + + + + + + + + + + + + ",
"+ + + + + + + + + + + + + + + + + + + + + + + + + + + + + + + + + + + + + + + + + + + + + + + + + + + + + + + + + + + + + + + + ",
"+ + + + + + + + + + + + + + + + + + + + + + + + + + + + + + + + + + + + + + + + + + + + + + + + + + + + + + + + + + + + + + + + ",
"+ + + + + + + + + + + + + + + + + + + + + + + + + + + + + + + + + + + + + + + + + + + + + + + + + + + + + + + + + + + + + + + + ",
"+ + + + + + + + + + + + + + + + + + + + + + + + + + + + + + + + + + + + + + + + + + + + + + + + + + + + + + + + + + + + + + + + ",
"+ + + + + + + + + + + + + + + + + + + + + + + + + + + + + + + + + + + + + + + + + + + + + + + + + + + + + + + + + + + + + + + + ",
"+ + + + + + + + + + + + + + + + + + + + + + + + + + + + + + + + + + + + + + + + + + + + + + + + + + + + + + + + + + + + + + + + ",
"+ + + + + + + + + + + + + + + + + + + + + + + + + + + + + + + + + + + + + + + + + + + + + + + + + + + + + + + + + + + + + + + + ",
"+ + + + + + + + + + + + + + + + + + + + + + + + + + + + + + + + + + + + + + + + + + + + + + + + + + + + + + + + + + + + + + + + ",
"+ + + + + + + + + + + + + + + + + + + + + + + + + + + + + + + + + + + + + + + + + + + + + + + + + + + + + + + + + + + + + + + + ",
"+ + + + + + + + + + + + + + + + + + + + + + + + + + + + + + + + + + + + + + + + + + + + + + + + + + + + + + + + + + + + + + + + ",
"+ + + + + + + + + + + + + + + + + + + + + + + + + + + + + + + + + + + + + + + + + + + + + + + + + + + + + + + + + + + + + + + + ",
"+ + + + + + + + + + + + + + + + + + + + + + + + + + + + + + + + + + + + + + + + + + + + + + + + + + + + + + + + + + + + + + + + ",
"+ + + + + + + + + + + + + + + + + + + + + + + + + + + + + + + + + + + + + + + + + + + + + + + + + + + + + + + + + + + + + + + + ",
"+ + + + + + + + + + + + + + + + + + + + + + + + + + + + + + + + + + + + + + + + + + + + + + + + + + + + + + + + + + + + + + + + ",
"+ + + + + + + + + + + + + + + + + + + + + + + + + + + + + + + + + + + + + + + + + + + + + + + + + + + + + + + + + + + + + + + + ",
"+ + + + + + + + + + + + + + + + + + + + + + + + + + + + + + + + + + + + + + + + + + + + + + + + + + + + + + + + + + + + + + + + ",
"+ + + + + + + + + + + + + + + + + + + + + + + + + + + + + + + '+` + + + + + + + + + + + + + + + + + + + + + + + + + + + + + + + ",
"+ + + + + + + + + + + + + + + + + + + + + + + + + + + +  .(. .+ + + + + + + + + + + + + + + + + + + + + + + + + + + + + + + + + ",
"+ + + + + + + + + + + + + + + + + + + + + + + + + + + {.(.E '++ + + + + + + + + + + + + + + + + + + + + + + + + + + + + + + + + ",
"+ + + + + + + + + + + + + + + + + + + + + + + + + + +  .% % X + + + + + + + + + + + + + + + + + + + + + + + + + + + + + + + + + ",
"+ + + + + + + + + + + + + + + + + + + + + + + + + + + + y.O & ~.` + + + + + + + + + + + + + + + + + + + + + + + + + + + + + + + ",
"+ + + + + + + + + + + + + + + + + + + + + + + + + + + + y.% O O O E ` + + + + + + + + + + + + + + + + + + + + + + + + + + + + + ",
"+ + + + + + + + + + + + + + + + + + + + + + + + + + + + y.O O O O O % ` + + + + + + + + + + + + + + + + + + + + + + + + + + + + ",
"+ + + + + + + + + + + + + + + + + + + + + + + + + + + {.~.O O O # O O % ` + + + + + + + + + + + + + + + + + + + + + + + + + + + ",
"+ + + + + + + + + + + + + + + + + + + + + + + + + + {.~.O O & # # O O % % + + + + + + + + + + + + + + + + + + + + + + + + + + + ",
"+ + + + + + + + + + + + + + + + + + + + + + + + + +  .O O & # = # # O O O y.+ + + + + + + + + + + + + + + + + + + + + + + + + + ",
"+ + + + + + + + + + + + + + + + + + + + + + + + + + :+Z Z H I I I I U Z Z -++ + + + + + + + + + + + + + + + + + + + + + + + + + ",
"+ + + + + + + + + + + + + + + + + + + + + + + + + + >+|+f /+!+,+g ;+_+]+&+%+%++ + + + + + + + + + + + + + + + + + + + + + + + + ",
"+ + + + + + + + + + + + + + + + + + + + + + + + ,+h .+h h h l i f )+g ^+&+#+6.*++ + + + + + + + + + + + + + + + + + + + + + + + ",
"+ + + + + + + + + + + + + + + + + + + + + + + + e .+5 5 h l i f !+;+_+&+%+e+0.D+0.+ + + + + + + + + + + + + + + + + + + + + + + ",
"+ + + + + + + + + + + + + + + + + + + + + + + + f e .+5 h h l i |+,+^+&+9.0.D+x 2++ + + + + + + + + + + + + + + + + + + + + + + ",
"+ + + + + + + + + + + + + + + + + + + + + + + + + ; l h 5 h l !+;+]+5.2+0.D+x + + + + + + + + + + + + + + + + + + + + + + + + + ",
"+ + + + + + + + + + + + + + + + + + + + + + + + + + ; e 5 e i !+;+]+5.2+0.N + + + + + + + + + + + + + + + + + + + + + + + + + + ",
"+ + + + + + + + + + + + + + + + + + + + + + + + + + -+e 5 e i k g ]+5.2+0.E++ + + + + + + + + + + + + + + + + + + + + + + + + + ",
"+ + + + + + + + + + + + + + + + + + + + + + + + + + -+e 5 e i !+;+]+@+n 0.N + + + + + + + + + + + + + + + + + + + + + + + + + + ",
"+ + + + + + + + + + + + + + + + + + + + + + + + + + -+i l f ,+-+j $+2+*+E+N + + + + + + + + + + + + + + + + + + + + + + + + + + ",
"+ + + + + + + + + + + + + + + + + + + + + + + + + + ;+h .+.+l f ,+^+&+n B+x + + + + + + + + + + + + + + + + + + + + + + + + + + ",
"+ + + + + + + + + + + + + + + + + + + + + + + + + + >+h 5 e l |+; - 5.2+0.N + + + + + + + + + + + + + + + + + + + + + + + + + + ",
"+ + + + + + + + + + + + + + + + + + + + + + + + + + -+e 5 e l |+;+]+5.g+0.N + + + + + + + + + + + + + + + + + + + + + + + + + + ",
"+ + + + + + + + + + + + + + + + + + + + + + + + + + -+e 5 e l !+;+]+5.6.*+N + + + + + + + + + + + + + + + + + + + + + + + + + + ",
"+ + + + + + + + + + + + + + + + + + + + + + + + + + -+e 5 e l !+;+- $+2+0.N + + + + + + + + + + + + + + + + + + + + + + + + + + ",
"+ + + + + + + + + + + + + + + + + + + + + + + + + + ^+l h l /+,+^+&+#+B+x N + + + + + + + + + + + + + + + + + + + + + + + + + + ",
"+ + + + + + + + + + + + + + + + + + + + + + + + + + ^+i e l !+)+; ]+5.2+b+E++ + + + + + + + + + + + + + + + + + + + + + + + + + ",
"+ + + + + + + + + + + + + + + + + + + + + + + + + + -+e 5 h l !+;+]+* 2+0.N + + + + + + + + + + + + + + + + + + + + + + + + + + ",
"+ + + + + + + + + + + + + + + + + + + + + + + + + + -+e .+h l !+;+]+$+2+b+E++ + + + + + + + + + + + + + + + + + + + + + + + + + ",
"+ + + + + + + + + + + + + + + + + + + + + + + + + + -+e 5 e l !+;+- 5.2+0.N + + + + + + + + + + + + + + + + + + + + + + + + + + ",
"+ + + + + + + + + + + + + + + + + + + + + + + + + + -+e .+h l !+;+]+5.g+0.E++ + + + + + + + + + + + + + + + + + + + + + + + + + ",
"+ + + + + + + + + + + + + + + + + + + + + + + + + + -+e 5 e l f ;+]+5.2+0.E++ + + + + + + + + + + + + + + + + + + + + + + + + + ",
"+ + + + + + + + + + + + + + + + + + + + + + + + + + ]+l e l /+g -+&+#+6.x D++ + + + + + + + + + + + + + + + + + + + + + + + + + ",
"+ + + + + + + + + + + + + + + + + + + + + + + + + + ; e e e /+,+-+]+5.2+0.E++ + + + + + + + + + + + + + + + + + + + + + + + + + ",
"+ + + + + + + + + + + + + + + + + + + + + + + + + + -+e 5 h l f ;+_+5.2+0.E++ + + + + + + + + + + + + + + + + + + + + + + + + + ",
"+ + + + + + + + + + + + + + + + + + + + + + + + + + -+e 5 h i !+;+- $+2+0.N + + + + + + + + + + + + + + + + + + + + + + + + + + ",
"+ + + + + + + + + + + + + + + + + + + + + + + + + + -+e 5 h i f ;+]+5.2+0.N + + + + + + + + + + + + + + + + + + + + + + + + + + ",
"+ + + + + + + + + + + + + + + + + + + + + + + + + + ; e 5 h l !+;+]+$+2+0.E++ + + + + + + + + + + + + + + + + + + + + + + + + + ",
"+ + + + + + + + + + + + + + + + + + + + + + + + + ; e .+5 h l !+g ]+5.2+0.x x + + + + + + + + + + + + + + + + + + + + + + + + + ",
"+ + + + + + + + + + + + + + + + + + + + + + + + f e .+5 h h l i |+,+^+&+9.0.D+D+0.g+9.n $+* + + + + + + + + + + + + + + + + + + ",
"+ + + + + + + + + + + + + + + + + + + + + + + + e .+5 5 h l i f k g _+&+%+#+s D+x s s g+e+@+%++ + + + + + + + + + + + + + + + + ",
"+ + + + + + + + + + + + + + + + + + + + + + + + ,+h .+h h h l i /+)+;+^+j n g+0.B+6.2+#+@+* + + + + + + + + + + + + + + + + + + ",
"+ + + + + + + + + + + + + + + + + + + + + + + + + + >+|+f /+!+,+,+;+_+]+%+w w @+* &+&+&++ + + + + + + + + + + + + + + + + + + + "};
